<?xml version="1.0" encoding="UTF-8"?>
<svg version="1.1" xmlns="http://www.w3.org/2000/svg" width="218" height="218">
<path d="M0 0 C0 65.67 0 131.34 0 199 C-56 199 -56 199 -62 195 C-66.32886327 190.0861552 -67.12563151 187.65387103 -67.15390015 181.13168335 C-67.16047353 180.05952904 -67.16047353 180.05952904 -67.1671797 178.96571505 C-67.18058867 176.55835821 -67.18675131 174.15103799 -67.19287109 171.74365234 C-67.20077057 170.02236769 -67.20903942 168.3010847 -67.21765137 166.57980347 C-67.24389484 160.91519762 -67.2591838 155.2505843 -67.2734375 149.5859375 C-67.2787967 147.63653178 -67.2841742 145.68712611 -67.28956985 143.73772049 C-67.3112042 135.62768126 -67.32994016 127.51764403 -67.34119225 119.40758324 C-67.35742503 107.78360532 -67.39058018 96.15996204 -67.44759309 84.53611028 C-67.48630655 76.36446261 -67.50582675 68.19290437 -67.51111281 60.0211674 C-67.51476505 55.14035705 -67.52677235 50.25990342 -67.55921555 45.37919235 C-67.58931995 40.78427299 -67.59559958 36.18992572 -67.58383179 31.59492874 C-67.58361123 29.91153072 -67.59190129 28.22810599 -67.60948563 26.5447998 C-67.76103503 11.19754116 -67.76103503 11.19754116 -63.32348061 5.3404026 C-49.21177606 -8.95173392 -4.79546868 0 0 0 Z " fill="#394076" transform="translate(76,11)"/>
<path d="M0 0 C15.18 0 30.36 0 46 0 C46 65.67 46 131.34 46 199 C30.82 199 15.64 199 0 199 C0 133.33 0 67.66 0 0 Z " fill="#5A3864" transform="translate(87,11)"/>
<path d="M0 0 C9.57 0 19.14 0 29 0 C29 65.67 29 131.34 29 199 C19.43 199 9.86 199 0 199 C0 133.33 0 67.66 0 0 Z " fill="#7C3254" transform="translate(145,11)"/>
<path d="M0 0 C7.59 0 15.18 0 23 0 C23.09259844 24.26084443 23.16397979 48.5216463 23.20724869 72.78263187 C23.22787325 84.04745055 23.25599195 95.3121574 23.30175781 106.5769043 C23.34162867 116.39534293 23.36743358 126.21370058 23.37635398 136.03221792 C23.38156827 141.23099794 23.39382178 146.42954627 23.42292023 151.62825203 C23.45009312 156.52264633 23.45844115 161.41671373 23.45243073 166.3111763 C23.45353012 168.10625549 23.46147282 169.90134573 23.4768219 171.69635963 C23.49677953 174.15096418 23.49191872 176.60434115 23.48101807 179.05897522 C23.49266943 179.76619266 23.5043208 180.4734101 23.51632524 181.20205837 C23.45143127 186.62332889 21.96534655 189.61989535 19 194 C12.13670272 200.20964992 11.01477142 199 0 199 C0 133.33 0 67.66 0 0 Z " fill="#962E48" transform="translate(185,11)"/>
<path d="M0 0 C0.66 0.33 1.32 0.66 2 1 C-0.31 3.31 -2.62 5.62 -5 8 C-5.33 7.34 -5.66 6.68 -6 6 C-4 4 -2 2 0 0 Z " fill="#6884AF" transform="translate(17,13)"/>
</svg>
