<svg width="101" height="100" viewBox="0 0 101 100" fill="none" xmlns="http://www.w3.org/2000/svg">
<path d="M100.128 59.0112C98.702 58.2197 97.276 57.4406 95.8626 56.6348C95.2077 56.3403 94.6009 55.949 94.0623 55.4741C94.0463 55.262 94.2245 54.9856 93.8645 54.8894C93.8645 53.9463 93.8823 53.0032 93.8538 52.0618C93.8801 51.1318 93.6525 50.2122 93.1956 49.4018C92.7387 48.5914 92.0696 47.9208 91.2603 47.4622C90.682 47.1356 90.0445 46.9272 89.3849 46.8491C88.7254 46.771 88.0569 46.8247 87.4183 47.0072C86.7796 47.1896 86.1836 47.4972 85.6648 47.9119C85.146 48.3267 84.7148 48.8404 84.3962 49.4233C84.0397 49.9848 83.8026 50.0686 83.2643 49.7798C82.0326 49.1006 80.7939 48.4284 79.5212 47.8187C79.3043 47.7287 79.1231 47.5697 79.0055 47.3664C78.8879 47.1631 78.8405 46.9267 78.8706 46.6938C78.8528 45.3763 78.8599 44.0641 78.7387 42.7395C78.612 41.7767 78.1952 40.8752 77.5437 40.1552C76.8923 39.4351 76.037 38.9305 75.0918 38.7085C74.2217 38.388 73.2727 38.3498 72.3797 38.5994C71.4866 38.8491 70.6949 39.3738 70.1171 40.0991C69.9869 40.0635 69.9388 40.0991 69.9834 40.2382C69.6732 40.5578 69.4408 40.9445 69.3043 41.3685C69.126 41.9461 68.8765 42.0139 68.3418 41.709C66.6805 40.7659 64.9712 39.9084 63.3135 38.9599C62.7788 38.655 62.0658 38.7371 61.6719 38.1755L61.6558 38.163C60.7361 37.8242 60.5561 37.161 60.5668 36.2161C60.6167 31.0745 60.6078 25.9311 60.5792 20.7894C60.622 19.1113 60.5434 17.4323 60.344 15.7655C59.8867 12.4991 59.0492 9.29742 57.8486 6.2256C57.4557 4.84347 56.7368 3.57589 55.7523 2.52945C54.7678 1.48301 53.5465 0.688303 52.1911 0.212155C52.0129 0.1141 51.7152 0.315559 51.6136 0H49.4747C48.4211 0.230351 47.425 0.671651 46.5464 1.29731C45.6678 1.92297 44.925 2.72005 44.3626 3.64051C44.0668 4.20032 43.8636 4.79043 43.6033 5.35915C41.5112 9.96183 40.5032 14.9834 40.657 20.0371C40.7692 25.5941 40.657 31.1547 40.6463 36.7136C40.7782 37.3019 40.4841 37.5889 39.9458 37.6995C39.3017 38.1775 38.6086 38.5857 37.8781 38.9171C36.1617 40.0171 34.2634 40.7623 32.5077 41.7803C32.2011 41.9586 32.0692 41.8855 31.9105 41.5182C31.5946 40.7312 31.0747 40.0426 30.4044 39.5233C29.7559 39.0106 28.991 38.6656 28.1774 38.519C27.3639 38.3723 26.5268 38.4285 25.7401 38.6825C24.9534 38.9365 24.2414 39.3805 23.6671 39.9752C23.0929 40.57 22.674 41.2971 22.4476 42.0923C22.2896 42.7585 22.2751 43.4507 22.4048 44.1229C22.6954 46.2249 22.3228 47.931 20.0128 48.6263L19.8541 48.7868C19.0937 49.0356 18.371 49.3877 17.7063 49.8333C17.5691 49.7941 17.5281 49.8725 17.5013 49.9884C17.3445 49.9884 17.0629 50.0116 17.0486 49.9635C16.7117 48.8171 15.7171 48.2662 14.9097 47.546L14.8776 47.5103C13.9914 47.0188 12.9837 46.79 11.9722 46.8507C10.9532 46.8642 9.9683 47.2195 9.1752 47.8595C8.3821 48.4995 7.82675 49.3873 7.59812 50.3806C7.34983 51.8089 7.28991 53.2636 7.41988 54.7075C7.40562 55.0641 7.4787 55.4527 7.07943 55.6328C4.97616 56.5848 3.07786 57.9273 0.94785 58.833L0.75 58.7848V70.6976C1.06966 71.1607 1.5517 71.4867 2.10045 71.6109C2.64921 71.735 3.22459 71.6483 3.71241 71.368C7.2951 69.956 10.9224 68.6563 14.5282 67.2978C18.5423 65.7824 22.5349 64.2046 26.565 62.7373C30.3616 61.3557 34.1297 59.9044 37.8871 58.4247C38.7783 58.0681 39.7034 57.79 40.6801 57.4531C40.6801 61.755 40.7389 65.9838 40.657 70.2091C40.7603 72.4673 41.0645 74.7119 41.566 76.9161C41.7442 78.0624 42.0366 79.191 42.2576 80.3302C42.3057 80.578 42.2326 80.7491 41.9457 80.9221C37.9031 83.3538 33.8837 85.8213 29.85 88.2673C28.7271 88.9483 27.5667 89.567 26.4402 90.2426C26.1975 90.3653 25.9964 90.557 25.8623 90.7936C25.7281 91.0303 25.6669 91.3013 25.6863 91.5726C25.7386 93.7179 25.7386 95.8645 25.6863 98.0122C25.647 98.4014 25.7182 98.7937 25.8915 99.1443C26.0649 99.495 26.3335 99.7897 26.6666 99.9947H28.6166C29.8524 99.594 31.1297 99.335 32.4239 99.2227C34.9549 98.7449 37.4931 98.3152 40.0295 97.8784C41.6706 97.5956 43.3146 97.327 44.9615 97.0726C45.1747 97.0179 45.4002 97.0395 45.5991 97.1336C45.798 97.2277 45.9577 97.3884 46.0506 97.5878C46.853 98.7009 47.978 99.5405 49.2733 99.9929H51.6118C53.1311 99.5858 54.4475 98.634 55.3104 97.3186C55.5581 96.8658 55.9538 97.0477 56.239 97.094C60.0374 97.7162 63.8393 98.3295 67.6234 99.0444C69.3204 99.2562 71.0022 99.5754 72.6588 100H74.4127C74.8161 99.7531 75.1398 99.395 75.345 98.9688C75.5502 98.5425 75.6281 98.0662 75.5695 97.5968C75.6323 95.4658 75.5829 93.333 75.4216 91.2071C75.3289 90.5778 74.9029 90.4637 74.5304 90.2391C71.3612 88.2934 68.1855 86.3597 65.0033 84.4378C63.0657 83.2629 61.1264 82.0916 59.1782 80.9363C59.1151 80.915 59.057 80.881 59.0075 80.8363C58.958 80.7916 58.9182 80.7373 58.8905 80.6767C58.8628 80.6161 58.8477 80.5504 58.8463 80.4838C58.845 80.4171 58.8572 80.3509 58.8824 80.2892C60.0635 75.6581 60.6487 70.8951 60.6238 66.1158C60.4598 63.2971 60.6238 60.4625 60.6238 57.6331L60.6987 57.6456L60.7664 57.6171C62.8928 58.2999 64.9729 59.1057 67.0334 59.9615C67.0441 60.2485 67.2402 60.1398 67.3899 60.1237C67.7464 60.4072 68.2812 60.1772 68.5949 60.5463C68.6056 60.8315 68.8016 60.7245 68.9513 60.7085L70.101 61.1435C70.1741 61.3681 70.3416 61.3325 70.5092 61.295C70.8657 61.5785 71.4004 61.3485 71.7141 61.7176C71.7266 62.0046 71.9209 61.8958 72.0706 61.8798C72.4271 62.1633 72.9618 61.9333 73.2755 62.3023C73.2862 62.5894 73.4823 62.4806 73.632 62.4646C73.9885 62.748 74.5232 62.5181 74.8369 62.8889C74.8476 63.1741 75.0419 63.0672 75.1934 63.0511C75.5499 63.3346 76.0847 63.1046 76.3984 63.4754C76.4108 63.7607 76.6051 63.6537 76.7548 63.6377C77.1113 63.9211 77.6461 63.6911 77.9598 64.062C77.9705 64.3472 78.1665 64.2402 78.3163 64.2242C78.6727 64.5095 79.2075 64.2777 79.5212 64.6485C79.5337 64.9338 79.728 64.8268 79.8777 64.8108C80.2342 65.0942 80.7689 64.8642 81.0826 65.2333C81.0933 65.5185 81.2894 65.4116 81.4391 65.3955C81.7956 65.679 82.3303 65.449 82.644 65.818C82.6547 66.1051 82.8508 65.9963 83.0005 65.9803C83.357 66.2637 83.8917 66.0338 84.2054 66.4046C84.2179 66.6898 84.4122 66.5829 84.5619 66.5668C84.9184 66.8503 85.4531 66.6203 85.7668 66.9911C85.7775 67.2764 85.9736 67.1694 86.1233 67.1534C86.4798 67.4368 87.0146 67.2069 87.3283 67.5777C87.339 67.8629 87.5332 67.756 87.6847 67.7399L88.8362 68.1749C88.9093 68.3978 89.0768 68.3532 89.2444 68.3247C89.6009 68.6099 90.1356 68.3782 90.4493 68.749C90.46 69.0342 90.6561 68.9273 90.8058 68.9112C91.1623 69.1947 91.697 68.9647 92.0107 69.3338C92.0214 69.6208 92.2157 69.512 92.3672 69.496C92.7237 69.7795 93.2584 69.5495 93.5721 69.9203C93.5846 70.2056 93.7789 70.0986 93.9286 70.0826L95.0783 70.5176C95.1514 70.7422 95.3189 70.7065 95.4865 70.6691C95.8679 70.8706 96.3474 70.7885 96.6914 71.0916C96.7039 71.3769 96.8982 71.2699 97.0479 71.2539C99.6698 72.1756 100.531 71.5534 100.534 68.7454C100.534 65.8169 100.538 62.8889 100.545 59.9615H100.75V58.9863C100.712 58.944 100.665 58.9106 100.613 58.8887C100.561 58.8668 100.504 58.8568 100.447 58.8596C100.391 58.8623 100.335 58.8776 100.285 58.9045C100.235 58.9314 100.192 58.9691 100.158 59.0148M27.6131 41.7928C27.9838 41.8622 28.3224 42.0488 28.5791 42.3252C28.8358 42.6015 28.997 42.953 29.039 43.3278C29.0611 43.4559 29.0375 43.5876 28.9723 43.7C28.9072 43.8124 28.8046 43.8984 28.6826 43.9429C27.9823 44.2194 27.3161 44.5753 26.6969 45.0037C26.4438 45.1659 26.1479 45.4601 25.8378 45.2693C25.5651 45.1017 25.7558 44.7344 25.7184 44.4617C25.7084 44.2996 25.7084 44.1371 25.7184 43.975C25.5259 42.4792 26.319 41.6038 27.6149 41.7946M10.9901 50.7604C11.1841 50.5474 11.4251 50.3827 11.694 50.2794C11.9629 50.1761 12.2522 50.137 12.5388 50.1652C12.8255 50.1934 13.1016 50.2882 13.3451 50.442C13.5887 50.5958 13.793 50.8043 13.9418 51.051C14.0684 51.3576 14.1824 51.7641 13.662 52.0155C12.7119 52.4754 11.8029 53.0174 10.6122 53.6717C10.8635 52.5539 10.3431 51.6108 10.9901 50.7604ZM39.4609 54.4169C38.6661 54.5756 37.9003 54.8552 37.1901 55.2459C35.11 56.2015 32.8748 56.6722 30.7858 57.5886C29.0373 58.3516 27.2031 58.9132 25.4136 59.5835C22.0424 60.8517 18.6766 62.1276 15.3161 63.4112C11.8629 64.7186 8.40853 66.026 4.95298 67.3334C4.79784 67.3721 4.63872 67.3924 4.47886 67.3941L4.10989 67.3566C4.10989 65.5007 4.12772 63.6466 4.07781 61.7924C4.05637 61.5274 4.12138 61.2625 4.26309 61.0376C4.4048 60.8126 4.61559 60.6396 4.86386 60.5445C8.41685 58.6428 11.9645 56.7346 15.5068 54.8198C18.1929 53.3615 20.8274 51.798 23.5527 50.4163C26.8431 48.7458 30.0016 46.8275 33.324 45.2319C34.6019 44.6077 35.8311 43.8884 37.0012 43.08C37.9673 42.4204 39.0813 42.226 39.9992 41.5896C40.5126 41.233 40.6641 41.3863 40.6641 41.9586C40.6641 45.7649 40.6391 49.573 40.6748 53.3793C40.6748 54.2957 39.8656 54.3688 39.4627 54.4223M44.2272 93.9135C42.1417 94.27 40.0456 94.5713 37.9566 94.9101C35.8996 95.2434 33.8481 95.6018 31.7947 95.9584C30.9302 96.1081 30.0711 96.2846 29.2084 96.4486L29.0515 96.2703C29.0903 95.5571 29.0748 94.8419 29.0052 94.131C28.9078 93.6353 28.9876 93.1211 29.2307 92.6783C29.4737 92.2355 29.8645 91.8921 30.3349 91.7081C33.8801 89.6365 37.3987 87.5149 40.9279 85.4112C41.405 85.1762 41.8627 84.9038 42.2968 84.5965C42.8868 84.1044 43.0312 84.4182 43.1345 84.953C43.5576 87.1554 43.9818 89.3578 44.4072 91.5601C44.445 92.0948 44.5455 92.6232 44.7066 93.1344C44.9918 93.7548 44.5177 93.86 44.2272 93.9099M54.9218 83.3324C54.4316 85.8284 53.9343 88.3243 53.4459 90.831C53.216 92.0041 52.9504 93.1736 52.7882 94.3556C52.5957 95.7605 51.8364 96.634 50.635 96.6733C50.0291 96.6383 49.4567 96.3837 49.025 95.9571C48.5932 95.5305 48.3317 94.9612 48.2893 94.3556C47.4088 89.7381 46.4427 85.1367 45.5925 80.5138C44.458 75.7605 43.9073 70.8866 43.9527 65.9999C44.1648 62.4343 43.9776 58.8455 43.9705 55.2656V38.2771C43.9705 32.3581 44.0721 26.4356 43.9705 20.5167C43.8648 16.8196 44.3713 13.1304 45.4695 9.59869C45.9547 8.21412 46.5097 6.85506 47.1325 5.52673C47.3663 4.9537 47.759 4.45944 48.2643 4.1022C48.7695 3.74495 49.3664 3.53961 49.9844 3.51037C50.7487 3.3636 51.54 3.47481 52.2343 3.82652C52.9285 4.17823 53.4864 4.75054 53.8202 5.45364C55.2143 8.18994 56.1797 11.1242 56.6828 14.1538C56.8807 15.3501 56.9823 16.5535 57.1035 17.7569C57.5313 22.0624 57.157 26.3696 57.271 30.6734C57.3388 33.2085 57.296 35.7455 57.3031 38.2824V55.2673C57.296 60.3115 57.2901 65.3551 57.2853 70.3981C57.1436 72.2034 56.8454 73.9929 56.3941 75.7466C55.9556 78.2853 55.4244 80.8098 54.9289 83.3378M58.9323 84.6571C60.5525 85.577 62.1407 86.5576 63.7359 87.5096C66.3633 89.088 68.9906 90.667 71.6179 92.2465C71.7766 92.3566 71.929 92.4757 72.0742 92.6031L72.2292 92.7814C72.2292 93.8855 72.2292 94.9891 72.2292 96.0921L72.0706 96.2614C70.5184 96.2114 68.9752 96.0042 67.4648 95.6428C65.6521 95.3914 63.8571 95.0259 62.0515 94.7336C60.3368 94.4572 58.6132 94.2272 56.9039 93.9242C56.6632 93.8814 56.2675 93.8885 56.4226 93.211C57.0625 90.412 57.5188 87.5738 58.0517 84.7498C58.23 83.8227 58.7309 84.5519 58.9323 84.6678M87.1055 51.3826C87.1504 51.1137 87.269 50.8626 87.448 50.6571C87.627 50.4516 87.8595 50.2997 88.1197 50.2184C89.6026 49.8493 90.394 50.4947 90.3958 52.019V53.5826C89.4825 53.1889 88.6021 52.7227 87.7632 52.1884C87.4299 51.9763 86.9932 51.8318 87.1055 51.3826ZM72.3112 42.8999C72.3561 42.6325 72.4832 42.3857 72.6749 42.194C72.8666 42.0023 73.1133 41.8751 73.3807 41.8302C73.6303 41.7454 73.8975 41.726 74.1568 41.7738C74.416 41.8216 74.6588 41.935 74.8618 42.1032C75.0648 42.2714 75.2214 42.4888 75.3166 42.7347C75.4117 42.9806 75.4424 43.2468 75.4055 43.5079C75.4055 44.1443 75.4055 44.7826 75.4055 45.5082C74.4109 44.9733 73.4966 44.4635 72.5536 43.9928C71.9975 43.7147 72.2649 43.2404 72.313 42.9017M97.1602 67.5224C97.1869 67.4975 97.1869 67.444 97.1602 67.3637L97.0015 67.5171C96.1584 67.715 95.4633 67.1605 94.7949 66.8895C90.2764 65.0461 85.6688 63.4416 81.1093 61.7193C76.5499 59.9971 71.9672 58.2839 67.4131 56.5331C65.1369 55.6596 62.8002 54.9411 60.5971 53.875L60.6434 53.8036L60.5953 53.7323C60.606 49.8333 60.6113 45.9325 60.6327 42.0335C60.6327 41.7714 60.4545 41.3935 60.7878 41.2562C61.1211 41.1189 61.3813 41.3863 61.6255 41.5806C62.8281 42.5929 64.2286 43.3428 65.7376 43.7824C65.8936 43.8111 66.0382 43.8834 66.1547 43.991C67.3079 45.4084 69.1438 45.6883 70.5627 46.6652C72.4681 47.9845 74.6284 48.8652 76.6229 50.033C78.0329 50.8566 79.5658 51.5644 81.0291 52.3506C86.2713 55.1425 91.4956 57.9665 96.7306 60.7727C96.8881 60.8457 97.0184 60.9669 97.1027 61.1188C97.1869 61.2707 97.2208 61.4454 97.1994 61.6177C97.1673 63.5343 97.1744 65.4508 97.1691 67.3691C97.1923 67.4493 97.1923 67.5028 97.1691 67.5278M61.6772 38.1648L61.6612 38.1523L61.7574 38.0132C61.884 38.1452 61.7057 38.1166 61.6772 38.1648ZM14.9079 47.5477L14.8758 47.5121L14.9863 47.3873C15.1057 47.5139 14.9346 47.4925 14.9079 47.5477ZM54.1678 12.4138C54.6081 13.6154 55.0163 14.8277 55.4904 16.1862C55.4904 16.204 55.3442 16.2575 55.264 16.3217C55.1838 16.3859 55.0858 16.3663 54.9895 16.393C54.109 16.6408 53.1251 17.4217 52.4157 17.0776C51.8578 16.8084 51.7598 15.5729 51.4639 14.7599C51.389 14.5549 51.332 14.3374 51.2731 14.136C51.1662 13.7616 51.0949 13.4514 50.6243 13.471C50.1538 13.4906 49.9827 13.7812 49.8525 14.1841C49.4953 15.0847 49.1859 16.0035 48.9257 16.9368C48.8169 17.4449 48.6351 17.2202 48.4106 17.1881C48.3462 17.1904 48.2818 17.1868 48.2181 17.1774C45.6638 16.3627 45.6745 16.3645 46.5426 13.6885C46.8195 12.5278 47.4634 11.4875 48.3785 10.7219C48.8659 10.437 49.4063 10.2545 49.9666 10.1856C50.5269 10.1167 51.0954 10.1628 51.6373 10.3212C52.1792 10.4796 52.6831 10.7468 53.1182 11.1066C53.5533 11.4664 53.9104 11.9112 54.1678 12.4138Z" fill="url(#paint0_linear_20_864)"/>
<defs>
<linearGradient id="paint0_linear_20_864" x1="17.15" y1="12.9" x2="82.95" y2="87" gradientUnits="userSpaceOnUse">
<stop stop-color="#184487"/>
<stop offset="0.256" stop-color="#1A4385"/>
<stop offset="0.409" stop-color="#224180"/>
<stop offset="0.534" stop-color="#313D78"/>
<stop offset="0.645" stop-color="#45386D"/>
<stop offset="0.746" stop-color="#5F325F"/>
<stop offset="0.84" stop-color="#7F2A4D"/>
<stop offset="0.927" stop-color="#A42138"/>
<stop offset="1" stop-color="#CB1823"/>
</linearGradient>
</defs>
</svg>
