<svg width="268" height="64" viewBox="0 0 268 64" fill="none" xmlns="http://www.w3.org/2000/svg">
<g clip-path="url(#clip0_311_2509)">
<path d="M18.1822 29.7079C18.9269 28.3332 19.9579 27.2448 21.218 26.5002C22.4782 25.7556 23.9675 25.3546 25.514 25.3546C27.0606 25.3546 28.4353 25.6983 29.5809 26.3856C30.7265 27.073 31.5857 27.9322 32.1585 28.906V25.641H35.137V43.5123H32.1585V40.1901C31.5857 41.2211 30.6692 42.0803 29.5236 42.7676C28.378 43.455 27.0033 43.7987 25.4567 43.7987C23.9102 43.7987 22.4209 43.3977 21.1608 42.5958C19.9006 41.7939 18.8696 40.7056 18.1249 39.2736C17.3803 37.8416 17.0366 36.2378 17.0366 34.4621C17.0366 32.6864 17.3803 31.0253 18.1249 29.6506L18.1822 29.7079ZM31.3565 31.0826C30.7837 30.0515 30.0964 29.3069 29.1799 28.7914C28.2634 28.2759 27.2324 27.9895 26.1441 27.9895C25.0558 27.9895 24.0247 28.2759 23.1083 28.7914C22.1918 29.3069 21.4472 30.0515 20.9316 31.0826C20.3588 32.1136 20.1297 33.2592 20.1297 34.6339C20.1297 36.0086 20.4161 37.2115 20.9316 38.1853C21.4472 39.159 22.1918 39.9609 23.1083 40.4765C24.0247 40.992 25.0558 41.2784 26.1441 41.2784C27.2324 41.2784 28.2634 40.992 29.1799 40.4765C30.0964 39.9609 30.841 39.159 31.3565 38.1853C31.9293 37.1542 32.1585 36.0086 32.1585 34.6339C32.1585 33.2592 31.8721 32.1136 31.3565 31.0826Z" fill="#184487"/>
<path d="M46.0774 26.2138C47.0512 25.641 48.2541 25.3546 49.6288 25.3546V28.4477H48.8269C45.5046 28.4477 43.8435 30.2807 43.8435 33.8893V43.6268H40.865V25.7556H43.8435V28.6768C44.3591 27.6458 45.1037 26.8439 46.0774 26.2711V26.2138Z" fill="#184487"/>
<path d="M105.763 27.3021C107.138 28.6196 107.768 30.5098 107.768 32.9728V43.5123H104.846V33.3738C104.846 31.5981 104.388 30.2234 103.529 29.3069C102.67 28.3904 101.41 27.8749 99.8631 27.8749C98.3165 27.8749 97.0564 28.3904 96.1399 29.3642C95.2234 30.3379 94.7652 31.7699 94.7652 33.6602V43.5696H91.7866V25.6983H94.7652V28.2186C95.338 27.3021 96.1399 26.6148 97.1709 26.0992C98.2019 25.5837 99.2903 25.3546 100.493 25.3546C102.67 25.3546 104.445 25.9847 105.763 27.3021Z" fill="#184487"/>
<path d="M131.023 20.7722V24.4381H124.951V43.5123H120.369V24.4381H114.297V20.7722H131.023Z" fill="#6B95CE"/>
<path d="M125.181 43.8559H120.083V24.7818H114.011V20.5431H131.252V24.7818H125.181V43.8559ZM120.598 43.2831H124.608V24.209H130.679V21.0586H114.527V24.209H120.598V43.2831Z" fill="#6B95CE"/>
<path d="M141.219 26.042C142.135 25.4692 143.224 25.2401 144.484 25.2401V30.0515H143.281C141.849 30.0515 140.761 30.3952 140.016 31.0826C139.272 31.7699 138.928 32.9155 138.928 34.6339V43.6268H134.345V25.5264H138.928V28.3332C139.501 27.3594 140.303 26.6148 141.219 26.0992V26.042Z" fill="#6B95CE"/>
<path d="M139.157 43.8559H134.059V25.24H139.157V27.474C139.672 26.8439 140.245 26.3284 140.932 25.9274L141.047 25.8701C142.021 25.2973 143.166 25.0109 144.426 25.0109H144.713V30.3379H143.224C141.849 30.3379 140.818 30.6816 140.188 31.2544C139.5 31.8845 139.157 32.9728 139.157 34.5766V43.8559ZM134.574 43.2831H138.584V34.5194C138.584 32.7437 138.985 31.5408 139.787 30.7962C140.531 30.0515 141.734 29.7079 143.224 29.7079H144.14V25.4692C143.109 25.4692 142.25 25.7556 141.448 26.1565L141.333 26.2138C140.417 26.7293 139.672 27.474 139.099 28.3904L138.584 29.1923V25.6983H134.574V43.2259V43.2831Z" fill="#6B95CE"/>
<path d="M147.405 29.5933C148.15 28.1613 149.123 27.073 150.383 26.3283C151.644 25.5837 153.018 25.1827 154.565 25.1827C156.111 25.1827 157.085 25.4691 158.116 25.9847C159.147 26.5575 159.949 27.1875 160.522 28.0467V25.4691H165.104V43.5695H160.522V40.9347C159.949 41.7939 159.147 42.4812 158.116 43.054C157.085 43.6268 155.882 43.9132 154.565 43.9132C153.247 43.9132 151.644 43.5122 150.383 42.7103C149.123 41.9084 148.15 40.8201 147.405 39.3881C146.66 37.9561 146.317 36.3523 146.317 34.4621C146.317 32.5718 146.66 31.0253 147.405 29.5933ZM159.892 31.6553C159.434 30.8534 158.861 30.2234 158.116 29.8224C157.372 29.4214 156.57 29.1923 155.711 29.1923C154.851 29.1923 154.049 29.4214 153.362 29.8224C152.617 30.2234 152.045 30.8534 151.644 31.6553C151.185 32.4573 150.956 33.3737 150.956 34.4621C150.956 35.5504 151.185 36.5241 151.644 37.326C152.102 38.128 152.675 38.758 153.419 39.2163C154.164 39.6745 154.909 39.8463 155.768 39.8463C156.627 39.8463 157.429 39.6172 158.174 39.2163C158.918 38.8153 159.491 38.1852 159.949 37.3833C160.407 36.5814 160.579 35.6649 160.579 34.5193C160.579 33.3737 160.35 32.4573 159.949 31.6553H159.892Z" fill="#6B95CE"/>
<path d="M154.565 44.1423C153.018 44.1423 151.529 43.7414 150.269 42.9395C148.952 42.1376 147.921 40.992 147.233 39.5027C146.489 38.0707 146.088 36.3523 146.088 34.4621C146.088 32.5718 146.431 30.9107 147.233 29.4787V29.3069C148.035 27.9322 149.066 26.8439 150.326 26.0992C151.587 25.2973 153.076 24.8964 154.68 24.8964C156.283 24.8964 157.314 25.1828 158.346 25.7556C159.147 26.1565 159.835 26.7293 160.408 27.3021V25.1828H165.563V43.7987H160.408V41.6793C159.835 42.3094 159.205 42.8249 158.346 43.2259C157.257 43.7987 156.054 44.0851 154.622 44.0851L154.565 44.1423ZM147.577 29.8797C146.89 31.2544 146.603 32.7437 146.603 34.4621C146.603 36.1805 146.947 37.8989 147.691 39.2736C148.379 40.6483 149.353 41.7366 150.555 42.4812C151.758 43.2259 153.133 43.6268 154.565 43.6268C155.997 43.6268 157.028 43.3404 158.002 42.8249C158.976 42.3094 159.778 41.622 160.35 40.8201L160.809 40.1328V43.3404H164.875V25.8128H160.809V28.9059L160.35 28.2759C159.778 27.4739 158.976 26.8439 158.002 26.2711C157.028 25.7556 155.882 25.4692 154.565 25.4692C153.248 25.4692 151.701 25.8128 150.498 26.5575C149.295 27.3021 148.322 28.3331 147.634 29.7079V29.8797H147.577ZM155.768 40.0755C154.909 40.0755 154.05 39.8464 153.305 39.3881C152.503 38.9299 151.93 38.2425 151.472 37.3833C151.014 36.5241 150.785 35.5504 150.785 34.4048C150.785 33.2592 151.014 32.2854 151.472 31.4262C151.93 30.6243 152.56 29.937 153.305 29.536C154.794 28.6768 156.742 28.6768 158.288 29.536C159.09 29.9943 159.72 30.6243 160.178 31.4835C160.637 32.4 160.809 33.3738 160.809 34.4621C160.809 35.5504 160.579 36.6387 160.121 37.4406C159.663 38.2998 159.033 38.9299 158.231 39.3881C157.486 39.8464 156.57 40.0755 155.711 40.0755H155.768ZM155.768 29.4787C154.966 29.4787 154.221 29.6506 153.534 30.0515C152.847 30.4525 152.331 31.0253 151.873 31.7699C151.472 32.5146 151.243 33.431 151.243 34.4621C151.243 35.4931 151.472 36.4096 151.873 37.2115C152.274 37.9561 152.847 38.5862 153.534 38.9872C154.221 39.3881 154.966 39.6172 155.711 39.6172C156.455 39.6172 157.257 39.3881 157.945 39.0445C158.632 38.6435 159.205 38.0707 159.606 37.3261C160.007 36.5814 160.236 35.6649 160.236 34.5766C160.236 33.4883 160.007 32.6291 159.606 31.8272C159.205 31.0253 158.632 30.5098 158.002 30.1088C157.314 29.7079 156.57 29.536 155.768 29.536V29.4787Z" fill="#6B95CE"/>
<path d="M169.63 29.5933C170.374 28.1613 171.463 27.073 172.78 26.3283C174.155 25.5264 175.701 25.1827 177.42 25.1827C179.138 25.1827 181.487 25.7555 182.976 26.8439C184.465 27.9894 185.439 29.536 185.954 31.5408H181.028C180.742 30.7389 180.341 30.1661 179.711 29.7078C179.081 29.2496 178.336 29.0205 177.42 29.0205C176.102 29.0205 175.071 29.4787 174.327 30.4525C173.582 31.3689 173.181 32.7437 173.181 34.4621C173.181 36.1804 173.582 37.4979 174.327 38.4716C175.071 39.3881 176.102 39.9036 177.42 39.9036C178.737 39.9036 180.456 39.1017 181.028 37.4406H185.954C185.439 39.3881 184.465 40.9347 182.976 42.0803C181.487 43.2258 179.654 43.7986 177.42 43.7986C175.186 43.7986 174.155 43.3977 172.78 42.653C171.405 41.9084 170.374 40.7628 169.63 39.3881C168.885 38.0134 168.484 36.3523 168.484 34.4621C168.484 32.5718 168.885 30.968 169.63 29.536V29.5933Z" fill="#6B95CE"/>
<path d="M177.42 44.1423C175.644 44.1423 174.04 43.7414 172.666 42.9395C171.291 42.1376 170.203 40.992 169.401 39.56C168.599 38.128 168.198 36.4096 168.198 34.5194C168.198 32.6291 168.541 31.1971 169.172 29.8797L169.401 29.4787C170.203 28.0467 171.291 26.9012 172.666 26.0992C174.04 25.2973 175.644 24.8964 177.42 24.8964C179.195 24.8964 181.658 25.4692 183.148 26.6148C184.637 27.7603 185.668 29.4215 186.184 31.4835V31.8272C186.241 31.8272 180.799 31.8272 180.799 31.8272V31.6554C180.513 30.9107 180.112 30.3379 179.539 29.937C178.966 29.536 178.222 29.3069 177.42 29.3069C176.217 29.3069 175.243 29.7651 174.499 30.6243C173.754 31.5408 173.41 32.801 173.41 34.4621C173.41 36.1232 173.754 37.3833 174.499 38.2998C175.243 39.2163 176.16 39.6172 177.42 39.6172C179.138 39.6172 180.284 38.8726 180.799 37.3261V37.1542H186.298V37.4979C185.725 39.5027 184.694 41.1065 183.148 42.3094C181.601 43.5123 179.711 44.0851 177.42 44.0851V44.1423ZM169.973 29.4787L169.859 29.7079C169.114 31.0826 168.771 32.6864 168.771 34.5194C168.771 36.3523 169.172 37.9561 169.859 39.3308C170.603 40.7056 171.635 41.7366 172.895 42.4812C174.212 43.2259 175.701 43.6268 177.42 43.6268C179.138 43.6268 181.372 43.054 182.804 41.9657C184.122 40.9347 185.095 39.5027 185.611 37.7843H181.2C180.57 39.4454 179.31 40.2473 177.363 40.2473C175.415 40.2473 174.842 39.7318 174.04 38.7008C173.238 37.727 172.837 36.3523 172.837 34.5194C172.837 32.6864 173.238 31.3117 174.04 30.3379C174.842 29.3069 175.988 28.7914 177.363 28.7914C178.737 28.7914 179.138 29.0205 179.826 29.536C180.456 29.9943 180.914 30.5671 181.2 31.3117H185.611C185.095 29.536 184.179 28.104 182.861 27.073C181.429 25.9847 179.596 25.4692 177.477 25.4692C175.358 25.4692 174.269 25.8701 172.952 26.6148C171.749 27.3021 170.775 28.2759 170.031 29.536L169.973 29.4787Z" fill="#6B95CE"/>
<path d="M199.988 43.5696L193.859 35.8941V43.5696H189.277V19.3975H193.859V33.1446L199.931 25.4692H205.888L197.926 34.5194L205.945 43.5123H199.988V43.5696Z" fill="#6B95CE"/>
<path d="M206.518 43.7986H199.988V43.5122L199.759 43.6841L194.088 36.5814V43.7986H188.99V19.1111H194.088V32.3427L199.759 25.1827H206.403L198.212 34.5193L206.461 43.7986H206.518ZM200.102 43.2831H205.315L197.525 34.5193L205.258 25.6982H200.045L193.573 33.8892V19.6266H189.563V43.2258H193.573V35.0348L200.102 43.2258V43.2831Z" fill="#6B95CE"/>
<mask id="mask0_311_2509" style="mask-type:luminance" maskUnits="userSpaceOnUse" x="208" y="19" width="60" height="25">
<path d="M211.387 21.0013C212.819 19.7985 214.709 19.2257 217 19.2257C219.291 19.2257 219.921 19.5121 221.067 20.0849C222.212 20.6577 223.072 21.4023 223.644 22.3188C224.217 23.2353 224.504 24.3236 224.504 25.5264C224.504 26.7293 224.16 28.0468 223.415 29.0205C222.728 29.937 221.869 30.6243 220.895 30.9107V31.0253C222.155 31.4263 223.129 32.1136 223.874 33.0874C224.561 34.1184 224.962 35.3785 224.962 36.9251C224.962 38.4717 224.675 39.3881 224.045 40.4192C223.473 41.4502 222.556 42.2521 221.411 42.8249C220.265 43.3977 218.833 43.6841 217.229 43.6841C214.766 43.6841 212.761 43.054 211.215 41.7939C209.668 40.5337 208.866 38.7008 208.752 36.295H213.22C213.22 37.3833 213.62 38.2425 214.308 38.8726C214.995 39.5027 215.912 39.8464 217.115 39.8464C218.317 39.8464 219.062 39.56 219.692 38.9299C220.265 38.2998 220.609 37.4979 220.609 36.5241C220.609 35.5504 220.208 34.2902 219.348 33.7174C218.547 33.1446 217.229 32.8582 215.511 32.8582H214.594V29.0778H215.511C218.604 29.0778 220.15 28.0467 220.15 25.9847C220.15 23.9226 219.864 24.3236 219.291 23.8081C218.718 23.2925 217.916 23.0061 216.885 23.0061C215.854 23.0061 215.052 23.2925 214.537 23.8653C213.964 24.4381 213.678 25.1255 213.563 25.9847H209.095C209.21 23.8081 209.955 22.1469 211.387 20.9441V21.0013ZM239.797 23.6362C239.282 23.178 238.48 22.9489 237.506 22.9489C236.017 22.9489 234.929 23.5789 234.184 24.7818C233.497 25.9847 233.096 27.9322 233.096 30.6816C233.611 29.8224 234.356 29.1351 235.387 28.6195C236.361 28.104 237.449 27.8749 238.652 27.8749C239.855 27.8749 241.344 28.1613 242.432 28.7914C243.52 29.4215 244.38 30.2807 244.952 31.4263C245.583 32.5718 245.869 34.0038 245.869 35.6077C245.869 37.2115 245.583 38.5289 244.952 39.7318C244.322 40.9347 243.406 41.9084 242.203 42.5385C241 43.2259 239.568 43.5695 237.907 43.5695C236.246 43.5695 233.84 43.054 232.58 42.0803C231.263 41.1065 230.403 39.6745 229.888 37.8989C229.372 36.1232 229.143 33.8893 229.143 31.2544C229.143 27.2448 229.831 24.2663 231.205 22.2042C232.58 20.1422 234.757 19.1684 237.678 19.1684C240.599 19.1684 241.745 19.7985 243.005 21.0586C244.265 22.3188 245.01 23.8653 245.182 25.6983H240.943C240.714 24.7818 240.37 24.0945 239.797 23.6362ZM234.699 32.6291C233.897 33.3165 233.497 34.2902 233.497 35.5504C233.497 36.8105 233.84 37.8416 234.585 38.5862C235.329 39.3308 236.361 39.6745 237.678 39.6745C238.995 39.6745 239.797 39.3308 240.485 38.5862C241.172 37.8989 241.516 36.9251 241.516 35.6649C241.516 34.4048 241.172 33.3738 240.542 32.6864C239.855 31.9418 238.881 31.5981 237.621 31.5981C236.361 31.5981 235.501 31.9418 234.699 32.6291ZM251.54 22.4906C252.914 20.3713 255.148 19.283 258.299 19.283C261.449 19.283 263.74 20.3713 265.058 22.4906C266.432 24.61 267.12 27.5885 267.12 31.3117C267.12 35.0349 266.432 38.0707 265.058 40.2473C263.683 42.424 261.449 43.455 258.299 43.455C255.148 43.455 252.857 42.3667 251.54 40.2473C250.165 38.0707 249.478 35.1494 249.478 31.3117C249.478 27.474 250.165 24.61 251.54 22.4906ZM262.308 27.3021C262.079 26.2138 261.678 25.2973 261.048 24.61C260.418 23.9226 259.502 23.5789 258.299 23.5789C257.096 23.5789 256.179 23.9226 255.549 24.61C254.919 25.2973 254.518 26.2138 254.289 27.3021C254.06 28.3904 254.003 29.7651 254.003 31.369C254.003 32.9728 254.117 34.4048 254.289 35.5504C254.461 36.696 254.919 37.5552 255.549 38.2425C256.179 38.9299 257.096 39.2736 258.299 39.2736C259.502 39.2736 260.418 38.9299 261.048 38.2425C261.678 37.5552 262.079 36.6387 262.308 35.5504C262.48 34.4048 262.595 33.0301 262.595 31.369C262.595 29.7079 262.48 28.3904 262.308 27.3021Z" fill="white"/>
</mask>
<g mask="url(#mask0_311_2509)">
<path d="M254.232 23.5216L254.003 24.1517V23.5216H254.232Z" fill="#56365E"/>
<path d="M254.633 23.5216L254.003 25.0682V24.1517L254.232 23.5216H254.633Z" fill="#57365D"/>
<path d="M255.034 23.5216L254.003 25.9274V25.0682L254.633 23.5216H255.034Z" fill="#58365C"/>
<path d="M255.435 23.5216L254.003 26.7865V25.9274L255.034 23.5216H255.435Z" fill="#5A365C"/>
<path d="M255.778 23.5216L254.003 27.703V26.7865L255.435 23.5216H255.778Z" fill="#5B355B"/>
<path d="M256.179 23.5216L254.003 28.5622V27.703L255.778 23.5216H256.179Z" fill="#5C355A"/>
<path d="M256.58 23.5216L254.003 29.4787V28.5622L256.179 23.5216H256.58Z" fill="#5E355A"/>
<path d="M256.981 23.5216L254.003 30.3379V29.4787L256.58 23.5216H256.981Z" fill="#5F3459"/>
<path d="M257.325 23.5216L254.003 31.2544V30.3379L256.981 23.5216H257.325Z" fill="#613458"/>
<path d="M257.726 23.5216L254.003 32.1136V31.2544L257.325 23.5216H257.726Z" fill="#623457"/>
<path d="M258.127 23.5216L254.003 33.03V32.1136L257.726 23.5216H258.127Z" fill="#643357"/>
<path d="M258.528 23.5216L254.003 33.8892V33.03L258.127 23.5216H258.528Z" fill="#653356"/>
<path d="M258.871 23.5216L254.003 34.7484V33.8892L258.528 23.5216H258.871Z" fill="#673355"/>
<path d="M259.272 23.5216L254.003 35.6649V34.7484L258.871 23.5216H259.272Z" fill="#683254"/>
<path d="M259.673 23.5216L254.003 36.5241V35.6649L259.272 23.5216H259.673Z" fill="#6A3254"/>
<path d="M260.074 23.5216L254.003 37.4406V36.5241L259.673 23.5216H260.074Z" fill="#6B3253"/>
<path d="M260.475 23.5216L254.003 38.2998V37.4406L260.074 23.5216H260.475Z" fill="#6D3152"/>
<path d="M260.819 23.5216L254.003 39.2162V38.2998L260.475 23.5216H260.819Z" fill="#6F3151"/>
<path d="M261.22 23.5216L254.346 39.2735H254.06L254.003 39.2162L260.819 23.5216H261.22Z" fill="#703150"/>
<path d="M261.621 23.5216L254.747 39.2735H254.346L261.22 23.5216H261.621Z" fill="#723050"/>
<path d="M262.022 23.5216L255.148 39.2735H254.747L261.621 23.5216H262.022Z" fill="#74304F"/>
<path d="M262.365 23.5216L255.492 39.2735H255.148L262.022 23.5216H262.365Z" fill="#75304E"/>
<path d="M262.48 23.5216L262.595 23.5789V23.9226L255.893 39.2735H255.492L262.366 23.5216H262.48Z" fill="#772F4D"/>
<path d="M262.595 24.8391L256.294 39.2736H255.893L262.595 23.9226V24.8391Z" fill="#792F4C"/>
<path d="M262.595 25.6982L256.695 39.2735H256.294L262.595 24.8391V25.6982Z" fill="#7A2F4B"/>
<path d="M262.595 26.6147L257.039 39.2735H256.695L262.595 25.6982V26.6147Z" fill="#7C2E4A"/>
<path d="M262.595 27.4739L257.44 39.2736H257.039L262.595 26.6147V27.4739Z" fill="#7E2E4A"/>
<path d="M262.595 28.3904L257.84 39.2736H257.439L262.595 27.4739V28.3904Z" fill="#802E49"/>
<path d="M262.595 29.2496L258.241 39.2735H257.84L262.595 28.3904V29.2496Z" fill="#812D48"/>
<path d="M262.595 30.1088L258.585 39.2735H258.241L262.595 29.2496V30.1088Z" fill="#832D47"/>
<path d="M262.595 31.0252L258.986 39.2735H258.585L262.595 30.1088V31.0252Z" fill="#852C46"/>
<path d="M262.595 31.8845L259.387 39.2735H258.986L262.595 31.0253V31.8845Z" fill="#872C45"/>
<path d="M262.595 32.8009L259.788 39.2735H259.387L262.595 31.8845V32.8009Z" fill="#892C44"/>
<path d="M262.595 33.6601L260.132 39.2735H259.788L262.595 32.8009V33.6601Z" fill="#8A2B43"/>
<path d="M262.595 34.5766L260.533 39.2736H260.132L262.595 33.6602V34.5766Z" fill="#8C2B42"/>
<path d="M262.595 35.4358L260.933 39.2735H260.532L262.595 34.5766V35.4358Z" fill="#8E2B41"/>
<path d="M262.595 36.3523L261.335 39.2735H260.934L262.595 35.4358V36.3523Z" fill="#902A40"/>
<path d="M262.595 37.2115L261.678 39.2736H261.334L262.595 36.3523V37.2115Z" fill="#922A3F"/>
<path d="M262.595 38.0707L262.079 39.2736H261.678L262.595 37.2115V38.0707Z" fill="#94293E"/>
<path d="M262.595 38.9872L262.48 39.2736H262.079L262.595 38.0707V38.9872Z" fill="#96293D"/>
<path d="M262.48 39.2735L262.595 38.9871V39.2735H262.48Z" fill="#98293C"/>
<path d="M249.535 19.2829L249.478 19.3975V19.2829H249.535Z" fill="#413B68"/>
<path d="M249.936 19.2829L249.478 20.3139V19.3975L249.535 19.2829H249.936Z" fill="#423B68"/>
<path d="M250.279 19.2829L249.478 21.1731V20.3139L249.936 19.2829H250.279Z" fill="#433A67"/>
<path d="M250.68 19.2829L249.478 22.0896V21.1731L250.279 19.2829H250.68Z" fill="#443A67"/>
<path d="M251.081 19.2829L249.478 22.9488V22.0896L250.68 19.2829H251.081Z" fill="#453A66"/>
<path d="M251.482 19.2829L249.478 23.808V22.9488L251.081 19.2829H251.482Z" fill="#463A65"/>
<path d="M251.826 19.2829L249.478 24.7245V23.808L251.482 19.2829H251.826Z" fill="#483965"/>
<path d="M252.227 19.2829L249.478 25.5837V24.7245L251.826 19.2829H252.227Z" fill="#493964"/>
<path d="M252.628 19.2829L249.478 26.5001V25.5837L252.227 19.2829H252.628Z" fill="#4A3964"/>
<path d="M253.029 19.2829L249.478 27.3593V26.5001L252.628 19.2829H253.029Z" fill="#4B3963"/>
<path d="M253.373 19.2829L249.478 28.2758V27.3593L253.029 19.2829H253.373Z" fill="#4C3862"/>
<path d="M253.774 19.2829L249.478 29.135V28.2758L253.373 19.2829H253.774Z" fill="#4E3862"/>
<path d="M254.174 19.2829L249.478 30.0515V29.135L253.774 19.2829H254.174Z" fill="#4F3861"/>
<path d="M254.575 19.2829L249.478 30.9107V30.0515L254.174 19.2829H254.575Z" fill="#503861"/>
<path d="M254.919 19.2829L249.478 31.7699V30.9107L254.575 19.2829H254.919Z" fill="#523760"/>
<path d="M255.32 19.2829L249.478 32.6863V31.7699L254.919 19.2829H255.32Z" fill="#53375F"/>
<path d="M255.721 19.2829L249.478 33.5455V32.6863L255.32 19.2829H255.721Z" fill="#54375F"/>
<path d="M256.122 19.2829L249.478 34.462V33.5455L255.721 19.2829H256.122Z" fill="#56365E"/>
<path d="M256.523 19.2829L249.478 35.3212V34.462L256.122 19.2829H256.523Z" fill="#57365D"/>
<path d="M256.867 19.2829L249.478 36.2377V35.3212L256.523 19.2829H256.867Z" fill="#58365C"/>
<path d="M257.268 19.2829L249.478 37.0969V36.2377L256.867 19.2829H257.268Z" fill="#5A365C"/>
<path d="M257.669 19.2829L249.478 38.0134V37.0969L257.268 19.2829H257.669Z" fill="#5B355B"/>
<path d="M258.069 19.2829L249.478 38.8726V38.0134L257.669 19.2829H258.069Z" fill="#5C355A"/>
<path d="M258.413 19.2829L249.478 39.7318V38.8726L258.069 19.2829H258.413Z" fill="#5E355A"/>
<path d="M258.814 19.2829L249.478 40.6482V39.7317L258.413 19.2829H258.814Z" fill="#5F3459"/>
<path d="M259.215 19.2829L249.478 41.5074V40.6482L258.814 19.2829H259.215Z" fill="#613458"/>
<path d="M259.616 19.2829L249.535 42.3093L249.478 42.2521V41.5074L259.215 19.2829H259.616Z" fill="#623457"/>
<path d="M259.96 19.2829L249.879 42.4239L249.535 42.3093L259.616 19.2829H259.96Z" fill="#643357"/>
<path d="M260.361 19.2829L250.165 42.5957L249.879 42.4239L259.96 19.2829H260.361Z" fill="#653356"/>
<path d="M260.762 19.2829L250.509 42.7103L250.165 42.5957L260.361 19.2829H260.762Z" fill="#673355"/>
<path d="M261.163 19.2829L250.852 42.8249L250.509 42.7103L260.762 19.2829H261.163Z" fill="#683254"/>
<path d="M261.506 19.2829L251.139 42.9967L250.852 42.8249L261.163 19.2829H261.506Z" fill="#6A3254"/>
<path d="M261.907 19.2829L251.482 43.1113L251.139 42.9967L261.506 19.2829H261.907Z" fill="#6B3253"/>
<path d="M262.308 19.2829L251.826 43.2831L251.482 43.1113L261.907 19.2829H262.308Z" fill="#6D3152"/>
<path d="M262.709 19.2829L252.113 43.3977L251.826 43.2831L262.308 19.2829H262.709Z" fill="#6F3151"/>
<path d="M263.053 19.2829L252.514 43.5122H252.284L252.113 43.3977L262.709 19.2829H263.053Z" fill="#703150"/>
<path d="M263.454 19.2829L252.857 43.5122H252.513L263.053 19.2829H263.454Z" fill="#723050"/>
<path d="M263.855 19.2829L253.258 43.5122H252.857L263.454 19.2829H263.855Z" fill="#74304F"/>
<path d="M264.256 19.2829L253.659 43.5122H253.258L263.855 19.2829H264.256Z" fill="#75304E"/>
<path d="M264.313 19.2829L264.599 19.3975L254.06 43.5122H253.659L264.256 19.2829H264.313Z" fill="#772F4D"/>
<path d="M264.599 19.3975L264.886 19.5693L254.403 43.5122H254.06L264.599 19.3975Z" fill="#792F4C"/>
<path d="M264.886 19.5693L265.229 19.6838L254.805 43.5122H254.404L264.886 19.5693Z" fill="#7A2F4B"/>
<path d="M265.23 19.6838L265.573 19.8557L255.206 43.5122H254.805L265.23 19.6838Z" fill="#7C2E4A"/>
<path d="M265.573 19.8557L265.86 19.9703L255.607 43.5122H255.206L265.573 19.8557Z" fill="#7E2E4A"/>
<path d="M265.86 19.9703L266.203 20.1421L255.95 43.5122H255.607L265.86 19.9703Z" fill="#802E49"/>
<path d="M266.203 20.1421L266.547 20.2566L256.351 43.5122H255.95L266.203 20.1421Z" fill="#812D48"/>
<path d="M266.547 20.2567L266.833 20.4285L256.752 43.5122H256.351L266.547 20.2567Z" fill="#832D47"/>
<path d="M266.833 20.4285L267.12 20.543V20.7149L257.153 43.5122H256.752L266.833 20.4285Z" fill="#852C46"/>
<path d="M267.12 21.6314L257.554 43.5122H257.153L267.12 20.7149V21.6314Z" fill="#872C45"/>
<path d="M267.12 22.4906L257.898 43.5123H257.554L267.12 21.6314V22.4906Z" fill="#892C44"/>
<path d="M267.12 23.4071L258.299 43.5122H257.898L267.12 22.4906V23.4071Z" fill="#8A2B43"/>
<path d="M267.12 24.2662L258.7 43.5122H258.299L267.12 23.407V24.2662Z" fill="#8C2B42"/>
<path d="M267.12 25.1254L259.101 43.5122H258.7L267.12 24.2662V25.1254Z" fill="#8E2B41"/>
<path d="M267.12 26.0419L259.444 43.5122H259.101L267.12 25.1254V26.0419Z" fill="#902A40"/>
<path d="M267.12 26.9011L259.845 43.5122H259.444L267.12 26.0419V26.9011Z" fill="#922A3F"/>
<path d="M267.12 27.8176L260.246 43.5122H259.845L267.12 26.9011V27.8176Z" fill="#94293E"/>
<path d="M267.12 28.6768L260.647 43.5122H260.246L267.12 27.8176V28.6768Z" fill="#96293D"/>
<path d="M267.12 29.5932L260.991 43.5122H260.647L267.12 28.6768V29.5932Z" fill="#98293C"/>
<path d="M267.12 30.4525L261.392 43.5122H260.991L267.12 29.5933V30.4525Z" fill="#9A283B"/>
<path d="M267.12 31.3689L261.793 43.5122H261.392L267.12 30.4525V31.3689Z" fill="#9C283A"/>
<path d="M267.12 32.2282L262.194 43.5123H261.793L267.12 31.369V32.2282Z" fill="#9E2739"/>
<path d="M267.12 33.0873L262.538 43.5122H262.194L267.12 32.2281V33.0873Z" fill="#A02738"/>
<path d="M267.12 34.0038L262.938 43.5122H262.537L267.12 33.0873V34.0038Z" fill="#A22637"/>
<path d="M267.12 34.863L263.339 43.5122H262.938L267.12 34.0038V34.863Z" fill="#A42636"/>
<path d="M267.12 35.7795L263.74 43.5122H263.339L267.12 34.863V35.7795Z" fill="#A62635"/>
<path d="M267.12 36.6387L264.084 43.5122H263.74L267.12 35.7795V36.6387Z" fill="#A82534"/>
<path d="M267.12 37.5551L264.485 43.5122H264.084L267.12 36.6387V37.5551Z" fill="#AA2533"/>
<path d="M267.12 38.4143L264.886 43.5122H264.485L267.12 37.5551V38.4143Z" fill="#AD2432"/>
<path d="M267.12 39.3308L265.287 43.5122H264.886L267.12 38.4143V39.3308Z" fill="#AF2431"/>
<path d="M267.12 40.19L265.688 43.5122H265.287L267.12 39.3308V40.19Z" fill="#B12330"/>
<path d="M267.12 41.0492L266.031 43.5122H265.688L267.12 40.19V41.0492Z" fill="#B3232F"/>
<path d="M267.12 41.9657L266.432 43.5122H266.031L267.12 41.0492V41.9657Z" fill="#B5222D"/>
<path d="M267.12 42.8249L266.833 43.5122H266.432L267.12 41.9657V42.8249Z" fill="#B8222C"/>
<path d="M266.833 43.5122L267.12 42.8249V43.5122H266.833Z" fill="#BA212B"/>
<path d="M233.668 31.6553L233.497 31.999V31.6553H233.668Z" fill="#284075"/>
<path d="M234.069 31.6553L233.497 32.8582V31.999L233.668 31.6553H234.069Z" fill="#294074"/>
<path d="M234.413 31.6553L233.497 33.7747V32.8582L234.069 31.6553H234.413Z" fill="#2A4074"/>
<path d="M234.814 31.6553L233.497 34.6339V33.7747L234.413 31.6553H234.814Z" fill="#2A3F74"/>
<path d="M235.215 31.6553L233.497 35.4931V34.6339L234.814 31.6553H235.215Z" fill="#2B3F73"/>
<path d="M235.616 31.6553L233.497 36.4095V35.4931L235.215 31.6553H235.616Z" fill="#2C3F73"/>
<path d="M235.96 31.6553L233.497 37.2687V36.4095L235.616 31.6553H235.96Z" fill="#2D3F72"/>
<path d="M236.361 31.6553L233.497 38.1852V37.2687L235.96 31.6553H236.361Z" fill="#2E3F72"/>
<path d="M236.762 31.6553L233.497 39.0444V38.1852L236.361 31.6553H236.762Z" fill="#2E3F72"/>
<path d="M237.162 31.6553L233.611 39.7318H233.497V39.0444L236.762 31.6553H237.162Z" fill="#2F3E71"/>
<path d="M237.506 31.6553L234.012 39.7318H233.611L237.162 31.6553H237.506Z" fill="#303E71"/>
<path d="M237.907 31.6553L234.356 39.7318H234.012L237.506 31.6553H237.907Z" fill="#313E70"/>
<path d="M238.308 31.6553L234.757 39.7318H234.356L237.907 31.6553H238.308Z" fill="#323E70"/>
<path d="M238.709 31.6553L235.158 39.7318H234.757L238.308 31.6553H238.709Z" fill="#333E6F"/>
<path d="M239.11 31.6553L235.559 39.7318H235.158L238.709 31.6553H239.11Z" fill="#343E6F"/>
<path d="M239.454 31.6553L235.902 39.7318H235.559L239.11 31.6553H239.454Z" fill="#353D6E"/>
<path d="M239.855 31.6553L236.303 39.7318H235.902L239.454 31.6553H239.855Z" fill="#363D6E"/>
<path d="M240.256 31.6553L236.704 39.7318H236.303L239.855 31.6553H240.256Z" fill="#363D6E"/>
<path d="M240.657 31.6553L237.105 39.7318H236.704L240.256 31.6553H240.657Z" fill="#373D6D"/>
<path d="M241 31.6553L237.449 39.7318H237.105L240.657 31.6553H241Z" fill="#383D6D"/>
<path d="M241.401 31.6553L237.85 39.7318H237.449L241 31.6553H241.401Z" fill="#393C6C"/>
<path d="M241.516 32.2854L238.251 39.7318H237.85L241.401 31.6553H241.516V32.2854Z" fill="#3A3C6C"/>
<path d="M241.516 33.1446L238.652 39.7318H238.251L241.516 32.2854V33.1446Z" fill="#3B3C6B"/>
<path d="M241.516 34.0611L239.053 39.7318H238.652L241.516 33.1446V34.0611Z" fill="#3C3C6B"/>
<path d="M241.516 34.9203L239.396 39.7318H239.053L241.516 34.0611V34.9203Z" fill="#3E3B6A"/>
<path d="M241.516 35.8368L239.797 39.7318H239.396L241.516 34.9203V35.8368Z" fill="#3F3B69"/>
<path d="M241.516 36.6959L240.198 39.7318H239.797L241.516 35.8367V36.6959Z" fill="#403B69"/>
<path d="M241.516 37.6124L240.599 39.7317H240.198L241.516 36.6959V37.6124Z" fill="#413B68"/>
<path d="M241.516 38.4716L240.943 39.7318H240.599L241.516 37.6124V38.4716Z" fill="#423B68"/>
<path d="M241.516 39.3308L241.344 39.7318H240.943L241.516 38.4716V39.3308Z" fill="#433A67"/>
<path d="M241.344 39.7318L241.516 39.3308V39.7318H241.344Z" fill="#443A67"/>
<path d="M229.43 19.2256L229.086 19.9703V19.2256H229.43Z" fill="#1A437C"/>
<path d="M229.831 19.2256L229.086 20.8295V19.9703L229.43 19.2256H229.831Z" fill="#1A437C"/>
<path d="M230.174 19.2256L229.086 21.746V20.8295L229.831 19.2256H230.174Z" fill="#1B437C"/>
<path d="M230.575 19.2256L229.086 22.6051V21.746L230.174 19.2256H230.575Z" fill="#1B437B"/>
<path d="M230.976 19.2256L229.086 23.5216V22.6051L230.575 19.2256H230.976Z" fill="#1C437B"/>
<path d="M231.377 19.2256L229.086 24.3808V23.5216L230.976 19.2256H231.377Z" fill="#1C427B"/>
<path d="M231.778 19.2256L229.086 25.24V24.3808L231.377 19.2256H231.778Z" fill="#1C427B"/>
<path d="M232.122 19.2256L229.086 26.1565V25.24L231.778 19.2256H232.122Z" fill="#1D427A"/>
<path d="M232.523 19.2256L229.086 27.0157V26.1565L232.122 19.2256H232.523Z" fill="#1E427A"/>
<path d="M232.924 19.2256L229.086 27.9322V27.0157L232.523 19.2256H232.924Z" fill="#1E427A"/>
<path d="M233.325 19.2256L229.086 28.7914V27.9322L232.924 19.2256H233.325Z" fill="#1F427A"/>
<path d="M233.668 19.2256L229.086 29.7078V28.7914L233.325 19.2256H233.668Z" fill="#1F4279"/>
<path d="M234.069 19.2256L229.086 30.567V29.7078L233.668 19.2256H234.069Z" fill="#204279"/>
<path d="M234.47 19.2256L229.086 31.4835V30.567L234.069 19.2256H234.47Z" fill="#204279"/>
<path d="M234.871 19.2256L229.086 32.3427V31.4835L234.47 19.2256H234.871Z" fill="#214178"/>
<path d="M235.215 19.2256L229.086 33.2019V32.3427L234.871 19.2256H235.215Z" fill="#214178"/>
<path d="M235.616 19.2256L229.086 34.1184V33.2019L235.215 19.2256H235.616Z" fill="#224178"/>
<path d="M236.017 19.2256L229.086 34.9776V34.1184L235.616 19.2256H236.017Z" fill="#234178"/>
<path d="M236.418 19.2256L229.086 35.894V34.9776L236.017 19.2256H236.418Z" fill="#234177"/>
<path d="M236.761 19.2256L229.086 36.7532V35.894L236.418 19.2256H236.761Z" fill="#244177"/>
<path d="M237.162 19.2256L229.086 37.6697V36.7532L236.761 19.2256H237.162Z" fill="#254177"/>
<path d="M237.563 19.2256L229.086 38.5289V37.6697L237.162 19.2256H237.563Z" fill="#254176"/>
<path d="M237.964 19.2256L229.086 39.4454V38.5289L237.563 19.2256H237.964Z" fill="#264076"/>
<path d="M238.308 19.2256L229.086 40.3046V39.4454L237.964 19.2256H238.308Z" fill="#274076"/>
<path d="M238.709 19.2256L229.086 41.1638V40.3046L238.308 19.2256H238.709Z" fill="#274075"/>
<path d="M239.11 19.2256L229.086 42.0802V41.1638L238.709 19.2256H239.11Z" fill="#284075"/>
<path d="M239.511 19.2256L229.372 42.3666L229.086 42.2521V42.0802L239.11 19.2256H239.511Z" fill="#294074"/>
<path d="M239.912 19.2256L229.659 42.5385L229.373 42.3666L239.511 19.2256H239.912Z" fill="#2A4074"/>
<path d="M240.256 19.2256L230.003 42.653L229.659 42.5385L239.912 19.2256H240.256Z" fill="#2A3F74"/>
<path d="M240.656 19.2256L230.346 42.8249L230.002 42.653L240.256 19.2256H240.656Z" fill="#2B3F73"/>
<path d="M241.058 19.2256L230.633 42.9394L230.346 42.8249L240.657 19.2256H241.058Z" fill="#2C3F73"/>
<path d="M241.458 19.2256L230.976 43.1113L230.633 42.9394L241.057 19.2256H241.458Z" fill="#2D3F72"/>
<path d="M241.802 19.2256L231.32 43.2258L230.976 43.1113L241.458 19.2256H241.802Z" fill="#2E3F72"/>
<path d="M242.203 19.2256L231.606 43.3977L231.32 43.2258L241.802 19.2256H242.203Z" fill="#2E3F72"/>
<path d="M242.604 19.2256L231.95 43.5122L231.606 43.3977L242.203 19.2256H242.604Z" fill="#2F3E71"/>
<path d="M243.005 19.2256L232.294 43.6268H232.179L231.95 43.5122L242.604 19.2256H243.005Z" fill="#303E71"/>
<path d="M243.12 19.2256L243.349 19.2829L232.695 43.6268H232.294L243.005 19.2256H243.12Z" fill="#313E70"/>
<path d="M243.349 19.2829L243.635 19.4547L233.038 43.6268H232.695L243.349 19.2829Z" fill="#323E70"/>
<path d="M243.635 19.4548L243.979 19.5693L233.439 43.6268H233.038L243.635 19.4548Z" fill="#333E6F"/>
<path d="M243.979 19.5693L244.322 19.6838L233.84 43.6267H233.439L243.979 19.5693Z" fill="#343E6F"/>
<path d="M244.323 19.6838L244.609 19.8557L234.241 43.6268H233.84L244.323 19.6838Z" fill="#353D6E"/>
<path d="M244.609 19.8557L244.953 19.9703L234.642 43.6268H234.241L244.609 19.8557Z" fill="#363D6E"/>
<path d="M244.952 19.9703L245.296 20.1421L234.986 43.6268H234.642L244.952 19.9703Z" fill="#363D6E"/>
<path d="M245.296 20.1421L245.583 20.2566L235.387 43.6268H234.986L245.296 20.1421Z" fill="#373D6D"/>
<path d="M245.582 20.2567L245.869 20.3712V20.6003L235.788 43.6268H235.387L245.582 20.2567Z" fill="#383D6D"/>
<path d="M245.869 21.5168L236.189 43.6268H235.788L245.869 20.6003V21.5168Z" fill="#393C6C"/>
<path d="M245.869 22.376L236.532 43.6268H236.189L245.869 21.5168V22.376Z" fill="#3A3C6C"/>
<path d="M245.869 23.2925L236.933 43.6268H236.532L245.869 22.376V23.2925Z" fill="#3B3C6B"/>
<path d="M245.869 24.1517L237.334 43.6268H236.933L245.869 23.2925V24.1517Z" fill="#3C3C6B"/>
<path d="M245.869 25.0681L237.735 43.6268H237.334L245.869 24.1517V25.0681Z" fill="#3E3B6A"/>
<path d="M245.869 25.9274L238.079 43.6268H237.735L245.869 25.0682V25.9274Z" fill="#3F3B69"/>
<path d="M245.869 26.7866L238.48 43.6268H238.079L245.869 25.9274V26.7866Z" fill="#403B69"/>
<path d="M245.869 27.703L238.881 43.6268H238.48L245.869 26.7866V27.703Z" fill="#413B68"/>
<path d="M245.869 28.5622L239.282 43.6268H238.881L245.869 27.703V28.5622Z" fill="#423B68"/>
<path d="M245.869 29.4787L239.626 43.6268H239.282L245.869 28.5622V29.4787Z" fill="#433A67"/>
<path d="M245.869 30.3379L240.026 43.6268H239.625L245.869 29.4787V30.3379Z" fill="#443A67"/>
<path d="M245.869 31.2544L240.427 43.6268H240.026L245.869 30.3379V31.2544Z" fill="#453A66"/>
<path d="M245.869 32.1136L240.828 43.6268H240.427L245.869 31.2544V32.1136Z" fill="#463A65"/>
<path d="M245.869 33.0301L241.172 43.6268H240.828L245.869 32.1136V33.0301Z" fill="#483965"/>
<path d="M245.869 33.8892L241.573 43.6268H241.172L245.869 33.03V33.8892Z" fill="#493964"/>
<path d="M245.869 34.7484L241.974 43.6268H241.573L245.869 33.8892V34.7484Z" fill="#4A3964"/>
<path d="M245.869 35.6649L242.375 43.6268H241.974L245.869 34.7484V35.6649Z" fill="#4B3963"/>
<path d="M245.869 36.5241L242.776 43.6268H242.375L245.869 35.6649V36.5241Z" fill="#4C3862"/>
<path d="M245.869 37.4406L243.12 43.6268H242.776L245.869 36.5241V37.4406Z" fill="#4E3862"/>
<path d="M245.869 38.2997L243.521 43.6268H243.12L245.869 37.4406V38.2997Z" fill="#4F3861"/>
<path d="M245.869 39.2162L243.921 43.6268H243.521L245.869 38.2997V39.2162Z" fill="#503861"/>
<path d="M245.869 40.0754L244.322 43.6268H243.921L245.869 39.2162V40.0754Z" fill="#523760"/>
<path d="M245.869 40.9919L244.666 43.6268H244.322L245.869 40.0754V40.9919Z" fill="#53375F"/>
<path d="M245.869 41.8511L245.067 43.6268H244.666L245.869 40.9919V41.8511Z" fill="#54375F"/>
<path d="M245.869 42.7103L245.468 43.6268H245.067L245.869 41.8511V42.7103Z" fill="#56365E"/>
<path d="M245.468 43.6268L245.869 42.7103V43.6268H245.468Z" fill="#57365D"/>
<path d="M208.924 19.2256L208.752 19.512V19.2256H208.924Z" fill="#104581"/>
<path d="M209.267 19.2256L208.752 20.3712V19.512L208.924 19.2256H209.267Z" fill="#104581"/>
<path d="M209.668 19.2256L208.752 21.2877V20.3712L209.267 19.2256H209.668Z" fill="#104581"/>
<path d="M210.069 19.2256L208.752 22.1469V21.2877L209.668 19.2256H210.069Z" fill="#104581"/>
<path d="M210.47 19.2256L208.752 23.0634V22.1469L210.069 19.2256H210.47Z" fill="#104581"/>
<path d="M210.814 19.2256L208.752 23.9226V23.0634L210.47 19.2256H210.814Z" fill="#104581"/>
<path d="M211.215 19.2256L208.752 24.7818V23.9226L210.814 19.2256H211.215Z" fill="#104581"/>
<path d="M211.616 19.2256L208.752 25.6983V24.7818L211.215 19.2256H211.616Z" fill="#104581"/>
<path d="M212.017 19.2256L208.752 26.5574V25.6983L211.616 19.2256H212.017Z" fill="#104581"/>
<path d="M212.36 19.2256L208.752 27.4739V26.5574L212.017 19.2256H212.36Z" fill="#104581"/>
<path d="M212.761 19.2256L208.752 28.3331V27.4739L212.36 19.2256H212.761Z" fill="#104581"/>
<path d="M213.162 19.2256L208.752 29.2496V28.3331L212.761 19.2256H213.162Z" fill="#104581"/>
<path d="M213.563 19.2256L208.752 30.1088V29.2496L213.162 19.2256H213.563Z" fill="#104581"/>
<path d="M213.907 19.2256L208.752 31.0253V30.1088L213.563 19.2256H213.907Z" fill="#104581"/>
<path d="M214.308 19.2256L208.752 31.8845V31.0253L213.907 19.2256H214.308Z" fill="#104581"/>
<path d="M214.709 19.2256L208.752 32.7437V31.8845L214.308 19.2256H214.709Z" fill="#104581"/>
<path d="M215.11 19.2256L208.752 33.6601V32.7437L214.709 19.2256H215.11Z" fill="#114581"/>
<path d="M215.453 19.2256L208.752 34.5193V33.6601L215.11 19.2256H215.453Z" fill="#114581"/>
<path d="M215.854 19.2256L208.752 35.4358V34.5193L215.453 19.2256H215.854Z" fill="#114581"/>
<path d="M216.255 19.2256L208.752 36.295V35.4358L215.854 19.2256H216.255Z" fill="#114581"/>
<path d="M216.656 19.2256L208.752 37.2115V36.295L216.255 19.2256H216.656Z" fill="#114581"/>
<path d="M217.057 19.2256L208.752 38.0707V37.2115L216.656 19.2256H217.057Z" fill="#114580"/>
<path d="M217.401 19.2256L208.752 38.9871V38.0707L217.057 19.2256H217.401Z" fill="#114580"/>
<path d="M217.802 19.2256L208.752 39.8463V38.9871L217.401 19.2256H217.802Z" fill="#114580"/>
<path d="M218.203 19.2256L208.752 40.7055V39.8463L217.802 19.2256H218.203Z" fill="#114580"/>
<path d="M218.604 19.2256L208.752 41.622V40.7055L218.203 19.2256H218.604Z" fill="#124580"/>
<path d="M218.947 19.2256L208.752 42.4812V41.622L218.604 19.2256H218.947Z" fill="#124580"/>
<path d="M219.348 19.2256L209.038 42.7103L208.752 42.5958V42.4812L218.947 19.2256H219.348Z" fill="#124580"/>
<path d="M219.749 19.2256L209.382 42.8822L209.038 42.7103L219.348 19.2256H219.749Z" fill="#124580"/>
<path d="M220.15 19.2256L209.726 42.9967L209.382 42.8822L219.749 19.2256H220.15Z" fill="#124580"/>
<path d="M220.494 19.2256L210.012 43.1686L209.726 42.9967L220.15 19.2256H220.494Z" fill="#134480"/>
<path d="M220.895 19.2256L210.356 43.2831L210.012 43.1686L220.494 19.2256H220.895Z" fill="#134480"/>
<path d="M221.296 19.2256L210.699 43.455L210.356 43.2831L220.895 19.2256H221.296Z" fill="#134480"/>
<path d="M221.697 19.2256L210.986 43.5695L210.699 43.455L221.296 19.2256H221.697Z" fill="#13447F"/>
<path d="M222.041 19.2256L211.329 43.6841L210.986 43.5695L221.697 19.2256H222.041Z" fill="#13447F"/>
<path d="M222.212 19.2256L222.384 19.2829L211.73 43.6841H211.329L222.041 19.2256H222.212Z" fill="#14447F"/>
<path d="M222.384 19.2829L222.728 19.4547L212.131 43.684H211.73L222.384 19.2829Z" fill="#14447F"/>
<path d="M222.728 19.4548L223.072 19.5693L212.475 43.6841H212.131L222.728 19.4548Z" fill="#14447F"/>
<path d="M223.072 19.5693L223.415 19.7411L212.876 43.684H212.475L223.072 19.5693Z" fill="#14447F"/>
<path d="M223.415 19.7411L223.702 19.8557L213.277 43.6841H212.876L223.415 19.7411Z" fill="#15447F"/>
<path d="M223.702 19.8557L224.045 20.0276L213.678 43.6841H213.277L223.702 19.8557Z" fill="#15447E"/>
<path d="M224.045 20.0276L224.389 20.1421L214.021 43.6841H213.678L224.045 20.0276Z" fill="#15447E"/>
<path d="M224.389 20.1421L224.676 20.3139L214.422 43.684H214.021L224.389 20.1421Z" fill="#16447E"/>
<path d="M224.675 20.314L224.962 20.4285V20.5431L214.823 43.6841H214.422L224.675 20.314Z" fill="#16447E"/>
<path d="M224.962 21.4596L215.224 43.6841H214.823L224.962 20.5431V21.4596Z" fill="#16447E"/>
<path d="M224.962 22.3187L215.625 43.6841H215.224L224.962 21.4595V22.3187Z" fill="#17447E"/>
<path d="M224.962 23.2352L215.969 43.6841H215.625L224.962 22.3187V23.2352Z" fill="#17447D"/>
<path d="M224.962 24.0944L216.37 43.6841H215.969L224.962 23.2352V24.0944Z" fill="#17437D"/>
<path d="M224.962 25.0109L216.771 43.6841H216.37L224.962 24.0944V25.0109Z" fill="#18437D"/>
<path d="M224.962 25.8701L217.172 43.684H216.771L224.962 25.0109V25.8701Z" fill="#18437D"/>
<path d="M224.962 26.7293L217.516 43.684H217.172L224.962 25.8701V26.7293Z" fill="#18437D"/>
<path d="M224.962 27.6457L217.917 43.684H217.516L224.962 26.7292V27.6457Z" fill="#19437D"/>
<path d="M224.962 28.5049L218.317 43.6841H217.917L224.962 27.6458V28.5049Z" fill="#19437C"/>
<path d="M224.962 29.4214L218.718 43.6841H218.317L224.962 28.5049V29.4214Z" fill="#1A437C"/>
<path d="M224.962 30.2806L219.062 43.684H218.718L224.962 29.4214V30.2806Z" fill="#1A437C"/>
<path d="M224.962 31.1971L219.463 43.6841H219.062L224.962 30.2806V31.1971Z" fill="#1B437C"/>
<path d="M224.962 32.0563L219.864 43.6841H219.463L224.962 31.1971V32.0563Z" fill="#1B437B"/>
<path d="M224.962 32.9155L220.265 43.6841H219.864L224.962 32.0563V32.9155Z" fill="#1C437B"/>
<path d="M224.962 33.832L220.609 43.6841H220.265L224.962 32.9155V33.832Z" fill="#1C427B"/>
<path d="M224.962 34.6912L221.01 43.6841H220.609L224.962 33.832V34.6912Z" fill="#1C427B"/>
<path d="M224.962 35.6076L221.41 43.6841H221.01L224.962 34.6912V35.6076Z" fill="#1D427A"/>
<path d="M224.962 36.4668L221.811 43.684H221.41L224.962 35.6076V36.4668Z" fill="#1E427A"/>
<path d="M224.962 37.3833L222.155 43.684H221.812L224.962 36.4668V37.3833Z" fill="#1E427A"/>
<path d="M224.962 38.2425L222.556 43.6841H222.155L224.962 37.3833V38.2425Z" fill="#1F427A"/>
<path d="M224.962 39.159L222.957 43.6841H222.556L224.962 38.2425V39.159Z" fill="#1F4279"/>
<path d="M224.962 40.0181L223.358 43.684H222.957L224.962 39.1589V40.0181Z" fill="#204279"/>
<path d="M224.962 40.8774L223.759 43.6841H223.358L224.962 40.0182V40.8774Z" fill="#204279"/>
<path d="M224.962 41.7939L224.103 43.6841H223.759L224.962 40.8774V41.7939Z" fill="#214178"/>
<path d="M224.962 42.653L224.504 43.6841H224.103L224.962 41.7938V42.653Z" fill="#214178"/>
<path d="M224.962 43.5696L224.905 43.6841H224.504L224.962 42.6531V43.5696Z" fill="#224178"/>
<path d="M224.905 43.6841L224.962 43.5695V43.6841H224.905Z" fill="#234178"/>
</g>
<path d="M78.5549 44.0278C73.2279 44.0278 68.9319 39.7318 68.9319 34.4048C68.9319 29.0778 73.2279 24.7818 78.5549 24.7818C83.8819 24.7818 88.1779 29.0778 88.1779 34.4048C88.1779 39.7318 83.8819 44.0278 78.5549 44.0278ZM78.5549 27.5885C74.8317 27.5885 71.7959 30.6243 71.7959 34.3475C71.7959 38.0707 74.8317 41.1065 78.5549 41.1065C82.278 41.1065 85.3139 38.0707 85.3139 34.3475C85.3139 30.6243 82.278 27.5885 78.5549 27.5885Z" fill="#174485"/>
<path d="M65.5525 35.7795C66.2399 36.6387 66.5835 37.6124 66.5835 38.758C66.5835 39.9036 66.3544 40.5337 65.8389 41.2783C65.3234 42.023 64.636 42.653 63.7195 43.054C62.8031 43.5122 61.7148 43.6841 60.5119 43.6841H53.1228V25.1827H60.1682C61.4284 25.1827 62.5167 25.4119 63.4331 25.8128C64.3496 26.2138 65.037 26.7866 65.4952 27.5312C65.9535 28.2758 66.1826 29.0778 66.1826 29.937C66.1826 30.7962 65.8962 31.8845 65.3234 32.5718C64.7506 33.2592 64.0059 33.832 63.0322 34.1184C64.0059 34.2902 64.8651 34.8057 65.5525 35.6649V35.7795ZM56.1586 32.9728H59.9391C60.9128 32.9728 61.7148 32.7437 62.2876 32.2854C62.8604 31.8272 63.1467 31.1971 63.1467 30.3379C63.1467 29.4787 62.8604 28.8486 62.2876 28.3904C61.7148 27.9322 60.9701 27.703 59.9391 27.703H56.1586V32.9728ZM62.6312 40.4764C63.204 39.9609 63.4904 39.2735 63.4904 38.4143C63.4904 37.5552 63.204 36.8105 62.574 36.2377C61.9439 35.7222 61.142 35.4358 60.1109 35.4358H56.1013V41.2211H60.2255C61.2565 41.2211 62.0584 40.9919 62.6312 40.4764Z" fill="#184487"/>
<path d="M6.49708 36.1804C5.75245 36.1804 5.12237 35.6076 5.06509 34.863C4.32046 24.1517 9.99115 13.9559 19.4996 8.91528C20.1869 8.5716 21.0461 8.80072 21.4471 9.48808C21.7908 10.1754 21.5616 11.0346 20.8743 11.4356C12.3969 15.9607 7.299 25.0682 7.92908 34.6911C7.92908 35.4931 7.35628 36.1804 6.61164 36.2377C6.61164 36.2377 6.55436 36.2377 6.49708 36.2377V36.1804Z" fill="#174485"/>
<path d="M32.3301 60.4097C21.9625 60.4097 12.3395 54.5099 7.75714 45.0015C7.41346 44.3141 7.75714 43.4549 8.4445 43.1113C9.13185 42.7676 9.99105 43.1113 10.3347 43.7986C14.8598 53.0779 24.7692 58.5768 35.0796 57.4312C35.8815 57.3166 36.5688 57.8894 36.6834 58.6913C36.7979 59.4933 36.2251 60.1806 35.4232 60.2952C34.3922 60.4097 33.4184 60.467 32.3874 60.467L32.3301 60.4097Z" fill="#174485"/>
<path d="M42.4687 58.3477C41.8959 58.3477 41.3804 58.004 41.1513 57.4885C40.8649 56.7438 41.1513 55.9419 41.8959 55.5983C45.1036 54.2235 47.9103 52.276 50.316 49.6984C50.8315 49.1256 51.748 49.0684 52.3208 49.6412C52.8936 50.1567 52.9509 51.0732 52.3781 51.646C49.7432 54.5099 46.5928 56.7438 42.9842 58.2331C42.8124 58.2904 42.6405 58.3477 42.4114 58.3477H42.4687Z" fill="#174485"/>
<path d="M52.0344 17.5645C51.6334 17.5645 51.2324 17.3927 50.946 17.049C46.1345 11.4356 39.1464 8.34252 31.7573 8.51436C30.9554 8.51436 30.3253 7.88428 30.2681 7.13964C30.2681 6.33773 30.8981 5.70765 31.6428 5.65037C39.8911 5.42125 47.6811 8.91532 53.0654 15.2161C53.5809 15.7889 53.5236 16.7054 52.8935 17.2209C52.6071 17.45 52.2635 17.5645 51.9771 17.5645H52.0344Z" fill="#174485"/>
<path d="M25.915 15.9607C22.65 15.9607 19.6715 13.7841 18.8123 10.4619C18.2968 8.57164 18.5832 6.56685 19.5569 4.84846C20.5307 3.13007 22.1345 1.92719 24.0248 1.41167C25.915 0.896157 27.9198 1.18256 29.6382 2.15631C31.3566 3.13006 32.5594 4.7339 33.075 6.62413C34.106 10.5764 31.7575 14.586 27.8625 15.617C27.2324 15.7889 26.6023 15.8462 25.9723 15.8462L25.915 15.9607ZM25.915 4.10382C25.514 4.10382 25.1131 4.10382 24.7694 4.27566C22.3637 4.90574 20.9317 7.36876 21.5617 9.77451C22.1918 12.1803 24.6548 13.6122 27.0606 12.9822C29.4663 12.3521 30.8983 9.88907 30.2682 7.48332C29.9818 6.33773 29.2372 5.36397 28.2062 4.7339C27.5188 4.33294 26.7169 4.10382 25.9723 4.10382H25.915Z" fill="#6B95CE"/>
<path d="M7.29903 45.9753C4.49232 45.9753 1.97202 44.0851 1.22738 41.2784C0.769142 39.6745 0.99826 37.9561 1.85746 36.5241C2.71665 35.0921 4.09136 34.0038 5.6952 33.6029C9.0747 32.7437 12.5115 34.7485 13.428 38.0707C14.3444 41.4502 12.2824 44.887 8.96014 45.8034C8.44462 45.918 7.87182 46.0326 7.35631 46.0326L7.29903 45.9753ZM7.29903 36.2377C7.01263 36.2377 6.72623 36.2377 6.43983 36.3523C5.52336 36.5814 4.836 37.1542 4.32048 37.9561C3.86224 38.758 3.74769 39.6745 3.9768 40.591C4.43504 42.4239 6.32527 43.5123 8.15822 43.054C9.99117 42.5958 11.0795 40.7056 10.6212 38.8726C10.2203 37.3261 8.84558 36.295 7.29903 36.295V36.2377Z" fill="#6B95CE"/>
<path d="M38.9745 63.1592C38.1153 63.1592 37.2561 62.93 36.4542 62.4718C35.3086 61.7845 34.4494 60.6961 34.1058 59.3787C33.4184 56.6866 35.0222 53.9371 37.7144 53.2498C39.0318 52.9061 40.3492 53.0779 41.5521 53.7653C42.6977 54.4527 43.5569 55.541 43.9006 56.8584C44.5879 59.5505 42.9841 62.3 40.292 62.9873C39.891 63.1019 39.4328 63.1592 38.9745 63.1592ZM38.9745 55.9419C38.8027 55.9419 38.5736 55.9419 38.4017 55.9992C37.2561 56.2856 36.5688 57.4885 36.8552 58.6341C37.027 59.2069 37.3707 59.6651 37.8862 59.9515C38.4017 60.2379 38.9745 60.2952 39.5473 60.1806C40.6929 59.8942 41.3803 58.6914 41.0939 57.5458C40.922 56.973 40.5784 56.5147 40.0628 56.2283C39.7192 56.0565 39.3755 55.9419 38.9745 55.9419Z" fill="#6B95CE"/>
</g>
<defs>
<clipPath id="clip0_311_2509">
<rect width="268" height="63" fill="white" transform="translate(0 0.5)"/>
</clipPath>
</defs>
</svg>
