<svg width="343" height="62" viewBox="0 0 343 62" fill="none" xmlns="http://www.w3.org/2000/svg">
<path d="M74.9013 24.7869C75.8657 23.0659 77.1818 21.7144 78.8495 20.7426C80.5172 19.7708 82.3708 19.2849 84.4052 19.2849C86.7963 19.2849 88.8859 19.8669 90.6692 21.0311C92.4524 22.1953 93.7534 23.8454 94.5722 25.9763H91.1413C90.5335 24.6451 89.6545 23.6176 88.5142 22.8989C87.3689 22.1801 86.0026 21.8207 84.4052 21.8207C82.8078 21.8207 81.4968 22.1801 80.2811 22.8989C79.0655 23.6176 78.1111 24.6401 77.4179 25.9612C76.7247 27.2822 76.3781 28.8311 76.3781 30.6077C76.3781 32.3844 76.7247 33.9029 77.4179 35.2239C78.1111 36.545 79.0655 37.5675 80.2811 38.2862C81.4968 39.005 82.8731 39.3644 84.4052 39.3644C85.9373 39.3644 87.3689 39.0101 88.5142 38.3014C89.6595 37.5928 90.5335 36.5754 91.1413 35.2391H94.5722C93.7534 37.3549 92.4524 38.9847 90.6692 40.1388C88.8859 41.2929 86.7963 41.8648 84.4052 41.8648C82.3708 41.8648 80.5172 41.384 78.8495 40.4223C77.1818 39.4605 75.8657 38.1243 74.9013 36.4084C73.9368 34.6975 73.4546 32.764 73.4546 30.6077C73.4546 28.4515 73.9368 26.5129 74.9013 24.7869Z" fill="#184487"/>
<path d="M99.4498 28.244C100.163 26.9026 101.143 25.86 102.393 25.121C103.639 24.382 105.031 24.0125 106.563 24.0125C108.095 24.0125 109.386 24.3415 110.496 24.9944C111.606 25.6474 112.435 26.4724 112.982 27.4696V24.301H115.876V41.6776H112.982V38.4432C112.415 39.4555 111.571 40.3008 110.451 40.9639C109.33 41.632 108.024 41.961 106.533 41.961C105.041 41.961 103.614 41.5814 102.378 40.8171C101.143 40.0578 100.163 38.9898 99.4498 37.6131C98.7365 36.2414 98.3799 34.6773 98.3799 32.9209C98.3799 31.1645 98.7365 29.5853 99.4498 28.244ZM112.194 29.5296C111.671 28.5578 110.963 27.8137 110.069 27.2924C109.175 26.7761 108.195 26.5129 107.125 26.5129C106.055 26.5129 105.081 26.766 104.197 27.2721C103.318 27.7783 102.614 28.5173 102.087 29.4942C101.565 30.466 101.298 31.61 101.298 32.9209C101.298 34.2319 101.56 35.4113 102.087 36.3932C102.609 37.3752 103.313 38.1294 104.197 38.6456C105.076 39.1619 106.055 39.4201 107.125 39.4201C108.195 39.4201 109.175 39.1619 110.069 38.6456C110.958 38.1294 111.666 37.3752 112.194 36.3932C112.716 35.4113 112.982 34.2623 112.982 32.9513C112.982 31.6403 112.721 30.5015 112.194 29.5246V29.5296Z" fill="#184487"/>
<path d="M126.369 24.802C127.304 24.2503 128.439 23.977 129.785 23.977V26.9583H129.032C125.822 26.9583 124.214 28.7147 124.214 32.2224V41.6725H121.351V24.2959H124.214V27.1203C124.717 26.1282 125.435 25.3538 126.369 24.8071V24.802Z" fill="#184487"/>
<path d="M139.163 24.9944C140.299 24.3414 141.584 24.0124 143.036 24.0124C144.588 24.0124 145.985 24.3819 147.221 25.1209C148.456 25.8599 149.436 26.9026 150.149 28.244C150.862 29.5853 151.219 31.1443 151.219 32.9209C151.219 34.6975 150.862 36.2413 150.149 37.613C149.436 38.9898 148.456 40.0528 147.205 40.8171C145.955 41.5763 144.568 41.961 143.036 41.961C141.504 41.961 140.238 41.632 139.118 40.979C137.998 40.3261 137.149 39.4909 136.586 38.4735V41.6775H133.723V18.2118H136.586V27.5353C137.174 26.4977 138.033 25.6524 139.168 24.9994L139.163 24.9944ZM147.502 29.4992C146.979 28.5274 146.271 27.7884 145.377 27.2772C144.483 26.771 143.503 26.5179 142.433 26.5179C141.363 26.5179 140.414 26.7761 139.525 27.2974C138.631 27.8137 137.918 28.5679 137.385 29.5499C136.853 30.5318 136.581 31.6707 136.581 32.9563C136.581 34.242 136.848 35.4163 137.385 36.3983C137.918 37.3802 138.631 38.1344 139.525 38.6507C140.414 39.167 141.389 39.4251 142.433 39.4251C143.478 39.4251 144.483 39.167 145.377 38.6507C146.266 38.1344 146.974 37.3802 147.502 36.3983C148.024 35.4163 148.29 34.2572 148.29 32.926C148.29 31.5948 148.029 30.4761 147.502 29.4992Z" fill="#184487"/>
<path d="M158.754 40.8475C157.443 40.1085 156.413 39.0556 155.67 37.6941C154.926 36.3325 154.554 34.7482 154.554 32.9513C154.554 31.1544 154.936 29.6056 155.705 28.244C156.468 26.8824 157.513 25.8346 158.834 25.1058C160.155 24.3769 161.637 24.0125 163.27 24.0125C164.902 24.0125 166.384 24.3769 167.705 25.1058C169.026 25.8346 170.071 26.8773 170.835 28.2288C171.598 29.5803 171.985 31.1595 171.985 32.9513C171.985 34.7431 171.593 36.3274 170.805 37.6941C170.016 39.0556 168.951 40.1085 167.61 40.8475C166.269 41.5865 164.777 41.956 163.139 41.956C161.502 41.956 160.06 41.5865 158.749 40.8475H158.754ZM166.038 38.6912C166.942 38.2053 167.67 37.4764 168.223 36.5046C168.78 35.5327 169.056 34.3483 169.056 32.9513C169.056 31.5543 168.785 30.3699 168.238 29.398C167.69 28.4262 166.977 27.7024 166.098 27.2266C165.219 26.7508 164.259 26.5129 163.235 26.5129C162.21 26.5129 161.225 26.7508 160.356 27.2266C159.487 27.7024 158.789 28.4262 158.262 29.398C157.739 30.3699 157.473 31.5543 157.473 32.9513C157.473 34.3483 157.729 35.5631 158.247 36.5349C158.759 37.5068 159.447 38.2306 160.306 38.7064C161.165 39.1822 162.109 39.4201 163.139 39.4201C164.169 39.4201 165.133 39.1771 166.032 38.6912H166.038Z" fill="#184487"/>
<path d="M189.893 25.8954C191.194 27.1759 191.842 29.0184 191.842 31.4277V41.6725H189.009V31.8428C189.009 30.1117 188.577 28.7805 187.718 27.8643C186.859 26.9431 185.683 26.4825 184.191 26.4825C182.7 26.4825 181.479 26.9583 180.59 27.9099C179.696 28.8615 179.254 30.2484 179.254 32.0655V41.6725H176.39V24.2959H179.254V26.771C179.821 25.8852 180.59 25.1968 181.564 24.7109C182.539 24.225 183.614 23.9821 184.789 23.9821C186.889 23.9821 188.587 24.6198 189.888 25.9004L189.893 25.8954Z" fill="#184487"/>
<path d="M212.266 19.5379V23.1215H206.414V41.6724H202.009V23.1215H196.157V19.5379H212.271H212.266Z" fill="#184487"/>
<path d="M222.102 24.6451C223.016 24.1187 224.056 23.8504 225.231 23.8504V28.5122H224.066C222.679 28.5122 221.64 28.8412 220.936 29.4941C220.233 30.1471 219.881 31.291 219.881 32.9209V41.6724H215.476V24.1035H219.881V26.8317C220.449 25.9004 221.187 25.1715 222.102 24.6451Z" fill="#184487"/>
<path d="M228.109 28.1022C228.813 26.7305 229.767 25.6726 230.973 24.9286C232.178 24.1896 233.524 23.8201 235.016 23.8201C236.317 23.8201 237.458 24.0833 238.432 24.6147C239.407 25.1412 240.19 25.8093 240.778 26.6141V24.1086H245.213V41.6775H240.778V39.1113C240.21 39.9363 239.432 40.6196 238.432 41.1562C237.437 41.6927 236.287 41.966 234.986 41.966C233.519 41.966 232.178 41.5864 230.973 40.8221C229.767 40.0629 228.813 38.9898 228.109 37.6029C227.406 36.2211 227.054 34.6267 227.054 32.8298C227.054 31.0329 227.406 29.479 228.109 28.1073V28.1022ZM240.145 30.1167C239.723 29.3474 239.16 28.7552 238.447 28.3401C237.734 27.9301 236.97 27.7226 236.151 27.7226C235.333 27.7226 234.579 27.9251 233.886 28.3249C233.193 28.7248 232.63 29.3119 232.203 30.0864C231.771 30.8557 231.56 31.7719 231.56 32.8298C231.56 33.8877 231.776 34.8139 232.203 35.6036C232.635 36.3982 233.198 37.0056 233.901 37.4258C234.604 37.8509 235.353 38.0585 236.151 38.0585C236.95 38.0585 237.734 37.8509 238.447 37.4409C239.16 37.0309 239.728 36.4387 240.145 35.6643C240.562 34.8949 240.773 33.9687 240.773 32.8905C240.773 31.8124 240.562 30.8861 240.145 30.1167Z" fill="#184487"/>
<path d="M249.493 28.1174C250.227 26.7558 251.246 25.6979 252.547 24.9438C253.848 24.1946 255.335 23.8201 257.018 23.8201C259.178 23.8201 260.966 24.3667 262.383 25.455C263.799 26.5432 264.749 28.0718 265.231 30.0358H260.479C260.228 29.2765 259.801 28.6792 259.203 28.2439C258.605 27.8086 257.867 27.596 256.983 27.596C255.722 27.596 254.727 28.0567 253.994 28.9779C253.261 29.8991 252.894 31.205 252.894 32.8956C252.894 34.5862 253.261 35.8617 253.994 36.7779C254.727 37.6991 255.727 38.1597 256.983 38.1597C258.766 38.1597 259.932 37.3549 260.474 35.7503H265.226C264.744 37.6535 263.789 39.167 262.363 40.2856C260.936 41.4042 259.153 41.966 257.013 41.966C255.335 41.966 253.843 41.5915 252.542 40.8424C251.241 40.0932 250.222 39.0353 249.488 37.6687C248.755 36.3071 248.388 34.7127 248.388 32.8956C248.388 31.0785 248.755 29.4891 249.488 28.1225L249.493 28.1174Z" fill="#184487"/>
<path d="M278.794 41.6724L272.876 34.1863V41.6724H268.471V18.2067H272.876V31.5593L278.728 24.1085H284.455L276.774 32.9259L284.515 41.6775H278.789L278.794 41.6724Z" fill="#184487"/>
<path d="M288.629 19.7454C290.005 18.5914 291.814 18.0194 294.059 18.0194C295.591 18.0194 296.902 18.2877 297.992 18.8293C299.082 19.3709 299.906 20.0997 300.464 21.0159C301.021 21.9371 301.298 22.9748 301.298 24.1389C301.298 25.4701 300.956 26.5989 300.273 27.515C299.59 28.4363 298.776 29.0538 297.832 29.3727V29.4992C299.047 29.8788 299.997 30.5571 300.68 31.5289C301.363 32.5008 301.705 33.751 301.705 35.2695C301.705 36.5399 301.418 37.6687 300.841 38.6608C300.263 39.6528 299.414 40.4323 298.294 40.9891C297.174 41.551 295.822 41.8294 294.25 41.8294C291.879 41.8294 289.95 41.227 288.458 40.0223C286.966 38.8177 286.183 37.041 286.097 34.6975H290.377C290.417 35.7351 290.769 36.5653 291.432 37.1878C292.095 37.8104 292.999 38.1242 294.155 38.1242C295.225 38.1242 296.048 37.8205 296.626 37.2182C297.204 36.6159 297.49 35.8364 297.49 34.8898C297.49 33.6194 297.093 32.7133 296.295 32.1616C295.496 31.6099 294.26 31.3366 292.582 31.3366H291.668V27.6922H292.582C295.561 27.6922 297.053 26.69 297.053 24.6805C297.053 23.7694 296.787 23.0608 296.249 22.5546C295.712 22.0485 294.943 21.7954 293.939 21.7954C292.934 21.7954 292.191 22.0637 291.658 22.6053C291.121 23.1418 290.814 23.8251 290.729 24.6502H286.419C286.524 22.5344 287.263 20.9045 288.639 19.7505L288.629 19.7454Z" fill="#184487"/>
<path d="M316.006 22.3269C315.493 21.8814 314.75 21.6587 313.786 21.6587C312.339 21.6587 311.274 22.2459 310.591 23.4202C309.908 24.5945 309.556 26.5027 309.536 29.1449C310.038 28.2996 310.772 27.6365 311.741 27.1607C312.706 26.6849 313.755 26.447 314.886 26.447C316.247 26.447 317.457 26.7457 318.502 27.3328C319.552 27.925 320.371 28.7855 320.959 29.9193C321.546 31.0481 321.838 32.4096 321.838 33.9939C321.838 35.4972 321.536 36.8335 320.939 38.0078C320.341 39.1821 319.462 40.0932 318.311 40.7512C317.156 41.4042 315.785 41.7332 314.187 41.7332C312.007 41.7332 310.289 41.2473 309.044 40.2754C307.793 39.3036 306.924 37.9471 306.432 36.2008C305.939 34.4545 305.693 32.3084 305.693 29.7472C305.693 25.8801 306.356 22.9545 307.677 20.9805C308.998 19.0064 311.088 18.0143 313.941 18.0143C316.146 18.0143 317.854 18.6167 319.07 19.8213C320.286 21.026 320.989 22.5293 321.18 24.3262H317.091C316.88 23.4404 316.518 22.7723 316.006 22.3269ZM311.083 31.0784C310.33 31.7314 309.948 32.683 309.948 33.9332C309.948 35.1834 310.299 36.1654 311.003 36.8841C311.706 37.6029 312.695 37.9623 313.976 37.9623C315.112 37.9623 316.006 37.613 316.669 36.9145C317.332 36.216 317.658 35.2745 317.658 34.0901C317.658 32.9057 317.337 31.8934 316.699 31.1746C316.061 30.4558 315.122 30.0965 313.881 30.0965C312.771 30.0965 311.837 30.4255 311.078 31.0784H311.083Z" fill="#184487"/>
<path d="M327.303 21.2184C328.614 19.1482 330.789 18.1105 333.833 18.1105C336.877 18.1105 339.052 19.1482 340.363 21.2184C341.674 23.2886 342.332 26.1535 342.332 29.813C342.332 33.4726 341.674 36.378 340.363 38.4684C339.052 40.5589 336.877 41.6067 333.833 41.6067C330.789 41.6067 328.614 40.5589 327.303 38.4684C325.992 36.378 325.334 33.4878 325.334 29.813C325.334 26.1383 325.992 23.2937 327.303 21.2184ZM337.686 25.865C337.485 24.797 337.088 23.9264 336.49 23.2481C335.893 22.5698 335.003 22.2358 333.833 22.2358C332.663 22.2358 331.774 22.5749 331.176 23.2481C330.578 23.9264 330.181 24.797 329.98 25.865C329.779 26.933 329.679 28.249 329.679 29.813C329.679 31.3771 329.774 32.769 329.96 33.8573C330.151 34.9455 330.548 35.8212 331.156 36.4893C331.763 37.1575 332.658 37.4865 333.828 37.4865C334.998 37.4865 335.893 37.1524 336.505 36.4893C337.113 35.8212 337.51 34.9455 337.701 33.8573C337.892 32.769 337.982 31.4226 337.982 29.813C337.982 28.2034 337.882 26.933 337.681 25.865H337.686Z" fill="#184487"/>
<path d="M0 29.1803C0.15572 28.0263 0.271254 26.8672 0.467159 25.7232C1.46176 19.6999 4.2396 14.1118 8.42896 9.69303C8.5244 9.54118 8.655 9.40958 8.8057 9.31341C8.9564 9.21724 9.12719 9.15144 9.30802 9.13119C9.48886 9.11094 9.66969 9.12613 9.84048 9.18181C10.0113 9.23748 10.167 9.33366 10.2976 9.45514C10.4282 9.58168 10.5287 9.73353 10.594 9.90056C10.6593 10.0676 10.6894 10.2498 10.6743 10.432C10.6643 10.6143 10.609 10.7863 10.5236 10.9483C10.4332 11.1052 10.3127 11.2419 10.167 11.3482C8.15268 13.4893 6.47995 15.934 5.20908 18.5863C3.03402 23.0912 2.0997 28.0971 2.49152 33.0879C2.95868 40.3362 6.21372 47.1188 11.5634 51.9982C15.8834 56.088 21.4039 58.6694 27.3012 59.3477C32.4299 60.0057 37.644 59.2161 42.3558 57.075C42.7074 56.9181 42.8581 56.7815 42.8079 56.336C42.7174 55.4047 42.9435 54.4733 43.4508 53.6939C43.9582 52.9093 44.7167 52.3272 45.6008 52.0387C46.4849 51.7502 47.4393 51.7755 48.3083 52.1045C49.1773 52.4386 49.9057 53.0561 50.3728 53.8609C50.85 54.6758 51.0309 55.6325 50.8852 56.5638C50.7395 57.5002 50.2824 58.3556 49.5842 58.9833C48.886 59.616 47.9918 59.9855 47.0525 60.031C46.1131 60.0766 45.1889 59.7931 44.4304 59.2313C44.3249 59.1604 44.2043 59.1199 44.0787 59.0997C43.9532 59.0845 43.8276 59.0896 43.707 59.1301C40.3415 60.6992 36.7197 61.6406 33.0176 61.8988C32.9021 61.919 32.7916 61.9544 32.6811 62H28.9589C28.1451 61.8988 27.3313 61.8178 26.5226 61.7014C20.5651 60.9016 14.9843 58.3252 10.5035 54.3063C5.17894 49.6749 1.63255 43.3175 0.472182 36.3324C0.271254 35.1683 0.15572 33.9889 0 32.8146V29.1803ZM45.1939 55.8552C45.1788 56.1892 45.2592 56.5182 45.435 56.8068C45.6058 57.0902 45.857 57.323 46.1583 57.4648C46.4597 57.6065 46.7963 57.6571 47.1228 57.6065C47.4493 57.5559 47.7557 57.4091 48.0019 57.1864C48.248 56.9637 48.4188 56.6701 48.4992 56.3461C48.5795 56.0222 48.5645 55.6831 48.4489 55.3693C48.3384 55.0554 48.1325 54.7821 47.8662 54.5847C47.6 54.3873 47.2785 54.2709 46.947 54.2557C46.505 54.2405 46.073 54.3974 45.7414 54.7011C45.4149 54.9998 45.214 55.4199 45.1889 55.8653L45.1939 55.8552ZM41.2205 -4.28036e-06C41.8685 0.126537 42.4814 0.399865 43.0088 0.794673C43.5362 1.19454 43.9732 1.70577 44.2746 2.29292C44.6514 3.06735 44.782 3.93795 44.6413 4.78831C44.5007 5.63866 44.0988 6.42321 43.491 7.03061C42.8782 7.63295 42.0946 8.02775 41.2507 8.15936C40.4068 8.29096 39.5377 8.14923 38.7792 7.75442C38.0157 7.36468 37.3979 6.73704 37.006 5.97273C36.6142 5.20842 36.4736 4.33782 36.6042 3.48746C36.6243 3.37105 36.6394 3.24957 36.6745 3.00661C35.5895 2.8497 34.5145 2.64723 33.4345 2.546C28.1451 2.02971 22.8255 3.03192 18.0786 5.43113C17.1643 5.88668 16.3857 5.55767 16.1898 4.69213C16.1296 4.40362 16.1748 4.09992 16.3154 3.84178C16.4561 3.58364 16.6871 3.38623 16.9634 3.285C19.2389 2.10564 21.6702 1.24516 24.1767 0.728872C25.5883 0.450482 27.0249 0.303694 28.4465 0.0961668C28.5821 0.0708586 28.7127 0.0354272 28.8433 -0.00506592H32.6911C32.7815 0.0354272 32.8719 0.065797 32.9674 0.0911052C34.5597 0.334064 36.1571 0.571961 37.7595 0.809858C37.9152 0.840228 38.071 0.830104 38.2217 0.78455C38.8244 0.531468 39.4172 0.258139 40.015 -0.00506592H41.2155L41.2205 -4.28036e-06ZM42.3055 4.0898C42.3005 3.75573 42.195 3.43179 42.0092 3.15846C41.8183 2.88513 41.5571 2.67254 41.2456 2.55106C40.9392 2.42958 40.5976 2.39921 40.2762 2.47008C39.9496 2.54094 39.6533 2.70291 39.4222 2.94587C39.1911 3.18377 39.0354 3.48746 38.9751 3.81647C38.9149 4.14548 38.9551 4.48461 39.0857 4.78831C39.2163 5.09706 39.4373 5.35521 39.7136 5.53743C39.9898 5.71965 40.3163 5.81076 40.6479 5.80569C41.0899 5.79557 41.5169 5.61335 41.8233 5.28941C42.1348 4.97052 42.3055 4.54028 42.3005 4.0898H42.3055ZM59.1283 30.9064C59.068 24.8577 57.1441 18.9761 53.6128 14.0815C53.5475 13.9499 53.437 13.8537 53.2963 13.8031C53.1607 13.7575 53.01 13.7626 52.8794 13.8233C52.367 13.9904 51.8296 14.0562 51.2971 14.0106C50.7646 13.9651 50.2422 13.8132 49.765 13.5652C49.2878 13.3121 48.8709 12.9679 48.5293 12.5529C48.1877 12.1378 47.9366 11.6519 47.7808 11.1356C47.4644 10.098 47.5749 8.97934 48.0772 8.02775C48.5795 7.0711 49.4435 6.35235 50.4683 6.03347C51.498 5.71458 52.6082 5.81582 53.5626 6.32198C54.517 6.82308 55.2303 7.68862 55.5518 8.7212C55.8682 9.66772 55.8029 10.7054 55.3709 11.6063C55.2805 11.7531 55.2403 11.9303 55.2554 12.1024C55.2705 12.2745 55.3458 12.4415 55.4613 12.568C57.757 15.6607 59.4448 19.1684 60.4293 22.8988C62.1523 29.1702 61.8408 35.8263 59.5452 41.9053C59.4448 42.1078 59.4096 42.3305 59.4448 42.5532C59.4799 42.7759 59.5804 42.9784 59.7311 43.1403C60.0777 43.5858 60.3288 44.102 60.4645 44.6487C60.6051 45.2004 60.6252 45.7724 60.5348 46.3292C60.4444 46.8859 60.2334 47.4225 59.927 47.8932C59.6206 48.369 59.2137 48.7739 58.7415 49.0827C58.2693 49.3915 57.7369 49.599 57.1843 49.6901C56.6267 49.7812 56.0591 49.7559 55.5116 49.6142C54.9641 49.4724 54.4567 49.2194 54.0096 48.8701C53.5676 48.5209 53.2009 48.0805 52.9347 47.5794C52.6584 47.0935 52.4826 46.5569 52.4223 45.9951C52.362 45.4383 52.4223 44.8714 52.5881 44.3399C52.7589 43.8034 53.0351 43.3124 53.4069 42.8923C53.7786 42.4722 54.2307 42.1331 54.738 41.9002C55.3508 41.6775 55.9938 41.5459 56.6468 41.5105C56.9834 41.4751 57.1743 41.4396 57.3049 41.0802C58.5205 37.8256 59.1383 34.3736 59.1183 30.8912M53.3416 9.88538C53.3365 9.55637 53.2361 9.23242 53.0452 8.9591C52.8593 8.68577 52.5981 8.47318 52.2917 8.3517C51.9853 8.22516 51.6537 8.19479 51.3272 8.26059C51.0058 8.32639 50.7094 8.4833 50.4733 8.7212C50.2422 8.95403 50.0815 9.25267 50.0112 9.57661C49.9459 9.90056 49.976 10.2397 50.0966 10.5434C50.2171 10.8521 50.4281 11.1154 50.6993 11.3026C50.9706 11.4899 51.2871 11.5962 51.6186 11.6013C51.8446 11.6013 52.0657 11.5608 52.2766 11.4747C52.4826 11.3887 52.6735 11.2621 52.8342 11.1052C52.9949 10.9433 53.1205 10.756 53.2059 10.5484C53.2913 10.3409 53.3365 10.1131 53.3365 9.89044L53.3416 9.88538ZM58.1588 45.5345C58.1588 45.2004 58.0583 44.8714 57.8725 44.5981C57.6866 44.3248 57.4204 44.1071 57.114 43.9806C56.8076 43.854 56.466 43.8237 56.1445 43.8895C55.818 43.9553 55.5216 44.1223 55.2855 44.3602C55.0545 44.5981 54.8937 44.9018 54.8334 45.2308C54.7732 45.5598 54.8083 45.8989 54.9389 46.2077C55.0695 46.5164 55.2855 46.7746 55.5668 46.9619C55.8431 47.1441 56.1696 47.2403 56.5062 47.2352C56.7272 47.2352 56.9432 47.1896 57.1441 47.1036C57.3451 47.0175 57.5309 46.891 57.6816 46.7341C57.8373 46.5772 57.9579 46.3899 58.0383 46.1824C58.1186 45.9748 58.1588 45.7572 58.1588 45.5345ZM13.1357 5.8968C12.8996 5.8968 12.6736 5.96767 12.4777 6.09927C12.2818 6.23087 12.1311 6.41815 12.0407 6.6358C11.9502 6.85345 11.9301 7.09641 11.9804 7.32419C12.0306 7.55702 12.1461 7.76961 12.3119 7.93158C12.4777 8.09862 12.6937 8.20997 12.9247 8.25047C13.1558 8.29096 13.3919 8.26565 13.6079 8.16948C13.8239 8.07331 14.0047 7.9164 14.1303 7.71899C14.2559 7.52159 14.3212 7.28875 14.3162 7.05086C14.3162 6.89395 14.2911 6.7421 14.2308 6.59531C14.1705 6.45358 14.0851 6.32198 13.9746 6.21063C13.8641 6.10433 13.7335 6.01828 13.5878 5.9626C13.4421 5.90693 13.2864 5.88162 13.1357 5.89174V5.8968ZM51.051 22.7318C50.6039 22.8938 50.1317 22.9697 49.6595 22.9545C48.3585 22.9545 47.0625 22.8229 45.7917 22.5648C44.566 22.3522 43.3253 22.251 42.1046 22.0333C41.0447 21.8308 39.9697 21.7094 38.8898 21.6638C37.1367 21.517 35.3735 21.6081 33.6455 21.9371C32.1888 22.2307 30.8325 22.8887 29.7123 23.8606C27.7884 25.7688 26.6884 28.3553 26.6431 31.0683C26.6431 31.3872 26.7486 31.701 26.9546 31.944C27.1605 32.187 27.4469 32.3489 27.7633 32.3995C28.1099 32.4198 28.4465 32.3135 28.7228 32.1009C28.994 31.8883 29.1799 31.5846 29.2452 31.2455C29.2854 30.7241 29.3607 30.2028 29.4712 29.6916C29.6772 28.3806 30.2498 27.1607 31.1289 26.1687C31.7618 25.5511 32.5153 25.0652 33.3341 24.7413C34.1579 24.4173 35.0369 24.2604 35.921 24.2756C37.1166 24.2149 38.3221 24.2351 39.5126 24.3414C40.6881 24.4578 41.8585 24.5996 43.0188 24.7919C44.8021 25.0855 46.5853 25.3537 48.3937 25.5967C48.1676 26.0067 47.9315 26.3914 47.7356 26.8014C46.8867 28.5527 46.0629 30.3192 45.2039 32.0655C44.566 33.3916 43.7422 34.6216 42.7576 35.725C41.5219 37.1575 39.8643 38.1597 38.0207 38.5849C37.1919 38.8025 36.3229 38.7924 35.5041 38.5646C34.5296 38.2154 33.6154 37.7193 32.7916 37.0866C32.1687 36.6969 31.6011 36.2312 31.1038 35.6997C31.1691 35.4922 31.3348 35.5175 31.4353 35.4264C32.5856 34.4444 33.8464 33.6042 35.1927 32.9209C36.6042 32.1667 38.0459 31.4631 39.5026 30.8051C39.7035 30.7393 39.8843 30.6178 40.025 30.4559C40.1656 30.2939 40.2611 30.1016 40.3063 29.889C40.3716 29.646 40.3565 29.3879 40.2711 29.15C40.1857 28.9121 40.03 28.7096 39.8241 28.5628C39.6131 28.4059 39.3619 28.3148 39.1007 28.2996C38.8395 28.2844 38.5783 28.3401 38.3523 28.4666C36.7047 29.1702 35.0972 29.9598 33.53 30.8254C31.5659 31.9035 29.7525 33.2398 28.135 34.7937C27.1806 35.7554 26.3166 36.8032 25.5531 37.9167C25.4979 37.9977 25.4677 38.1141 25.3622 38.1141C25.307 38.1141 25.2517 38.0129 25.2366 37.9218C24.885 35.8566 24.2069 33.8573 23.2274 32.0047C23.1771 31.9136 23.147 31.8073 23.142 31.7061C23.1319 31.5998 23.142 31.4935 23.1771 31.3923C23.4986 30.1876 23.6845 28.9526 23.7347 27.7074C23.7648 26.8975 23.6995 26.0877 23.5338 25.2879C23.2876 24.0326 22.7049 22.8685 21.846 21.9169C20.5751 20.7426 19.0832 19.8315 17.4607 19.2342C16.4159 18.8242 15.4514 18.2371 14.6075 17.4981C14.4166 17.2703 14.1554 17.1083 13.8641 17.0425C13.5727 16.9767 13.2663 17.0071 12.9951 17.1336C12.7238 17.2703 12.4978 17.4778 12.342 17.7309C12.1813 17.9891 12.0959 18.2826 12.0959 18.5863C12.0155 19.8163 11.9954 21.0513 11.9703 22.2813C11.905 23.1772 11.9452 24.0833 12.0959 24.9691C12.543 27.3075 13.7988 29.4081 15.6423 30.9114C17.0237 32.0503 18.6763 32.8045 20.4395 33.1132C20.5902 33.1284 20.7358 33.1892 20.8564 33.2803C20.977 33.3714 21.0724 33.4929 21.1277 33.6346C22.4136 36.4944 23.1219 39.582 23.2123 42.7152C23.3128 43.7275 23.3529 44.7449 23.3278 45.7623C23.3328 45.9749 23.3981 46.1824 23.5137 46.3595C23.6292 46.5772 23.8 46.7594 24.011 46.891C24.222 47.0226 24.4631 47.0935 24.7092 47.0985C25.3472 46.9973 25.9449 46.5418 25.9298 46.0761C25.9801 45.1903 25.9499 44.3045 25.8445 43.4289C25.7691 43.1505 25.7842 42.8619 25.8796 42.5937C26.2312 41.8648 26.6482 41.1714 27.05 40.4678C27.5875 39.5466 28.2054 38.676 28.8935 37.861C28.994 37.7396 29.0744 37.4359 29.3758 37.7092C30.3302 38.6 31.38 39.3846 32.5052 40.0477C33.4898 40.7057 34.6049 41.1511 35.7754 41.3435C37.4933 41.5004 39.2263 41.1764 40.7735 40.4121C42.9133 39.3492 44.7267 37.7294 46.0227 35.7149C47.4142 33.5536 48.6197 31.2759 49.6294 28.9121C50.1367 27.591 50.9003 26.3863 51.8848 25.374C52.3369 24.9691 52.9648 24.7615 53.2461 24.1592V23.6632C53.1909 23.4404 53.0803 23.2329 52.9296 23.0558C52.7789 22.8786 52.5881 22.7419 52.3771 22.6508C52.1661 22.5597 51.935 22.5243 51.704 22.5344C51.4729 22.5496 51.2519 22.6154 51.051 22.7318ZM20.8313 29.9244C20.761 30.3901 20.5349 30.4913 20.1732 30.3698C18.7667 30.0054 17.5009 29.2411 16.5264 28.168C15.5519 27.0949 14.9089 25.7587 14.6778 24.3212C14.5623 23.7036 14.6477 23.0962 14.5924 22.4889C14.5924 22.0384 14.5975 21.5828 14.5924 21.1323C14.5924 20.8742 14.6176 20.7476 14.924 20.9096C16.2752 21.6284 17.737 22.1447 19.033 22.9646C19.6056 23.3341 20.0828 23.8352 20.4345 24.4224C20.7811 25.0095 20.992 25.6676 21.0423 26.3509C21.1477 27.5454 21.0824 28.7501 20.8413 29.9295" fill="url(#paint0_linear_311_2510)"/>
<defs>
<linearGradient id="paint0_linear_311_2510" x1="11.3625" y1="6.85851" x2="52.1949" y2="52.4941" gradientUnits="userSpaceOnUse">
<stop stop-color="#184487"/>
<stop offset="0.26" stop-color="#1A4385"/>
<stop offset="0.41" stop-color="#224180"/>
<stop offset="0.53" stop-color="#313D78"/>
<stop offset="0.65" stop-color="#45386D"/>
<stop offset="0.75" stop-color="#5F325F"/>
<stop offset="0.84" stop-color="#7F2A4D"/>
<stop offset="0.93" stop-color="#A42138"/>
<stop offset="1" stop-color="#CB1823"/>
</linearGradient>
</defs>
</svg>
