<svg width="464" height="108" viewBox="0 0 464 108" fill="none" xmlns="http://www.w3.org/2000/svg">
<path d="M29.9287 49.6706C31.2271 47.2636 32.9948 45.386 35.252 44.0677C37.5091 42.7493 40.0259 42.0802 42.7924 42.0802C45.5589 42.0802 47.896 42.6694 49.9035 43.8379C51.9109 45.0065 53.409 46.4946 54.3978 48.2823V42.5995H59.6312V73.7901H54.3978V67.9774C53.3691 69.8051 51.851 71.3132 49.8136 72.5017C47.7761 73.6902 45.4191 74.2994 42.7325 74.2994C40.0459 74.2994 37.4592 73.6203 35.222 72.252C32.9749 70.8838 31.2171 68.9662 29.9287 66.4993C28.6403 64.0324 27.9911 61.226 27.9911 58.08C27.9911 54.9339 28.6303 52.0975 29.9287 49.6806V49.6706ZM52.9696 51.9777C52.0208 50.2299 50.7424 48.9015 49.1244 47.9627C47.5165 47.0339 45.7387 46.5645 43.8012 46.5645C41.8636 46.5645 40.1058 47.0239 38.5079 47.9328C36.9199 48.8416 35.6415 50.1799 34.6927 51.9177C33.7439 53.6655 33.2645 55.7129 33.2645 58.06C33.2645 60.407 33.7439 62.5243 34.6927 64.2821C35.6415 66.0399 36.9099 67.3882 38.5079 68.317C40.0959 69.2458 41.8636 69.7152 43.8012 69.7152C45.7387 69.7152 47.5065 69.2458 49.1244 68.317C50.7324 67.3882 52.0208 66.0399 52.9696 64.2821C53.9184 62.5143 54.3978 60.4569 54.3978 58.1099C54.3978 55.7629 53.9184 53.7055 52.9696 51.9677V51.9777Z" fill="white"/>
<path d="M78.6172 43.4984C80.305 42.5096 82.3724 42.0203 84.7894 42.0203V47.3735H83.4211C77.6084 47.3735 74.7121 50.5195 74.7121 56.8216V73.7801H69.5386V42.5895H74.7121V47.6531C75.6209 45.8654 76.9193 44.4871 78.6072 43.4984H78.6172Z" fill="white"/>
<path d="M182.666 45.4659C185.023 47.763 186.191 51.0688 186.191 55.3934V73.7801H181.068V56.1324C181.068 53.0263 180.289 50.6394 178.731 48.9914C177.173 47.3435 175.055 46.5146 172.359 46.5146C169.662 46.5146 167.455 47.3735 165.847 49.0713C164.239 50.7692 163.43 53.266 163.43 56.5319V73.7801H158.256V42.5895H163.43V47.0339C164.459 45.4459 165.847 44.2075 167.605 43.3386C169.362 42.4597 171.31 42.0302 173.437 42.0302C177.232 42.0302 180.309 43.1788 182.656 45.4759L182.666 45.4659Z" fill="white"/>
<path d="M226.67 34.0504V40.4823H216.083V73.7802H208.114V40.4823H197.527V34.0504H226.66H226.67Z" fill="white"/>
<path d="M244.447 43.2088C246.095 42.26 247.983 41.7806 250.11 41.7806V50.15H248.003C245.496 50.15 243.609 50.7393 242.34 51.9178C241.062 53.0863 240.433 55.1437 240.433 58.06V73.7702H232.463V42.24H240.433V47.1338C241.461 45.466 242.8 44.1576 244.447 43.2088Z" fill="white"/>
<path d="M255.324 49.411C256.602 46.9441 258.32 45.0465 260.497 43.7281C262.675 42.3998 265.111 41.7407 267.818 41.7407C270.175 41.7407 272.232 42.2201 273.99 43.1689C275.758 44.1177 277.166 45.3062 278.235 46.7543V42.26H286.255V73.7902H278.235V69.186C277.206 70.6641 275.798 71.8826 273.99 72.8513C272.183 73.8201 270.105 74.2995 267.758 74.2995C265.101 74.2995 262.685 73.6204 260.497 72.2521C258.32 70.8838 256.592 68.9563 255.324 66.4694C254.045 63.9826 253.416 61.1262 253.416 57.9102C253.416 54.6943 254.045 51.8978 255.324 49.4309V49.411ZM277.096 53.0164C276.337 51.6282 275.309 50.5695 274.02 49.8304C272.732 49.0914 271.354 48.7218 269.865 48.7218C268.377 48.7218 267.019 49.0814 265.771 49.8005C264.512 50.5296 263.503 51.5782 262.724 52.9565C261.945 54.3447 261.566 55.9827 261.566 57.8803C261.566 59.7779 261.955 61.4358 262.724 62.864C263.493 64.2922 264.532 65.3808 265.801 66.1398C267.079 66.8989 268.427 67.2784 269.865 67.2784C271.304 67.2784 272.732 66.9089 274.02 66.1698C275.309 65.4307 276.337 64.3621 277.096 62.9838C277.845 61.5956 278.235 59.9377 278.235 58.0001C278.235 56.0626 277.855 54.4047 277.096 53.0164Z" fill="white"/>
<path d="M293.995 49.4509C295.323 47.004 297.161 45.1064 299.518 43.7581C301.875 42.4098 304.562 41.7407 307.598 41.7407C311.503 41.7407 314.739 42.7194 317.305 44.677C319.862 46.6345 321.59 49.371 322.449 52.9066H313.86C313.4 51.5383 312.641 50.4696 311.553 49.6906C310.474 48.9216 309.136 48.5321 307.538 48.5321C305.261 48.5321 303.463 49.361 302.135 51.0089C300.806 52.6569 300.147 55.0039 300.147 58.0401C300.147 61.0762 300.806 63.3633 302.135 65.0113C303.463 66.6592 305.261 67.4881 307.538 67.4881C310.754 67.4881 312.871 66.0499 313.86 63.1636H322.449C321.57 66.5793 319.852 69.2858 317.275 71.3033C314.699 73.3108 311.463 74.3195 307.608 74.3195C304.572 74.3195 301.885 73.6503 299.528 72.302C297.171 70.9537 295.343 69.0561 294.005 66.6192C292.667 64.1823 292.017 61.3159 292.017 58.06C292.017 54.8041 292.677 51.9478 294.005 49.5009L293.995 49.4509Z" fill="white"/>
<path d="M346.978 73.7702L336.271 60.3371V73.7702H328.302V31.6534H336.271V55.6131L346.858 42.24H357.215L343.333 58.06L357.335 73.7702H346.978Z" fill="white"/>
<path d="M366.863 34.4099C369.35 32.3425 372.626 31.3138 376.68 31.3138C379.457 31.3138 381.814 31.7932 383.791 32.762C385.769 33.7308 387.257 35.0391 388.256 36.687C389.255 38.3349 389.764 40.2026 389.764 42.29C389.764 44.6869 389.145 46.7044 387.916 48.3523C386.678 50.0002 385.22 51.1088 383.502 51.6881V51.9078C385.699 52.5869 387.417 53.8054 388.645 55.5432C389.874 57.291 390.493 59.5282 390.493 62.2547C390.493 64.5318 389.974 66.5593 388.925 68.347C387.886 70.1348 386.348 71.523 384.321 72.5217C382.293 73.5305 379.856 74.0298 377 74.0298C372.705 74.0298 369.22 72.9512 366.533 70.7839C363.837 68.6267 362.418 65.4307 362.259 61.226H369.999C370.069 63.0837 370.708 64.5818 371.906 65.6904C373.095 66.809 374.743 67.3683 376.83 67.3683C378.768 67.3683 380.256 66.8289 381.295 65.7503C382.333 64.6717 382.863 63.2734 382.863 61.5756C382.863 59.2985 382.144 57.6705 380.705 56.6818C379.267 55.693 377.03 55.2036 373.994 55.2036H372.346V48.6619H373.994C379.387 48.6619 382.074 46.8542 382.074 43.2587C382.074 41.6308 381.594 40.3524 380.625 39.4435C379.657 38.5347 378.258 38.0753 376.451 38.0753C374.643 38.0753 373.295 38.5547 372.326 39.5234C371.357 40.4922 370.798 41.7107 370.648 43.1888H362.848C363.038 39.3936 364.376 36.4673 366.863 34.3899V34.4199V34.4099ZM416.38 39.054C415.451 38.255 414.113 37.8655 412.365 37.8655C409.749 37.8655 407.821 38.9142 406.583 41.0216C405.344 43.1289 404.715 46.5546 404.675 51.2986C405.584 49.7805 406.912 48.602 408.66 47.7431C410.398 46.8841 412.295 46.4547 414.343 46.4547C416.81 46.4547 418.987 46.984 420.885 48.0427C422.782 49.1013 424.26 50.6494 425.329 52.6768C426.388 54.7043 426.917 57.1412 426.917 59.9976C426.917 62.6842 426.378 65.0911 425.299 67.1885C424.22 69.2858 422.632 70.9437 420.545 72.1123C418.458 73.2808 415.971 73.88 413.084 73.88C409.139 73.88 406.043 73.0011 403.776 71.2633C401.519 69.5255 399.941 67.0886 399.052 63.9426C398.163 60.8165 397.714 56.9514 397.714 52.3672C397.714 45.426 398.902 40.1826 401.299 36.6271C403.696 33.0816 407.462 31.3038 412.625 31.3038C416.61 31.3038 419.696 32.3825 421.903 34.5497C424.101 36.707 425.379 39.4036 425.718 42.6295H418.318C417.938 41.0415 417.289 39.8331 416.35 39.0441H416.37L416.38 39.054ZM407.482 54.7642C406.113 55.9327 405.434 57.6505 405.434 59.8877C405.434 62.1249 406.063 63.8927 407.342 65.181C408.62 66.4694 410.408 67.1186 412.725 67.1186C414.772 67.1186 416.39 66.4994 417.589 65.2409C418.777 63.9925 419.386 62.3047 419.386 60.1773C419.386 58.05 418.807 56.2323 417.659 54.944C416.5 53.6456 414.802 53.0064 412.565 53.0064C410.558 53.0064 408.87 53.5957 407.502 54.7742H407.482V54.7642ZM436.814 37.0566C439.191 33.3413 443.126 31.4836 448.63 31.4836C454.133 31.4836 458.068 33.3413 460.445 37.0566C462.822 40.7819 464 45.9154 464 52.4771C464 59.0388 462.822 64.2622 460.445 68.0075C458.068 71.7727 454.133 73.6403 448.63 73.6403C443.126 73.6403 439.191 71.7627 436.814 68.0075C434.437 64.2422 433.259 59.0687 433.259 52.4771C433.259 45.8854 434.437 40.7719 436.814 37.0566ZM455.601 45.396C455.241 43.4784 454.522 41.9104 453.443 40.702C452.365 39.4935 450.767 38.8743 448.63 38.8743C446.492 38.8743 444.904 39.4835 443.816 40.702C442.737 41.9104 442.008 43.4884 441.658 45.396C441.299 47.3136 441.119 49.6806 441.119 52.4771C441.119 55.2735 441.289 57.7804 441.628 59.7279C441.968 61.6854 442.687 63.2535 443.786 64.4519C444.884 65.6404 446.492 66.2497 448.63 66.2497C450.767 66.2497 452.365 65.6504 453.473 64.4519C454.572 63.2634 455.301 61.6755 455.631 59.7279C455.97 57.7704 456.14 55.3534 456.14 52.4771C456.14 49.6007 455.96 47.3136 455.601 45.396Z" fill="white"/>
<path d="M135.216 74.5891C125.947 74.5891 118.417 67.0486 118.417 57.7903C118.417 48.532 125.957 40.9916 135.216 40.9916C144.474 40.9916 152.014 48.532 152.014 57.7903C152.014 67.0486 144.474 74.5891 135.216 74.5891ZM135.216 45.9753C128.704 45.9753 123.411 51.2686 123.411 57.7804C123.411 64.2921 128.704 69.5854 135.216 69.5854C141.727 69.5854 147.021 64.2921 147.021 57.7804C147.021 51.2686 141.727 45.9753 135.216 45.9753Z" fill="white"/>
<path d="M112.524 60.2073C113.733 61.7254 114.332 63.4432 114.332 65.3608C114.332 66.9987 113.903 68.4769 113.054 69.7952C112.205 71.1135 110.976 72.1422 109.368 72.9013C107.76 73.6603 105.893 74.0398 103.755 74.0398H90.8517V41.7906H103.146C105.343 41.7906 107.231 42.1601 108.809 42.9092C110.387 43.6482 111.575 44.647 112.384 45.9054C113.183 47.1538 113.593 48.562 113.593 50.1001C113.593 51.9577 113.094 53.5058 112.105 54.7442C111.116 55.9826 109.788 56.8915 108.11 57.4808C109.838 57.7904 111.316 58.6992 112.514 60.2173L112.524 60.2073ZM96.145 55.3335H102.687C104.415 55.3335 105.773 54.944 106.752 54.155C107.73 53.366 108.21 52.2274 108.21 50.7393C108.21 49.2512 107.72 48.1525 106.752 47.3236C105.773 46.5046 104.425 46.0951 102.687 46.0951H96.145V55.3335ZM107.521 68.4269C108.539 67.558 109.049 66.3595 109.049 64.8115C109.049 63.2635 108.509 61.9851 107.421 61.0562C106.342 60.1274 104.894 59.668 103.106 59.668H96.145V69.7353H103.296C105.094 69.7353 106.502 69.3058 107.521 68.4369V68.4269Z" fill="white"/>
<path d="M9.57432 60.8765C8.27596 60.8765 7.17735 59.8677 7.08746 58.5494C5.83904 39.853 15.7265 22.0955 32.2756 13.2966C33.4941 12.6474 35.0022 13.1068 35.6514 14.3253C36.3005 15.5438 35.8411 17.0519 34.6227 17.701C19.8114 25.5711 10.9626 41.471 12.0811 58.2098C12.171 59.5881 11.1323 60.7766 9.75409 60.8665C9.69416 60.8665 9.64423 60.8665 9.5843 60.8665L9.57432 60.8765Z" fill="white"/>
<path d="M54.6574 103.123C36.5903 103.123 19.8115 92.806 11.7916 76.2869C11.1924 75.0485 11.7117 73.5504 12.9501 72.9511C14.1886 72.3519 15.6867 72.8712 16.2859 74.1097C24.156 90.3292 41.4841 99.8771 59.4014 97.8696C60.7797 97.7099 62.0081 98.6986 62.1579 100.077C62.3078 101.455 61.329 102.684 59.9507 102.833C58.183 103.033 56.4052 103.133 54.6574 103.133V103.123Z" fill="white"/>
<path d="M72.3451 99.5376C71.3763 99.5376 70.4474 98.9683 70.048 98.0095C69.5086 96.7411 70.1079 95.273 71.3763 94.7337C77.6483 92.077 83.2712 87.8923 87.6158 82.629C88.4946 81.5703 90.0627 81.4205 91.1313 82.2894C92.2 83.1583 92.3498 84.7363 91.4709 85.805C86.607 91.6875 80.335 96.3716 73.3238 99.3279C73.0042 99.4577 72.6746 99.5276 72.355 99.5276L72.3451 99.5376Z" fill="white"/>
<path d="M89.7331 29.3363C89.004 29.3363 88.2949 29.0267 87.7956 28.4175C79.506 18.2603 66.7721 12.3977 53.6887 12.7073C52.3004 12.7872 51.1619 11.6486 51.1319 10.2704C51.1019 8.89213 52.1905 7.74358 53.5688 7.71362C68.1604 7.37405 82.4024 13.9158 91.6607 25.2614C92.5296 26.3301 92.3698 27.8981 91.3011 28.777C90.8417 29.1565 90.2824 29.3363 89.7231 29.3363H89.7331Z" fill="white"/>
<path d="M43.4415 25.6909C37.7587 25.6909 32.5453 21.8857 31.0272 16.133C29.2195 9.29165 33.3143 2.25055 40.1557 0.432843C43.4715 -0.446046 46.9271 0.0233604 49.8934 1.75118C52.8596 3.47899 54.977 6.25548 55.8459 9.57129C56.7248 12.8871 56.2553 16.3427 54.5275 19.309C52.7997 22.2752 50.0232 24.3926 46.7074 25.2615C45.6088 25.5511 44.5102 25.6909 43.4316 25.6909H43.4415ZM43.4515 4.99707C42.7824 4.99707 42.1032 5.08696 41.4341 5.25675C37.2494 6.36535 34.7425 10.6699 35.8511 14.8446C36.9597 19.0293 41.2643 21.5362 45.439 20.4276C47.4665 19.8883 49.1643 18.5999 50.213 16.7822C51.2716 14.9745 51.5513 12.8571 51.012 10.8297C50.4727 8.80227 49.1843 7.10441 47.3666 6.05574C46.1481 5.34663 44.7998 4.98709 43.4316 4.98709L43.4515 4.99707Z" fill="white"/>
<path d="M10.9726 77.9549C9.05501 77.9549 7.16739 77.4455 5.45955 76.4568C2.92276 74.9786 1.11504 72.6016 0.365989 69.7652C-1.18205 63.9026 2.32351 57.8802 8.1861 56.3322C14.0387 54.7842 20.0711 58.2897 21.6191 64.1523C23.1672 70.0149 19.6616 76.0373 13.799 77.5853C12.8602 77.835 11.9114 77.9549 10.9726 77.9549ZM10.9926 60.9663C10.4832 60.9663 9.97385 61.0263 9.46449 61.1661C6.26853 62.015 4.35095 65.3009 5.19988 68.4968C5.60936 70.0449 6.59811 71.3432 7.98636 72.1422C9.3746 72.9512 10.9826 73.1609 12.5306 72.7614C15.7266 71.9125 17.6442 68.6267 16.7952 65.4307C16.0861 62.7441 13.6492 60.9663 10.9926 60.9663Z" fill="white"/>
<path d="M66.2328 107.897C64.7047 107.897 63.1866 107.498 61.8283 106.699C59.8009 105.52 58.3527 103.622 57.7535 101.355C56.515 96.6712 59.3215 91.8573 63.9956 90.6189C68.6797 89.3805 73.4936 92.1869 74.732 96.861C75.3313 99.1281 75.0117 101.495 73.8331 103.523C72.6546 105.55 70.757 106.998 68.4899 107.597C67.7409 107.797 66.9818 107.897 66.2328 107.897ZM66.2427 95.3229C65.9231 95.3229 65.6036 95.3629 65.274 95.4528C63.2565 95.9821 62.048 98.0595 62.5774 100.087C63.1067 102.104 65.1841 103.313 67.2115 102.784C68.1903 102.524 69.0092 101.905 69.5186 101.026C70.028 100.147 70.1678 99.1281 69.9081 98.1494C69.4587 96.4515 67.9206 95.3329 66.2427 95.3329V95.3229Z" fill="white"/>
</svg>
