<svg width="192" height="42" viewBox="0 0 192 42" fill="none" xmlns="http://www.w3.org/2000/svg">
<path d="M48.3564 0.561401H55.7889V7.64233H48.3564V0.561401ZM48.3564 11.3264H55.7889V41.2623H48.3564V11.3264Z" fill="#184487"/>
<path d="M79.2346 10.7506C80.7016 10.7297 82.1567 11.0159 83.5063 11.591C84.8559 12.1661 86.0699 13.0172 87.0704 14.0896C89.317 16.3356 90.4118 19.6156 90.4118 23.9896V41.2606H82.9804V24.4506C82.9804 19.6146 80.2153 17.2506 76.5276 17.2506C75.5752 17.232 74.6298 17.4178 73.7553 17.7952C72.8808 18.1727 72.0974 18.733 71.4579 19.4386C70.2856 20.5297 69.5317 21.9959 69.3263 23.5836V41.2576H61.8918V11.3216H69.3243V17.1936C70.0028 15.5135 71.1406 14.0581 72.6077 12.9936C74.4711 11.4672 76.8265 10.6699 79.2346 10.7506Z" fill="#184487"/>
<path d="M110.228 10.7528C114.087 10.816 117.784 12.3134 120.597 14.9529C123.766 17.7159 125.437 22.7819 124.688 28.9999H102.278C103.2 33.1999 106.599 35.5629 110.977 35.5629C113.755 35.6942 116.496 34.8836 118.755 33.2628L122.845 37.2358C119.964 40.2868 115.932 41.8418 110.747 41.8418C106.686 41.8645 102.755 40.4121 99.686 37.7549C96.5177 34.9919 94.9045 31.1919 94.9045 26.3549C94.8706 24.321 95.2417 22.3008 95.9962 20.4116C96.7507 18.5224 97.8735 16.8018 99.2993 15.3501C100.725 13.8983 102.425 12.7443 104.302 11.9551C106.178 11.1659 108.192 10.7572 110.228 10.7528ZM110.228 17.0858C108.367 17.1038 106.568 17.7589 105.132 18.9418C103.695 20.1246 102.708 21.7637 102.335 23.5858H118.063C117.775 21.7339 116.819 20.0509 115.376 18.8536C113.933 17.6563 112.102 17.0282 110.228 17.0858Z" fill="#184487"/>
<path d="M143.759 10.7528C149.577 10.7528 153.841 13.1709 156.549 17.9529L150.902 20.6018C150.044 19.5585 148.961 18.7217 147.734 18.1536C146.508 17.5854 145.169 17.3004 143.817 17.3198C141.597 17.3125 139.464 18.1815 137.883 19.7378C137.022 20.6039 136.352 21.6401 135.915 22.7802C135.479 23.9202 135.286 25.1388 135.348 26.3578C135.286 27.5071 135.46 28.6569 135.857 29.7371C136.255 30.8172 136.869 31.805 137.662 32.6401C138.454 33.4753 139.409 34.1403 140.467 34.5945C141.525 35.0487 142.665 35.2826 143.817 35.2819C145.163 35.2991 146.496 35.0191 147.721 34.4618C148.945 33.9045 150.032 33.0836 150.902 32.0579L156.664 34.7058C153.841 39.4848 149.519 41.8448 143.754 41.8448C139.972 41.7615 136.324 40.4248 133.384 38.0448C131.735 36.5705 130.416 34.765 129.512 32.7463C128.609 30.7276 128.142 28.5412 128.142 26.3298C128.142 24.1185 128.609 21.932 129.512 19.9133C130.416 17.8946 131.735 16.0892 133.384 14.6149C136.32 12.2166 139.969 10.8583 143.759 10.7528Z" fill="#184487"/>
<path d="M170.316 11.7889C173.754 10.4074 177.593 10.4074 181.031 11.7889C182.955 12.4098 184.731 13.4203 186.248 14.7575C187.764 16.0947 188.988 17.7298 189.844 19.5609C190.84 21.6872 191.356 24.0062 191.356 26.3538C191.356 28.7015 190.84 31.0206 189.844 33.1469C188.078 36.5795 185.123 39.254 181.531 40.6729C177.939 42.0919 173.953 42.1587 170.315 40.8609C168.398 40.227 166.627 39.2185 165.103 37.8942C163.58 36.5699 162.336 34.9562 161.442 33.1469C160.502 31.0054 160.017 28.6923 160.017 26.3538C160.017 24.0154 160.502 21.7023 161.442 19.5609C162.325 17.7376 163.566 16.1102 165.09 14.7751C166.614 13.44 168.391 12.4245 170.316 11.7889ZM167.205 26.3538C167.285 27.7363 167.701 29.0784 168.419 30.2634C169.136 31.4484 170.132 32.4406 171.32 33.1536C172.508 33.8667 173.852 34.279 175.236 34.3549C176.62 34.4309 178.001 34.168 179.26 33.5893C180.519 33.0106 181.618 32.1334 182.46 31.034C183.303 29.9346 183.864 28.6463 184.096 27.2808C184.327 25.9154 184.221 24.5143 183.787 23.199C183.353 21.8838 182.605 20.6943 181.606 19.7338C180.02 18.184 177.89 17.3162 175.672 17.3162C173.454 17.3162 171.324 18.184 169.738 19.7338C168.878 20.6 168.208 21.6363 167.772 22.7763C167.335 23.9163 167.142 25.1349 167.205 26.3538Z" fill="#184487"/>
<path d="M34.1264 0.155151H28.2981V41.4142H34.1264V0.155151Z" fill="url(#paint0_linear_1_1508)"/>
<path d="M16.3186 0.155151V41.4142H25.7075V0.155151H16.3186Z" fill="url(#paint1_linear_1_1508)"/>
<path d="M0 3.60919V37.9601C0.00290419 38.8755 0.368145 39.7524 1.01596 40.3996C1.66378 41.0467 2.54153 41.4115 3.45755 41.4141H13.7261V0.15509H3.45254C2.53731 0.158783 1.66069 0.524016 1.0139 1.17108C0.367107 1.81815 0.00263467 2.69464 0 3.60919Z" fill="url(#paint2_linear_1_1508)"/>
<path d="M36.7205 0.155151V41.4142H37.8323C38.7482 41.4115 39.6258 41.0468 40.2735 40.3997C40.9212 39.7525 41.2862 38.8755 41.2888 37.9602V0.155151H36.7205Z" fill="url(#paint3_linear_1_1508)"/>
<defs>
<linearGradient id="paint0_linear_1_1508" x1="2.61281" y1="-8.13791" x2="41.2777" y2="-7.35777" gradientUnits="userSpaceOnUse">
<stop stop-color="#184487"/>
<stop offset="0.184" stop-color="#1B4385"/>
<stop offset="0.334" stop-color="#25407F"/>
<stop offset="0.474" stop-color="#363C75"/>
<stop offset="0.606" stop-color="#4E3668"/>
<stop offset="0.733" stop-color="#6E2E56"/>
<stop offset="0.857" stop-color="#942541"/>
<stop offset="0.976" stop-color="#C01A28"/>
<stop offset="1" stop-color="#CB1823"/>
</linearGradient>
<linearGradient id="paint1_linear_1_1508" x1="-2.55312" y1="-3.06305" x2="37.261" y2="-0.976399" gradientUnits="userSpaceOnUse">
<stop stop-color="#184487"/>
<stop offset="0.184" stop-color="#1B4385"/>
<stop offset="0.334" stop-color="#25407F"/>
<stop offset="0.474" stop-color="#363C75"/>
<stop offset="0.606" stop-color="#4E3668"/>
<stop offset="0.733" stop-color="#6E2E56"/>
<stop offset="0.857" stop-color="#942541"/>
<stop offset="0.976" stop-color="#C01A28"/>
<stop offset="1" stop-color="#CB1823"/>
</linearGradient>
<linearGradient id="paint2_linear_1_1508" x1="-9.19649" y1="3.49707" x2="32.4778" y2="8.16703" gradientUnits="userSpaceOnUse">
<stop stop-color="#184487"/>
<stop offset="0.184" stop-color="#1B4385"/>
<stop offset="0.334" stop-color="#25407F"/>
<stop offset="0.474" stop-color="#363C75"/>
<stop offset="0.606" stop-color="#4E3668"/>
<stop offset="0.733" stop-color="#6E2E56"/>
<stop offset="0.857" stop-color="#942541"/>
<stop offset="0.976" stop-color="#C01A28"/>
<stop offset="1" stop-color="#CB1823"/>
</linearGradient>
<linearGradient id="paint3_linear_1_1508" x1="6.5601" y1="-12.0575" x2="44.9341" y2="-11.5813" gradientUnits="userSpaceOnUse">
<stop stop-color="#184487"/>
<stop offset="0.184" stop-color="#1B4385"/>
<stop offset="0.334" stop-color="#25407F"/>
<stop offset="0.474" stop-color="#363C75"/>
<stop offset="0.606" stop-color="#4E3668"/>
<stop offset="0.733" stop-color="#6E2E56"/>
<stop offset="0.857" stop-color="#942541"/>
<stop offset="0.976" stop-color="#C01A28"/>
<stop offset="1" stop-color="#CB1823"/>
</linearGradient>
</defs>
</svg>
