<svg width="106" height="100" viewBox="0 0 106 100" fill="none" xmlns="http://www.w3.org/2000/svg">
<path fill-rule="evenodd" clip-rule="evenodd" d="M66.9543 61.9912C66.7692 61.4749 66.6888 60.9248 66.718 60.3751C66.68 60.2278 66.7374 60.1692 66.8758 60.2049L67.595 60.1914C68.1049 60.1814 68.6158 60.1714 69.1261 60.167C70.5131 60.1563 71.142 59.5306 71.1558 58.1006C71.1617 57.5018 71.1612 56.903 71.1608 56.3042C71.1603 55.6323 71.1598 54.9605 71.1682 54.2886C71.1738 53.8246 71.1876 53.3741 71.86 53.3627C72.4875 53.3519 72.9316 53.5329 73.0699 54.1921C73.1085 54.507 73.1191 54.8248 73.1018 55.1417C73.1255 56.0578 73.1199 56.9739 73.1143 57.8902C73.1057 59.3002 73.097 60.7112 73.1952 62.1227C73.3086 63.7601 75.2214 65.5685 77.0649 65.6979C78.0783 65.7036 79.0639 65.3558 79.8623 64.7108C80.6607 64.0657 81.2252 63.1612 81.4647 62.1434C81.6106 60.3648 81.6686 58.5796 81.6383 56.7949L81.6429 56.6875C81.6625 56.196 81.682 55.7065 82.3757 55.7152C83.0696 55.7245 83.3228 56.1485 83.3228 56.8099C83.3228 57.0653 83.3205 57.3207 83.3182 57.5761C83.312 58.2749 83.3057 58.9743 83.3463 59.6701C83.4079 60.7233 83.971 61.1888 84.9893 61.236C85.3539 61.2059 85.7138 61.1315 86.0615 61.0144C87.6895 60.7378 89.1839 59.9145 90.3136 58.6717C91.4434 57.4289 92.1453 55.8359 92.311 54.1392C92.4208 53.1314 92.4147 52.1254 92.4087 51.12C92.4047 50.4721 92.4008 49.8238 92.4279 49.1761C92.4303 49.1187 92.4297 49.0621 92.4292 49.0063C92.4264 48.7182 92.4238 48.4534 92.8243 48.2294C93.6788 47.7841 94.3815 47.0802 94.8389 46.2114C95.2962 45.3427 95.4863 44.3504 95.3839 43.3671C95.321 41.8676 96.0231 41.0853 97.4482 40.883C98.5765 40.7228 99.0538 40.1901 99.0607 39.046C99.0835 34.9688 96.3552 31.3893 92.0565 31.1605C89.338 31.0156 86.6089 31.0627 83.8831 31.1098L82.7382 31.129C82.2561 31.129 81.7794 31.2342 81.3393 31.4376C80.8992 31.641 80.5056 31.9382 80.1842 32.3096C79.4672 33.0378 79.0342 34.013 78.9673 35.0496C78.9307 35.8798 78.6678 36.6163 77.6467 36.6449C76.6257 36.6735 76.4354 36.0643 76.2798 35.1347C75.8537 32.5942 74.7856 31.2763 72.0385 31.1026C70.5373 31.0277 69.0334 31.0346 67.533 31.1233C66.3245 31.1738 65.181 31.702 64.3384 32.5989C63.4959 33.4957 63.0186 34.6927 63.0053 35.9427C62.999 36.6699 62.7286 36.7143 62.1751 36.7064C60.2631 36.6792 58.3503 36.6857 56.4375 36.6992C54.3913 36.7143 52.7504 37.6167 51.9942 39.568C51.9136 39.9302 51.7036 40.2476 51.4063 40.4566C51.109 40.6657 50.7463 40.7511 50.3907 40.6956C48.2932 40.7686 46.4891 41.4865 45.4936 43.6023C44.8624 44.9868 44.7435 46.5624 45.1595 48.0313C45.7669 50.4939 48.1888 52.5775 50.5803 52.5525C52.3143 52.5341 54.0494 52.5489 55.7834 52.5637C56.541 52.5702 57.3007 52.5767 58.0577 52.5804L58.2459 52.7498C58.4526 54.1801 58.947 55.5514 59.6951 56.7734C59.5119 56.7734 59.3411 56.7698 59.179 56.7663C58.8405 56.759 58.5399 56.7525 58.2424 56.782C57.6717 56.8392 57.4496 56.7291 57.4067 56.0248C57.3403 54.9443 55.8447 53.4806 54.8395 53.3834C50.922 53.0051 47.7467 54.373 45.5005 57.7774C43.902 60.2748 43.3247 63.3247 43.8949 66.2607C44.2129 68.2356 45.1415 70.0508 46.5416 71.4343C47.9416 72.8178 49.7378 73.695 51.6608 73.9345C54.1505 74.1683 54.3076 74.4007 54.3159 77.0464C54.3235 79.4818 54.3318 81.918 54.3684 84.3541C54.4058 86.801 56.928 88.7052 58.8795 88.7767C61.1828 88.8696 63.4386 88.0826 65.2163 86.5659C66.9939 85.0492 68.1691 82.9089 68.5174 80.5537C68.7301 78.35 68.7866 76.1332 68.6861 73.9209C68.6778 73.2774 68.9075 73.0815 69.4609 72.8484C72.1492 71.7086 74.1775 69.1301 73.842 65.6979C73.8371 65.549 73.8036 65.4027 73.7433 65.2674C73.683 65.1321 73.5972 65.0106 73.4908 64.91C73.3845 64.8095 73.2599 64.7318 73.1242 64.6817C72.9884 64.6316 72.8444 64.61 72.7005 64.6182C72.3254 64.6048 71.9497 64.6081 71.5738 64.6114C71.2663 64.6141 70.9583 64.6168 70.6508 64.6103C70.1182 64.618 69.5898 64.5124 69.0983 64.3001C68.6069 64.0877 68.163 63.7732 67.7941 63.376C67.4253 62.9788 67.1394 62.5074 66.9543 61.9912ZM68.0668 55.7853C68.0631 56.1112 68.0594 56.437 68.0539 56.7627L67.8955 56.9515C66.178 57.0502 64.5014 57.1337 63.0717 55.7752C62.2114 55.0252 61.617 54.0006 61.3824 52.8628C61.2128 52.1556 61.1227 51.4305 61.1139 50.702C61.1499 49.9233 60.3903 49.3799 59.3845 49.3756C58.0513 49.37 56.7183 49.3712 55.3854 49.3724C53.9857 49.3737 52.5858 49.375 51.1862 49.3684C50.7431 49.3989 50.299 49.3272 49.886 49.1585C49.473 48.9899 49.1014 48.7284 48.7981 48.3931C48.4949 48.0578 48.2675 47.657 48.1324 47.2197C47.9974 46.7825 47.958 46.3196 48.0172 45.8647C48.0327 45.3832 48.2235 44.9256 48.5515 44.5834C48.8795 44.2412 49.3205 44.0396 49.7861 44.0192C50.3242 43.9923 50.8636 43.9941 51.4029 43.9958C51.8542 43.9973 52.306 43.9987 52.7566 43.9834C54.0723 43.9369 54.5677 43.3942 54.5773 42.0528C54.5898 40.5541 55.2179 39.8819 56.6651 39.8755C57.9456 39.8696 59.2271 39.8707 60.5082 39.8718C61.7203 39.8729 62.9359 39.8739 64.146 39.8691C65.4853 39.864 66.1058 39.2698 66.0463 37.9112C65.8865 34.2531 66.7609 34.1587 69.5744 34.2531C69.9879 34.267 70.4018 34.2633 70.8157 34.2596C71.1877 34.2562 71.5596 34.2529 71.9313 34.2624C72.1098 34.2449 72.2898 34.2689 72.4582 34.3327C72.6266 34.3964 72.7791 34.4983 72.9045 34.6308C73.0299 34.7633 73.125 34.9231 73.183 35.0985C73.241 35.2739 73.2602 35.4605 73.2394 35.6446C73.301 37.6975 75.0899 39.7203 76.8885 39.8147C79.6854 39.9613 81.4474 38.652 81.8431 36.1322C82.135 34.2724 82.1509 34.2581 84.0415 34.2581C84.7849 34.2585 85.5283 34.2552 86.2717 34.252C88.09 34.244 89.9111 34.236 91.7272 34.2817C92.5717 34.2859 93.396 34.5495 94.0953 35.039C94.7946 35.5286 95.3373 36.2219 95.6544 37.031C95.9311 37.631 95.8813 37.9213 95.1895 38.2466C94.3349 38.6483 93.6091 39.294 93.0975 40.1076C92.5858 40.9212 92.3096 41.869 92.3013 42.8393C92.2881 43.0107 92.2952 43.1843 92.3023 43.3576C92.3112 43.5748 92.3201 43.7915 92.2889 44.0027C92.1713 44.8036 91.8455 45.4292 90.9462 45.5458C89.6795 45.7088 89.3959 46.0742 89.3502 47.4485C89.324 48.2379 89.3386 49.0277 89.3532 49.8174C89.3782 51.176 89.4033 52.5345 89.2209 53.8911C89.118 54.7163 88.8086 55.4995 88.3233 56.1634C87.8381 56.8272 87.1936 57.3488 86.4538 57.6765C86.3365 57.291 86.3303 56.9107 86.3241 56.5366C86.3179 56.1517 86.3117 55.7733 86.1847 55.4027C85.8761 54.4666 85.2626 53.6703 84.449 53.1498C83.6355 52.6293 82.6723 52.4169 81.7241 52.5489C80.8128 52.7091 79.9891 53.2066 79.4068 53.9486C78.8245 54.6906 78.5235 55.6264 78.5599 56.5811C78.5928 57.9564 78.5775 59.3337 78.5622 60.7098L78.5599 60.9236C78.5481 61.9818 78.0922 62.4988 77.213 62.4824C76.2314 62.4602 76.2016 61.6751 76.1905 60.9808C76.171 59.7521 76.1739 58.5234 76.1768 57.2948C76.1788 56.4768 76.1807 55.6551 76.176 54.8371C76.1573 51.648 74.2058 49.8468 71.1662 50.2043C70.3801 50.37 69.6636 50.7849 69.1163 51.3913C68.569 51.9976 68.2182 52.7651 68.1127 53.5872C68.0835 54.3189 68.0751 55.0527 68.0668 55.7853ZM57.4161 81.0542C57.4152 80.5979 57.4143 80.1343 57.4143 79.6599L57.4095 79.6649C57.3374 78.9972 57.3567 78.3116 57.3761 77.6175C57.4087 76.4592 57.4418 75.2772 57.0525 74.1147C56.7791 73.2264 56.2469 72.4472 55.5287 71.8834C54.8105 71.3196 53.9414 70.9988 53.0402 70.9649C49.461 70.8162 46.8011 68.2978 46.7693 64.3865C46.6899 63.0137 46.9638 61.6436 47.5629 60.4156C48.1621 59.1877 49.0652 58.1456 50.1804 57.3955C51.3302 56.6713 52.6845 56.3739 54.0198 56.5525C54.3954 56.5754 54.4623 56.8558 54.5182 57.0904L54.5347 57.1579L54.5448 57.196C54.5973 57.5442 54.6075 57.8978 54.5753 58.2486C54.5995 59.5571 55.0125 60.0383 56.2701 60.0576C58.4561 60.0905 60.6435 60.0955 62.8289 60.0526C63.4681 60.0405 63.6216 60.2242 63.6113 60.8728C63.5615 64.0219 66.2711 67.1187 69.3274 67.5863C69.6726 67.6393 70.2219 67.7251 70.2911 67.9331C70.4112 68.2894 70.0931 68.6075 69.8158 68.8848L69.7439 68.9571C69.0803 69.6466 68.193 70.0575 67.2535 70.1105C66.0083 70.192 65.6451 70.5416 65.6354 71.8423C65.6299 72.74 65.6335 73.6378 65.637 74.5355C65.6424 75.8981 65.6478 77.2606 65.6216 78.6224C65.5614 81.6963 64.3051 84.0274 61.4363 85.1593C60.4139 85.5626 59.3167 85.993 58.194 85.2465C57.9338 85.0869 57.7226 84.8545 57.5847 84.5762C57.4468 84.2979 57.3877 83.9849 57.4143 83.6734C57.4194 82.8098 57.4177 81.9458 57.4161 81.0542Z" fill="url(#paint0_linear_20_867)"/>
<path fill-rule="evenodd" clip-rule="evenodd" d="M22.1874 84.5773C22.1874 83.982 22.1865 83.3867 22.1855 82.7914C22.1829 81.162 22.1804 79.5325 22.1971 77.9038C22.2026 77.361 22.1203 77.1558 21.5053 77.0879C20.2024 76.9084 18.965 76.3896 17.9093 75.5802C16.8536 74.7708 16.0142 73.6974 15.4698 72.4608C14.9255 71.2241 14.6941 69.8648 14.7974 68.5104C14.9007 67.1559 15.3353 65.8508 16.0603 64.7176C16.4063 64.1572 16.1033 64.076 15.7439 63.9796L15.6965 63.9668C12.03 62.9715 9.66969 60.5046 8.32072 56.9286C7.72573 55.3513 7.79028 53.6831 7.85404 52.0357L7.86 51.8811C7.85047 51.7143 7.87432 51.5473 7.93006 51.3904C7.9858 51.2335 8.07224 51.0902 8.18396 50.9695C8.29568 50.8487 8.4303 50.753 8.5794 50.6884C8.72851 50.6238 8.88889 50.5917 9.05055 50.594C9.77193 50.5688 10.4939 50.5536 11.2157 50.5384C11.6184 50.5299 12.0239 50.5213 12.4264 50.5111C13.3112 50.4882 14.0867 49.9047 13.9732 49.2398C13.9503 49.0491 13.891 48.8651 13.7988 48.6983C13.7066 48.5315 13.5833 48.3853 13.436 48.2681C13.2887 48.1509 13.1204 48.0651 12.9408 48.0156C12.7612 47.9661 12.5739 47.954 12.3898 47.9798C12.1246 47.9786 11.8589 47.985 11.5934 47.9914C10.3432 48.0215 9.09592 48.0516 7.9188 47.282C7.11046 46.7952 6.44632 46.0891 5.99828 45.2402C5.55023 44.3914 5.33535 43.432 5.37688 42.4659C5.41842 41.4999 5.7148 40.564 6.23393 39.7596C6.75306 38.9551 7.47517 38.3127 8.32211 37.902C9.12263 37.5883 9.96022 37.3871 10.8125 37.3035C11.4607 37.218 12.0567 36.8918 12.4894 36.3857C12.9221 35.8796 13.1621 35.2281 13.1645 34.5527C13.1742 34.3411 13.171 34.1292 13.1678 33.9174C13.1662 33.8115 13.1645 33.7053 13.1645 33.5996C13.1805 32.4777 13.5845 31.9771 14.6588 31.955C16.742 31.913 18.8256 31.9099 20.9097 31.9457C21.9473 31.9621 22.3728 32.4641 22.3894 33.5002C22.4111 33.7103 22.388 33.9228 22.3217 34.1226C22.2555 34.3225 22.1476 34.505 22.0057 34.6571C21.8639 34.8093 21.6915 34.9274 21.5007 35.0033C21.3099 35.0791 21.1053 35.1108 20.9014 35.0962C19.6735 35.1441 18.4414 35.1362 17.2128 35.0962C16.4706 35.0733 16.0901 35.1677 15.9877 36.1351C15.7933 37.9685 13.5028 40.1572 11.7063 40.4461C11.1519 40.5714 10.5893 40.6548 10.0232 40.6957C9.59166 40.7658 9.19767 40.9903 8.91002 41.3301C8.62237 41.6699 8.45934 42.1034 8.44939 42.5548C8.42092 43.0212 8.54359 43.484 8.79803 43.8703C9.05246 44.2566 9.42416 44.5442 9.85439 44.6878C10.6627 44.8368 11.4864 44.8764 12.3047 44.8058C13.4699 44.7387 14.6152 45.1392 15.5017 45.9237C16.3882 46.7083 16.9474 47.8163 17.0627 49.0167C17.3014 50.7957 15.5795 53.1246 13.6972 53.6022C13.0503 53.7877 12.3765 53.8519 11.7077 53.7917C10.9951 53.7074 10.7703 54.032 10.9163 54.6698C11.5326 57.3569 12.8982 59.4606 15.4294 60.5754C16.6708 61.1221 17.9745 61.0942 19.2771 61.0663C19.7326 61.0565 20.188 61.0468 20.6406 61.0616C21.0716 61.0759 21.0643 60.7954 21.0573 60.5236C21.0562 60.4826 21.0552 60.4419 21.0556 60.4023C21.0577 59.8082 21.0574 59.2141 21.057 58.6199C21.0565 57.8375 21.0561 57.0532 21.0612 56.2708C21.0723 54.5425 21.5067 54.0377 23.1912 54.0291C25.9389 54.0155 29.3418 50.9015 29.1591 47.5758C29.1475 47.3641 29.1475 47.1519 29.1591 46.9402C29.2435 45.3992 29.8004 44.8394 31.2863 44.8158C31.5915 44.811 31.8969 44.8142 32.2023 44.8173C32.6831 44.8223 33.1638 44.8273 33.6432 44.8015C34.5386 44.8121 35.4166 44.5454 36.164 44.0356C36.9114 43.5258 37.494 42.7964 37.8368 41.9413C38.17 41.2103 38.3187 40.4039 38.269 39.5975C38.2192 38.791 37.9726 38.0107 37.5523 37.3293C37.1319 36.648 36.5514 36.0878 35.8649 35.7011C35.1785 35.3143 34.4084 35.1136 33.6266 35.1176C31.4406 35.0957 29.2544 35.0916 27.0679 35.1054C26.7143 35.1112 26.3695 34.9913 26.0912 34.7659C25.8128 34.5405 25.6177 34.2232 25.5384 33.867C25.3001 33.2171 25.6635 32.7857 26.0283 32.3528L26.1374 32.2224C26.2463 32.1112 26.3794 32.0288 26.5256 31.9821C26.6718 31.9355 26.8267 31.9259 26.9773 31.9542C27.8656 31.9755 28.7548 31.9543 29.644 31.9332C31.5054 31.8888 33.3667 31.8445 35.2191 32.1895C36.847 32.5395 38.3198 33.4292 39.4139 34.7234C40.5079 36.0176 41.1633 37.6456 41.2804 39.36C41.4067 41.2299 40.9014 43.0871 39.8508 44.615C38.8002 46.1428 37.2693 47.2467 35.5193 47.7382C34.7805 47.95 34.0177 48.0592 33.251 48.0628C32.5654 48.0735 32.3185 48.1522 32.1511 49.0074C31.3472 53.1067 28.8575 55.7331 25.0258 56.9537C24.2842 57.1896 24.0199 57.4928 24.1265 58.2314C24.1347 58.3724 24.1361 58.5137 24.1306 58.6548C24.1435 58.9191 24.115 59.2035 24.0867 59.4865C24.0285 60.0677 23.9709 60.6428 24.2738 61.0251C24.5457 61.3681 25.0302 61.311 25.5326 61.2518C25.8356 61.2161 26.1451 61.1796 26.4183 61.2296C28.123 61.4762 29.7184 62.2406 31.002 63.426C32.2857 64.6114 33.1997 66.1642 33.628 67.8874C33.6777 68.1776 33.8116 68.4453 34.0121 68.6549C34.2125 68.8645 34.4699 69.0061 34.7501 69.0608C35.7588 69.3236 36.6765 69.8721 37.4001 70.6445C38.1237 71.417 38.6245 72.3828 38.8461 73.4333C39.0905 74.3314 39.1365 75.2749 38.9807 76.1939C38.825 77.1129 38.4714 77.9839 37.9461 78.7427C37.4209 79.5015 36.7373 80.1285 35.9461 80.5775C35.1549 81.0265 34.2761 81.286 33.3748 81.3367C32.6782 81.3946 32.6139 81.7457 32.6381 82.2984C32.7239 84.3549 32.7073 86.4092 31.5963 88.2262C29.7707 91.2115 27.2228 92.9791 23.71 93.0077C23.5104 93.017 23.3111 92.9837 23.1245 92.9098C22.9379 92.8359 22.7681 92.723 22.6257 92.5781C22.4832 92.4333 22.3712 92.2597 22.2966 92.0681C22.2221 91.8765 22.1865 91.6711 22.1922 91.4646C22.1838 89.8167 22.1853 88.1688 22.1869 86.5208L22.1874 84.5773ZM29.6454 84.3485C29.2755 87.0253 27.7705 88.6518 25.2658 89.653V76.3185C25.2651 74.6274 24.8072 74.1669 23.1995 74.1412C20.9242 74.1047 19.1346 73.1573 18.1882 70.9485C17.1817 68.5982 18.467 65.1374 21.0764 64.571C23.6747 64.0069 26.2225 63.8789 28.5358 65.4791C29.2145 65.9287 29.7765 66.5428 30.1731 67.2681C30.5696 67.9934 30.7886 68.8079 30.8111 69.6407C30.8879 71.1044 31.4413 72.0547 33.1707 72.034C33.5303 72.0105 33.8907 72.0647 34.2289 72.1932C34.567 72.3217 34.8756 72.5216 35.1348 72.7802C35.3941 73.0388 35.5983 73.3505 35.7346 73.6952C35.8708 74.04 35.936 74.4103 35.9261 74.7826C35.9406 76.7054 34.7798 78.1097 33.1659 78.1812C32.426 78.1256 31.6822 78.1667 30.9522 78.3035C30.5885 78.3634 30.2609 78.5651 30.0365 78.8669C29.8121 79.1688 29.7081 79.548 29.7458 79.9266C29.8076 81.4013 29.7741 82.8785 29.6454 84.3485Z" fill="url(#paint1_linear_20_867)"/>
<path d="M89.0193 90.6287C89.2803 90.6265 89.5412 90.6243 89.8021 90.6243C90.9457 90.6855 92.0938 90.6312 93.2278 90.4663C94.7577 90.1647 96.1748 89.4248 97.3176 88.3309C98.4604 87.2371 99.2828 85.8333 99.691 84.2797C99.9667 83.2631 99.9313 82.2259 99.8959 81.1896C99.8812 80.7565 99.8664 80.3235 99.8744 79.8922C99.9387 76.4321 97.2947 73.0278 94.4439 71.8122C92.3652 70.9263 90.1923 70.9453 88.0177 70.9644L87.6071 70.9677C87.3902 70.9463 87.1715 70.9736 86.9658 71.0478C86.7601 71.122 86.5724 71.2413 86.4155 71.3975C86.2587 71.5538 86.1364 71.7432 86.057 71.9529C85.9777 72.1626 85.9431 72.3876 85.9558 72.6123C85.9668 73.5784 86.5894 74.1354 87.6742 74.1404C88.0008 74.1418 88.3278 74.1361 88.6548 74.1305C89.3193 74.119 89.984 74.1075 90.6447 74.1554C92.1412 74.2018 93.583 74.7471 94.7552 75.7099C97.2214 77.8086 96.971 80.6473 96.7012 83.4131C96.6001 83.9873 96.3893 84.535 96.0812 85.0241C95.7731 85.5132 95.3738 85.934 94.9067 86.2618C93.4323 87.4698 91.7845 87.4676 90.116 87.4653C89.8555 87.4649 89.5946 87.4646 89.3337 87.4688C89.2418 87.4881 89.147 87.4885 89.0549 87.4699C88.9627 87.4513 88.8751 87.4141 88.7969 87.3604C88.7187 87.3067 88.6515 87.2377 88.5992 87.1571C88.5468 87.0766 88.5103 86.9862 88.4918 86.8911C88.1739 85.8764 87.6305 84.9527 86.9051 84.1941C86.1798 83.4354 85.2927 82.8628 84.3149 82.5221C82.8795 82.0205 81.4111 82.052 79.944 82.0835C79.5878 82.0912 79.231 82.0988 78.8755 82.0988C78.293 82.0981 78.1498 81.9344 78.1366 81.338C78.0688 78.2969 79.1722 75.9959 81.8909 74.6237C82.8338 74.1461 83.0939 73.4475 82.728 72.6216C82.3163 71.6921 81.7249 71.4583 80.7017 71.8086C78.8362 72.5203 77.2864 73.9117 76.3435 75.7213C75.0815 77.8424 75.1128 80.1859 75.144 82.5257C75.1473 82.7713 75.1505 83.0176 75.1523 83.2629C75.1627 84.7817 75.6317 85.2429 77.1356 85.2565L77.837 85.2636C79.1405 85.2775 80.4441 85.2914 81.7463 85.2508C82.2565 85.231 82.7655 85.3158 83.2438 85.5003C83.7222 85.6848 84.1605 85.9653 84.5335 86.3257C84.9064 86.6861 85.2067 87.1192 85.417 87.6001C85.6273 88.0811 85.7434 88.6002 85.7586 89.1277C85.7463 89.3305 85.7766 89.5336 85.8475 89.7231C85.9183 89.9127 86.0279 90.0841 86.1689 90.2257C86.3099 90.3672 86.4788 90.4756 86.6642 90.5433C86.8495 90.611 87.0468 90.6364 87.2425 90.6179C87.8337 90.6387 88.4266 90.6337 89.0193 90.6287Z" fill="url(#paint2_linear_20_867)"/>
<path d="M96.2144 50.202L96.2133 49.1115C96.2122 48.3842 96.2112 47.6567 96.2144 46.9292C96.2199 46.0297 96.516 45.3769 97.515 45.3261C97.7227 45.2937 97.9347 45.3061 98.1376 45.3625C98.3405 45.419 98.5299 45.5182 98.6939 45.6541C98.8578 45.7899 98.9928 45.9593 99.0903 46.1517C99.1878 46.3441 99.2456 46.5553 99.2603 46.7719C99.3156 49.1282 99.3156 51.4857 99.2603 53.8444C99.2444 54.0608 99.1859 54.2716 99.0883 54.4637C98.9907 54.6558 98.8561 54.8253 98.6929 54.9617C98.5296 55.0981 98.3411 55.1986 98.1389 55.2569C97.9367 55.3153 97.725 55.3303 97.517 55.301C96.507 55.2538 96.2234 54.5824 96.2158 53.6864C96.2089 52.9123 96.2112 52.1381 96.2135 51.3639C96.2147 50.9769 96.2144 50.5891 96.2144 50.202Z" fill="url(#paint3_linear_20_867)"/>
<path d="M66.718 60.3751C66.68 60.2278 66.7384 60.1749 66.8796 60.2107L66.718 60.3751Z" fill="url(#paint4_linear_20_867)"/>
<path fill-rule="evenodd" clip-rule="evenodd" d="M1.46269 27.0246C0.997097 28.0139 0.592071 29.0325 0.25 30.0743V91.7427C0.372273 92.0568 0.487705 92.3732 0.603045 92.6893C1.02671 93.8506 1.44916 95.0084 2.20496 96.0387C3.60041 97.9324 5.59817 99.2559 7.84571 99.7755C7.88332 99.7852 7.92233 99.7903 7.96072 99.7952C8.08548 99.8114 8.20361 99.8267 8.24487 100H96.8014C96.9564 99.7158 97.1928 99.7299 97.4313 99.7441C97.5599 99.7518 97.6892 99.7595 97.8065 99.7204C102.612 98.1244 105.202 94.4091 105.184 89.4953C105.155 81.6387 105.185 74.8297 105.213 68.3314V68.3259C105.265 56.3516 105.312 45.4315 104.984 30.9552C104.912 27.8019 103.242 25.4909 100.821 23.7097C98.8801 22.2832 96.6658 21.9256 94.3539 21.9256C86.9749 21.9237 79.5959 21.9254 72.217 21.9306C71.6441 21.9744 71.0776 21.783 70.6404 21.3979C69.4824 20.3661 68.2947 19.3725 67.1068 18.3788C66.4487 17.8283 65.789 17.2765 65.1359 16.7194C63.6943 15.4904 62.2638 14.2483 60.8332 13.006L60.106 12.3748C59.9123 12.2446 59.775 12.0416 59.7234 11.8088C59.6718 11.5759 59.7097 11.3315 59.8293 11.127C61.0468 7.79063 60.3737 3.87218 57.294 1.61693C55.8092 0.459999 53.972 -0.107751 52.1165 0.0169086C50.261 0.141568 48.5104 0.950357 47.1829 2.29622C46.0556 3.42297 45.2926 4.8822 44.9982 6.47432C44.7039 8.06643 44.8926 9.71366 45.5386 11.1907C45.5612 11.2445 45.5903 11.2965 45.6193 11.3483C45.7433 11.5695 45.865 11.7866 45.4625 12.1267C42.7338 14.4337 40.039 16.7837 37.3443 19.1337L37.3395 19.1379L37.3349 19.1419C36.5424 19.833 35.7499 20.5242 34.9565 21.2142C34.3693 21.7262 33.6166 21.9898 32.8493 21.9521C29.5091 21.9343 26.1684 21.9369 22.8275 21.9394C18.7894 21.9425 14.7506 21.9456 10.7124 21.9128C6.6863 21.8799 3.60028 23.4916 1.46269 27.0246ZM52.4571 96.8273V96.8202C38.1765 96.8235 23.8975 96.8192 9.61736 96.8159C7.97968 96.7566 6.42387 96.0611 5.26054 94.8682C4.09721 93.6753 3.41195 92.0727 3.34155 90.3805C3.33947 85.1644 3.33576 80.4023 3.33223 75.884L3.33222 75.8727C3.32053 60.8809 3.31092 48.5712 3.36992 31.2627C3.38029 28.1587 5.95924 25.5273 9.07224 25.2056C10.0161 25.1077 10.9705 25.109 11.922 25.1102L12.2392 25.1105C39.6386 25.1095 67.0381 25.1076 94.4376 25.1047C95.941 24.9965 97.4425 25.341 98.7605 26.0965C99.643 26.6254 100.393 27.3615 100.949 28.2453C101.506 29.1291 101.853 30.1358 101.963 31.184C102.161 33.7051 102.215 36.236 102.125 38.7635C102.147 58.5024 102.147 69.7729 102.125 89.5124C102.186 91.0389 101.763 92.5443 100.92 93.7994C100.077 95.0545 98.8608 95.9905 97.4558 96.4648C96.7276 96.7171 95.9637 96.8413 95.1957 96.8324C80.9493 96.829 66.7031 96.8273 52.4571 96.8273ZM64.2621 20.0656L66.3417 21.8577H39.2061C39.498 21.2084 40.0183 20.8209 40.5258 20.4428C40.7398 20.2834 40.9516 20.1256 41.143 19.9507C42.6015 18.6207 44.1099 17.3465 45.6182 16.0725C46.1082 15.6586 46.5999 15.2432 47.0882 14.8274C47.1579 14.7375 47.2444 14.6631 47.3425 14.6085C47.4407 14.5539 47.5484 14.5203 47.6594 14.5097C47.7704 14.4991 47.8823 14.5117 47.9884 14.5467C48.0946 14.5818 48.1929 14.6386 48.2773 14.7137C49.5651 15.6427 51.1001 16.1357 52.6705 16.1248C54.2409 16.1139 55.7693 15.5997 57.0449 14.6529C57.1149 14.5822 57.1983 14.5274 57.29 14.4919C57.3816 14.4565 57.4794 14.4412 57.577 14.447C57.6747 14.4529 57.7701 14.4798 57.8572 14.5259C57.9442 14.5721 58.021 14.6365 58.0826 14.7151C60.1183 16.4966 62.1699 18.2636 64.2621 20.0656ZM52.4425 3.18359C55.1564 3.21362 57.5174 5.20002 57.2407 8.0266C57.6412 10.7023 54.9039 12.8853 52.558 12.9568C50.5726 13.0183 48.067 10.57 47.9619 8.36481C47.827 5.54324 50.1361 3.15785 52.4425 3.18359Z" fill="url(#paint5_linear_20_867)"/>
<defs>
<linearGradient id="paint0_linear_20_867" x1="17.47" y1="12.9" x2="82.8151" y2="90.1671" gradientUnits="userSpaceOnUse">
<stop stop-color="#184487"/>
<stop offset="0.256" stop-color="#1A4385"/>
<stop offset="0.409" stop-color="#224180"/>
<stop offset="0.534" stop-color="#313D78"/>
<stop offset="0.645" stop-color="#45386D"/>
<stop offset="0.746" stop-color="#5F325F"/>
<stop offset="0.84" stop-color="#7F2A4D"/>
<stop offset="0.927" stop-color="#A42138"/>
<stop offset="1" stop-color="#CB1823"/>
</linearGradient>
<linearGradient id="paint1_linear_20_867" x1="17.47" y1="12.9" x2="82.8151" y2="90.1671" gradientUnits="userSpaceOnUse">
<stop stop-color="#184487"/>
<stop offset="0.256" stop-color="#1A4385"/>
<stop offset="0.409" stop-color="#224180"/>
<stop offset="0.534" stop-color="#313D78"/>
<stop offset="0.645" stop-color="#45386D"/>
<stop offset="0.746" stop-color="#5F325F"/>
<stop offset="0.84" stop-color="#7F2A4D"/>
<stop offset="0.927" stop-color="#A42138"/>
<stop offset="1" stop-color="#CB1823"/>
</linearGradient>
<linearGradient id="paint2_linear_20_867" x1="17.47" y1="12.9" x2="82.8151" y2="90.1671" gradientUnits="userSpaceOnUse">
<stop stop-color="#184487"/>
<stop offset="0.256" stop-color="#1A4385"/>
<stop offset="0.409" stop-color="#224180"/>
<stop offset="0.534" stop-color="#313D78"/>
<stop offset="0.645" stop-color="#45386D"/>
<stop offset="0.746" stop-color="#5F325F"/>
<stop offset="0.84" stop-color="#7F2A4D"/>
<stop offset="0.927" stop-color="#A42138"/>
<stop offset="1" stop-color="#CB1823"/>
</linearGradient>
<linearGradient id="paint3_linear_20_867" x1="17.47" y1="12.9" x2="82.8151" y2="90.1671" gradientUnits="userSpaceOnUse">
<stop stop-color="#184487"/>
<stop offset="0.256" stop-color="#1A4385"/>
<stop offset="0.409" stop-color="#224180"/>
<stop offset="0.534" stop-color="#313D78"/>
<stop offset="0.645" stop-color="#45386D"/>
<stop offset="0.746" stop-color="#5F325F"/>
<stop offset="0.84" stop-color="#7F2A4D"/>
<stop offset="0.927" stop-color="#A42138"/>
<stop offset="1" stop-color="#CB1823"/>
</linearGradient>
<linearGradient id="paint4_linear_20_867" x1="17.47" y1="12.9" x2="82.8151" y2="90.1671" gradientUnits="userSpaceOnUse">
<stop stop-color="#184487"/>
<stop offset="0.256" stop-color="#1A4385"/>
<stop offset="0.409" stop-color="#224180"/>
<stop offset="0.534" stop-color="#313D78"/>
<stop offset="0.645" stop-color="#45386D"/>
<stop offset="0.746" stop-color="#5F325F"/>
<stop offset="0.84" stop-color="#7F2A4D"/>
<stop offset="0.927" stop-color="#A42138"/>
<stop offset="1" stop-color="#CB1823"/>
</linearGradient>
<linearGradient id="paint5_linear_20_867" x1="17.47" y1="12.9" x2="82.8151" y2="90.1671" gradientUnits="userSpaceOnUse">
<stop stop-color="#184487"/>
<stop offset="0.256" stop-color="#1A4385"/>
<stop offset="0.409" stop-color="#224180"/>
<stop offset="0.534" stop-color="#313D78"/>
<stop offset="0.645" stop-color="#45386D"/>
<stop offset="0.746" stop-color="#5F325F"/>
<stop offset="0.84" stop-color="#7F2A4D"/>
<stop offset="0.927" stop-color="#A42138"/>
<stop offset="1" stop-color="#CB1823"/>
</linearGradient>
</defs>
</svg>
