<svg width="61" height="100" viewBox="0 0 61 100" fill="none" xmlns="http://www.w3.org/2000/svg">
<path d="M13.6259 63.821C12.2394 62.9291 12.4218 61.2487 11.8489 59.9536C11.7996 59.7717 11.7634 59.5863 11.7406 59.3988C11.4688 58.4231 11.4516 57.1779 10.8426 56.5447C10.1821 55.8615 8.93664 56.3948 7.95096 56.311C7.60308 56.2921 7.26223 56.202 6.94809 56.0459C6.63395 55.8897 6.35274 55.6706 6.12067 55.4012C4.72038 53.6105 3.7215 51.5193 3.19633 49.2791C3.31674 48.8955 3.0914 48.8135 2.80068 48.7921C2.53398 47.9972 2.52656 47.1335 2.77957 46.3338C3.03257 45.5342 3.53198 44.8429 4.20093 44.3664C4.42283 44.4984 4.61205 44.5572 4.60861 44.1737C5.36189 44.022 6.12379 43.9207 6.8896 43.8704C7.65165 43.9186 7.32137 43.3353 7.21988 42.9785C6.42859 40.2368 5.61837 37.4985 4.8116 34.7586C5.18316 34.3768 4.87697 34.3322 4.58797 34.2769C4.21374 32.2872 3.68447 30.3322 3.00539 28.4313C3.37695 28.0477 3.06903 28.0031 2.78176 27.9496C2.67196 26.2521 2.05033 24.6334 1.00479 23.3223C0.706526 23.0577 0.483541 22.7137 0.359866 22.3274C0.23619 21.941 0.216512 21.527 0.302952 21.13C0.760526 19.157 0.829334 17.1056 1.44861 15.1666C1.63155 14.5673 1.98071 14.0373 2.45247 13.6426C2.92423 13.2479 3.49767 13.0061 4.10115 12.9475C12.0468 12.4302 20.001 12.8476 27.9517 12.7263C28.3921 12.7263 28.6398 12.6799 28.6243 12.1108C28.5813 9.34589 28.5779 6.58092 28.5607 3.8124C28.5968 3.61082 28.4902 3.58941 28.3388 3.61974C26.6513 3.60904 24.9637 3.60547 23.2779 3.5805C23.034 3.61419 22.786 3.59365 22.5503 3.52024C22.3146 3.44683 22.0966 3.32224 21.911 3.15475C21.7253 2.98725 21.5761 2.7807 21.4734 2.5488C21.3707 2.31691 21.3167 2.065 21.3151 1.8098C21.3135 1.55461 21.3643 1.30199 21.4641 1.06873C21.564 0.835477 21.7105 0.626925 21.8941 0.456943C22.0776 0.286961 22.294 0.159443 22.5287 0.0828648C22.7635 0.006287 23.0112 -0.017596 23.2556 0.0128033C27.9827 0.00388407 32.7081 0.00388407 37.4352 0.00388407C37.8082 -0.018226 38.1778 0.0884111 38.4862 0.307138C38.5224 0.435575 38.5723 0.544389 38.7339 0.485523C38.9935 0.760246 39.1635 1.11236 39.2202 1.49244C39.2769 1.87251 39.2174 2.26145 39.05 2.60465C38.8827 2.94785 38.6158 3.22808 38.287 3.40598C37.9582 3.58388 37.5839 3.65052 37.2167 3.59655C35.6135 3.56266 34.012 3.60725 32.4088 3.61796C32.2574 3.58585 32.1507 3.61796 32.1869 3.81061C32.1697 6.54168 32.1869 9.27453 32.1181 12.0056C32.1009 12.7191 32.4243 12.7281 32.9248 12.7191C40.2299 12.7061 47.5345 12.7061 54.8385 12.7191C55.9024 12.6414 56.9657 12.8796 57.9039 13.4059C57.9503 13.5308 58.0002 13.6521 58.1688 13.5986C59.6894 15.0417 59.4108 17.1449 59.9457 18.9412C60.2611 19.8235 60.333 20.7795 60.1535 21.7018C59.9739 22.6241 59.5499 23.4763 58.9291 24.1625C58.1983 25.446 57.7184 26.8662 57.5168 28.3421C56.354 32.4574 55.2272 36.587 54.0764 40.7059C53.8459 41.5336 53.5965 42.3577 53.3075 43.1658C53.0615 43.8473 53.1441 44.1791 53.9422 44.122C54.7845 44.0294 55.6353 44.1755 56.4039 44.5447C57.1573 44.9265 57.3792 45.615 57.7645 46.2233C57.7146 46.391 57.8127 46.441 57.9365 46.4677C58.075 47.9267 57.7558 49.3931 57.0266 50.6491C56.9027 50.6865 56.7978 50.7383 56.8545 50.9059L56.7341 51.2627L56.6997 51.3037C56.1699 52.6664 55.4844 53.9582 54.6578 55.1515C54.2097 55.6421 53.6466 56.0039 53.0234 56.2015C52.4002 56.3991 51.7383 56.4258 51.1022 56.2789C49.9497 56.1487 49.554 56.4876 49.2925 57.788C49.1878 59.531 48.6548 61.2173 47.7444 62.6865C47.2762 63.3461 46.9406 64.0965 46.7574 64.8933C46.5742 65.69 46.5471 66.5167 46.6778 67.3245C46.6778 76.6932 46.6176 86.0548 46.7071 95.4307C46.7569 96.0438 46.6767 96.6607 46.4722 97.2382C46.2676 97.8157 45.9436 98.3397 45.523 98.7735C45.1024 99.2074 44.5952 99.5404 44.0373 99.7494C43.4793 99.9584 42.8839 100.038 42.293 99.9831C34.2081 99.8654 26.1077 99.9189 18.0141 99.9617C17.2736 100.043 16.5267 99.8899 15.8723 99.5212C15.2179 99.1526 14.687 98.5865 14.3501 97.8978C14.1441 97.5697 14.0071 97.2003 13.9478 96.8137C13.8885 96.4271 13.9084 96.0319 14.0061 95.6537C14.1901 85.2236 14.0714 74.7274 14.0474 64.283C14.08 64.1189 14.0474 64.0208 13.8564 64.0779L13.8788 63.994L13.619 63.8156M36.0246 24.7226H24.7281C24.5715 24.678 24.4786 24.7226 24.5113 24.901C24.4941 31.0232 24.4855 37.1471 24.4494 43.2746C24.4494 43.8901 24.6902 43.9579 25.1822 43.9561C28.6433 43.9406 32.1037 43.9406 35.5636 43.9561C36.0539 43.9561 36.3016 43.8919 36.2964 43.2746C36.2586 37.1525 36.2517 31.0285 36.2345 24.901C36.2672 24.7084 36.176 24.6709 36.0195 24.7226M52.5626 51.8567L52.7347 51.5998C53.1389 50.6847 53.5311 49.7625 53.9526 48.8581C54.5426 47.5951 54.5529 47.5987 53.1905 47.5987C37.5212 47.761 21.7384 47.2865 6.13099 47.7681C6.73332 48.7479 7.21363 49.8028 7.56048 50.9077C7.87355 52.3687 8.74914 52.754 10.2492 52.7451C23.8817 52.6595 37.516 52.6898 51.1486 52.7112C51.8367 52.7112 52.3665 52.6381 52.5592 51.8585M39.8641 24.9064C39.8452 31.0303 39.8366 37.1578 39.7919 43.28C39.7919 44.0399 40.1927 43.9489 40.652 43.9489C43.3234 43.9489 45.9966 43.9079 48.6664 43.9721C48.7973 43.9972 48.9319 43.993 49.0611 43.9597C49.1903 43.9265 49.3112 43.865 49.4156 43.7793C49.52 43.6937 49.6055 43.5859 49.6665 43.4632C49.7275 43.3404 49.7624 43.2056 49.769 43.0677C50.2455 40.6453 51.2708 38.3905 51.7421 35.9591C51.9881 34.6961 52.6865 33.5259 52.9462 32.263C53.2642 30.3397 53.8096 28.4644 54.5701 26.6795C55.0621 25.6092 54.7989 24.6923 53.882 24.6923C49.2908 24.6923 44.6996 24.7102 40.1101 24.7191C39.957 24.678 39.8504 24.6977 39.8796 24.8975M11.1471 43.4584C11.1729 43.94 11.2365 44.3592 11.8352 43.9275C14.6219 43.9275 17.4086 43.9275 20.1953 43.9561C20.6632 43.9561 20.9557 43.9382 20.9505 43.2943C20.9092 37.1668 20.8989 31.0357 20.8817 24.9064C20.911 24.7048 20.806 24.6834 20.6529 24.728H5.97101C5.79899 24.6727 5.74911 24.7476 5.77835 24.9064C6.96701 29.5176 8.26232 34.1057 9.61612 38.6688C9.95904 40.3165 10.4723 41.9212 11.1471 43.4548M42.7988 96.3405C42.9708 96.3958 43.0138 96.2959 43.0293 96.1621C43.2942 96.0158 43.2013 95.7554 43.2013 95.5396C43.2013 85.55 43.207 75.5563 43.2185 65.5584C43.2185 64.9198 43.0861 64.679 42.4152 64.679C34.3979 64.7016 26.38 64.7016 18.3616 64.679C17.7372 64.679 17.5239 64.8342 17.5256 65.5228C17.5462 75.5551 17.5462 85.5875 17.5256 95.6198C17.5256 96.2567 17.7251 96.3922 18.298 96.3922C26.4655 96.3637 34.6324 96.3453 42.7988 96.3405ZM3.70895 21.0533H56.7427C56.6103 20.2166 56.4555 19.4478 56.3677 18.6576C56.1131 16.3618 56.077 16.3154 53.8562 16.3154C37.6646 16.3154 21.4717 16.3154 5.27777 16.3154C4.8288 16.2743 4.67742 16.4081 4.58969 16.9326C4.37295 18.2919 4.02891 19.6262 3.70895 21.0533ZM46.0723 56.3377C35.7632 56.2503 25.4454 56.3377 15.1345 56.3056C14.6185 56.27 14.4877 56.4626 14.6632 56.9978C15.0693 58.128 15.4015 59.2854 15.6575 60.462C15.7641 61.031 15.9877 61.0328 16.3817 61.0328C25.6432 61.0328 34.9031 61.0394 44.1612 61.0525C44.3594 61.0751 44.5585 61.0188 44.7182 60.8949C44.8779 60.7711 44.9863 60.5889 45.0213 60.3853C45.3963 59.0492 45.7197 57.697 46.0672 56.3377" fill="url(#paint0_linear_20_862)"/>
<defs>
<linearGradient id="paint0_linear_20_862" x1="10.09" y1="12.9" x2="71.5697" y2="54.4408" gradientUnits="userSpaceOnUse">
<stop stop-color="#184487"/>
<stop offset="0.256" stop-color="#1A4385"/>
<stop offset="0.409" stop-color="#224180"/>
<stop offset="0.534" stop-color="#313D78"/>
<stop offset="0.645" stop-color="#45386D"/>
<stop offset="0.746" stop-color="#5F325F"/>
<stop offset="0.84" stop-color="#7F2A4D"/>
<stop offset="0.927" stop-color="#A42138"/>
<stop offset="1" stop-color="#CB1823"/>
</linearGradient>
</defs>
</svg>
