<svg width="101" height="100" viewBox="0 0 101 100" fill="none" xmlns="http://www.w3.org/2000/svg">
<path d="M53.9994 52.1136C55.108 51.3711 55.9717 50.3165 56.4812 49.0832L53.7519 47.7183C51.3124 50.7868 49.3553 50.7862 46.734 47.7315L44.0139 49.0984C44.5264 50.3304 45.3927 51.3829 46.5031 52.1227C47.6136 52.8626 48.9184 53.2566 50.2526 53.255C51.5869 53.2533 52.8907 52.8562 53.9994 52.1136Z" fill="url(#paint0_linear_20_868)"/>
<path fill-rule="evenodd" clip-rule="evenodd" d="M0.253053 100H100.25L100.245 98.9007C100.25 91.4724 100.25 84.044 100.245 76.6156C100.278 73.7028 99.3017 70.8683 97.4832 68.5928C95.6647 66.3173 93.1155 64.7406 90.2676 64.13C88.8976 63.8222 87.5171 63.5322 86.13 63.3062C85.4324 63.1926 85.3261 62.7164 85.2152 62.22C85.2052 62.1749 85.195 62.1295 85.1844 62.0843C85.0791 61.8493 85.0462 61.5882 85.09 61.3344C85.1338 61.0805 85.2522 60.8456 85.4302 60.6594C86.4187 59.4931 87.339 58.2708 88.1866 56.9984C88.6633 56.176 89.2003 55.39 89.7931 54.6469C94.3445 49.9947 95.4476 42.2232 90.9133 36.7478C90.6752 36.3601 90.5603 35.9092 90.5839 35.4548C90.4791 31.5796 88.6617 28.7714 85.3274 26.8872C85.125 26.7725 84.9155 26.6703 84.7334 26.5814C84.66 26.5456 84.591 26.512 84.5288 26.4805C84.7283 26.1595 84.9226 25.8408 85.1152 25.525C85.5943 24.7392 86.0625 23.9714 86.5715 23.2314C86.821 22.843 87.1915 22.5476 87.6258 22.3911C89.2306 21.9816 90.6753 21.0992 91.7726 19.8585C92.8699 18.6178 93.5692 17.0759 93.7798 15.4329C93.9614 13.7504 93.613 12.0533 92.7833 10.5784C91.9536 9.1036 90.6841 7.9248 89.152 7.20667C87.643 6.48125 85.9426 6.25426 84.2962 6.55846C82.6499 6.86267 81.1428 7.68234 79.9926 8.89911C79.767 9.20216 79.4621 9.43703 79.1115 9.57786C78.761 9.71868 78.3783 9.75998 78.0058 9.69722C77.7045 9.66932 77.4011 9.66932 77.0998 9.69722C71.5626 9.83034 67.0574 15.4692 68.0946 20.9122C68.4837 23.0033 69.5003 24.9262 71.0091 26.4252C68.9352 27.251 67.1897 28.7349 66.0406 30.649C65.4962 29.9349 64.8958 29.2654 64.245 28.6468C63.8413 28.3078 63.5277 27.8742 63.3322 27.3845C63.1368 26.8949 63.0655 26.3645 63.1248 25.8406C63.1274 21.8804 61.2244 19.026 57.784 17.1497C57.6187 17.0594 57.4516 16.9719 57.2798 16.882C57.1858 16.8327 57.0904 16.7828 56.9932 16.7312C61.5888 11.8101 60.2214 5.69548 56.8713 2.60915C55.0981 0.955409 52.7704 0.0248818 50.346 0.0004919C47.9215 -0.0238998 45.5756 0.859611 43.7694 2.47734C40.4147 5.45031 38.7871 11.6414 43.4558 16.6858C43.4443 16.7025 43.4338 16.7216 43.4232 16.7407C43.3993 16.7842 43.3753 16.8279 43.3391 16.8453C39.11 18.8468 37.1384 22.1967 37.3427 26.8575C37.3852 27.118 37.34 27.3853 37.2142 27.6174C36.5354 28.383 35.8314 29.126 35.1579 29.8367C34.941 30.0657 34.7272 30.2913 34.5184 30.5133C33.8254 29.6751 33.083 28.8791 32.2951 28.1295C31.4516 27.4829 30.5691 26.8886 29.6528 26.35C34.2858 21.3024 32.6187 15.3275 29.6159 12.4362C27.9546 10.815 25.7673 9.84304 23.4508 9.69684C21.1343 9.55065 18.8422 10.2399 16.9904 11.6394C15.1325 13.011 13.8447 15.0188 13.3727 17.2796C12.6347 20.785 13.6627 23.8074 16.1476 26.4272C14.8971 26.9377 13.7603 27.6911 12.8026 28.6437C11.845 29.5962 11.0856 30.7292 10.5683 31.977C10.377 32.2683 10.093 32.4866 9.76236 32.5965C8.84819 32.9519 8.06504 33.5792 7.51863 34.3938C6.97223 35.2084 6.68887 36.1711 6.70681 37.1518C6.70379 38.0738 6.7069 38.9958 6.71001 39.9178C6.71506 41.416 6.72011 42.9142 6.6989 44.4119C6.64294 46.433 7.0229 48.4425 7.81294 50.3036C8.60297 52.1647 9.78455 53.8337 11.2773 55.1972C11.6052 55.5209 11.8584 55.9123 12.0193 56.344C12.574 58.0129 13.5942 59.4884 14.9595 60.5968C15.5609 61.0587 15.4423 61.502 15.3183 61.966C15.2754 62.1263 15.2319 62.2891 15.2171 62.456C15.157 63.1362 14.7012 63.2252 14.2136 63.3204L14.1852 63.3259C13.5062 63.4597 12.8249 63.5893 12.1427 63.719C11.7056 63.8022 11.268 63.8854 10.8305 63.9698C7.8225 64.4866 5.10004 66.0665 3.15871 68.4219C1.21738 70.7774 0.186258 73.7517 0.253053 76.8035V100ZM63.1579 41.6293C63.1555 40.7824 63.1531 39.9333 63.1531 39.0809C62.6022 38.9459 62.061 38.8165 61.5248 38.6919C60.2486 38.3955 59.0115 38.1081 57.8005 37.7331C56.8188 37.3983 55.8848 36.9375 55.0217 36.3623C52.8702 35.004 51.2742 33.3122 51.8534 30.4566C51.8997 30.0089 51.9036 29.5579 51.8653 29.1095H48.6417C48.6417 29.4307 48.6453 29.7547 48.6489 30.0806C48.6579 30.8992 48.6671 31.7295 48.62 32.5563C48.593 33.0422 48.4272 33.5102 48.1422 33.9047C46.0026 36.649 43.0709 37.9836 39.7136 38.5339C39.1956 38.6186 38.681 38.7267 38.095 38.8498C37.8238 38.9067 37.5373 38.9669 37.228 39.0295C37.2687 40.1074 37.2839 41.19 37.2991 42.2736C37.3332 44.7057 37.3675 47.1424 37.6893 49.5406C38.1387 52.8912 40.1643 55.5248 42.9899 57.4209C43.7042 57.9 43.7378 58.3607 43.2495 58.8576C42.7747 59.4523 42.1531 59.9129 41.446 60.1941C39.7044 60.6057 37.9396 60.9196 36.1535 61.2372C35.4797 61.3571 34.8028 61.4775 34.1231 61.6038V60.8756C34.1231 58.9029 34.1203 56.9304 34.1175 54.9579C34.1114 50.6459 34.1053 46.334 34.1283 42.0196C34.1145 37.9054 35.6761 33.942 38.4926 30.9434C41.3091 27.9448 45.1667 26.1385 49.2731 25.8955C53.3795 25.6525 57.4231 26.9912 60.5735 29.6367C63.7239 32.2822 65.7419 36.0337 66.2133 40.1209C66.3249 41.1892 66.3786 42.2628 66.3741 43.337C66.3853 47.6165 66.3838 51.896 66.3823 56.1755C66.3818 57.6436 66.3813 59.1116 66.3813 60.5797V61.6085C65.6744 61.4774 64.9717 61.3506 64.2725 61.2244C62.5114 60.9066 60.7725 60.5929 59.0452 60.2245C58.5249 60.1004 58.0486 59.836 57.668 59.4602C57.2874 59.0843 57.0171 58.6112 56.8865 58.0924C57.0537 57.9694 57.2228 57.849 57.3918 57.7286C57.7371 57.4828 58.0815 57.2375 58.4067 56.9721C59.8853 55.8252 61.0814 54.3547 61.9032 52.6734C62.7249 50.9922 63.1505 49.1449 63.1472 47.2735C63.1685 45.3942 63.1632 43.517 63.1579 41.6293ZM74.4515 82.0027C74.4495 82.6161 74.4475 83.2334 74.4475 83.8566H68.3002C68.1919 83.131 68.0875 82.4118 67.9838 81.6975C67.7177 79.8647 67.4564 78.0646 67.1463 76.2729C66.9291 75.3969 66.6483 74.5379 66.3062 73.7027L63.2842 74.6965C63.4026 75.1283 63.5233 75.5523 63.6426 75.9714C63.9071 76.9007 64.1649 77.8063 64.3761 78.722C65.0755 81.9245 64.7739 85.2646 63.5122 88.29L63.4721 88.3939C63.2562 88.9527 63.0399 89.5126 62.7874 90.0556C61.8115 92.152 61.1815 94.3118 61.6329 96.7357H51.9108C51.9062 96.639 51.9001 96.5404 51.894 96.4407C51.8808 96.2252 51.8673 96.0042 51.8673 95.7834C51.8667 95.0879 51.8659 94.3923 51.8651 93.6967C51.8611 90.3287 51.8572 86.9596 51.8818 83.591C51.8864 83.0637 52.0136 82.5448 52.2534 82.0752C53.606 79.5393 54.9676 77.0082 56.3291 74.4771C58.0485 71.2806 59.7679 68.0841 61.4695 64.878C61.5212 64.7321 61.6022 64.5984 61.7075 64.4849C61.8128 64.3715 61.9402 64.2808 62.0818 64.2184C62.2235 64.156 62.3764 64.1232 62.5311 64.122C62.6859 64.1209 62.8392 64.1514 62.9818 64.2117C66.2269 64.904 69.1361 66.6895 71.223 69.2695C73.31 71.8496 74.4482 75.0679 74.4475 78.3865C74.4593 79.587 74.4554 80.7873 74.4515 82.0027ZM48.6402 94.0611C48.64 94.9602 48.6397 95.8628 48.6397 96.77L39.0487 96.772C39.0017 96.621 38.976 96.4641 38.9723 96.306C39.2438 94.0257 38.5196 91.9754 37.6788 89.9001C36.941 88.1076 36.3675 86.2518 35.9655 84.3555C35.385 81.5269 35.9075 78.7536 36.8571 76.0515C36.9509 75.7825 37.0283 75.5072 37.1133 75.2046C37.1567 75.0504 37.202 74.8893 37.2524 74.7182L34.2535 73.7152C32.8651 76.9012 32.2813 80.3799 32.5535 83.8447H26.1267C25.8618 78.347 25.7584 72.925 29.9216 68.5311C32.0051 66.3187 34.7162 64.7975 37.69 64.1722C37.8123 64.1252 37.9428 64.103 38.0738 64.1069C38.2048 64.1108 38.3337 64.1408 38.4531 64.195C38.5724 64.2492 38.6798 64.3266 38.7689 64.4227C38.858 64.5188 38.9272 64.6317 38.9723 64.7548C40.9305 68.4295 42.9021 72.0962 44.8736 75.7628C46.0295 77.9126 47.1854 80.0623 48.3386 82.2136C48.5066 82.4992 48.6055 82.8201 48.6272 83.1508C48.642 86.7672 48.6411 90.384 48.6402 94.0611ZM97.0205 96.4181C97.0057 96.5448 96.9808 96.6702 96.946 96.7931H93.8529V79.1398H90.5819V96.7687H80.8953V95.7056C80.8953 94.9593 80.8942 94.2129 80.8931 93.4666C80.8899 91.2561 80.8867 89.0458 80.9118 86.8355C80.9146 86.3075 81.0396 85.7874 81.2769 85.3157C82.5784 82.874 83.8891 80.4373 85.1997 78.0007C86.9071 74.8266 88.6144 71.6526 90.3012 68.4678C90.6979 67.7192 91.0425 67.7172 91.6929 68.0559C95.0621 69.809 96.9157 72.6179 96.9856 76.3599C97.0734 81.0721 97.0547 85.7863 97.0361 90.5004C97.0283 92.473 97.0205 94.4456 97.0205 96.4181ZM6.74173 79.1187V96.768L3.47664 96.7654V95.8427C3.47664 93.9469 3.47204 92.0509 3.46745 90.155C3.45658 85.6669 3.44571 81.1785 3.49574 76.6908C3.45132 74.8791 3.93623 73.0938 4.89107 71.5537C5.8459 70.0135 7.2292 68.7854 8.87146 68.0197C9.49614 67.6954 9.81837 67.7501 10.1841 68.4402C12.3222 72.4697 14.4844 76.4858 16.6471 80.5028C17.5204 82.1249 18.3938 83.7471 19.2657 85.3704C19.4444 85.6503 19.556 85.9676 19.5919 86.2977C19.61 89.0173 19.6086 91.7348 19.6072 94.4878C19.6068 95.2366 19.6064 95.9881 19.6064 96.743H9.93961V79.1187H6.74173ZM41.1229 41.58C46.1839 40.0134 46.1973 40.0093 50.3056 36.6391C52.697 39.2413 55.8813 40.9819 59.3635 41.5846C59.577 41.6235 59.9078 41.9491 59.9012 42.1303C59.8759 42.8275 59.8708 43.5297 59.8657 44.2322C59.8525 46.0539 59.8392 47.8785 59.4735 49.6283C58.5899 53.8515 54.3897 56.692 50.0064 56.4646C45.3582 56.2234 41.3373 52.8438 40.7989 48.5178C40.6148 46.4142 40.5471 44.302 40.5959 42.1909C40.6223 42.0595 40.6802 41.9365 40.7645 41.8324C40.8489 41.7283 40.9572 41.6462 41.0803 41.5932L41.1229 41.58ZM31.0866 48.469L30.7861 48.4855C29.7878 45.4493 28.8396 44.3223 25.815 42.6186L26.103 40.4042H22.8801C22.604 42.2601 21.7098 43.6725 19.783 44.1555C19.1804 44.3068 18.5595 44.3845 17.9384 44.4623C17.6256 44.5015 17.3128 44.5406 17.0022 44.5892C16.3705 44.6634 15.7435 44.7734 15.1242 44.9187C12.8568 45.5442 11.674 47.2228 11.5059 49.9822L11.2351 50.0797C10.7684 48.9871 10.4127 47.8502 10.1735 46.6863C10.0061 45.1628 9.98428 43.6207 9.96249 42.081C9.95529 41.5725 9.94809 41.0643 9.93566 40.5571C9.90667 39.4816 9.90667 38.4065 9.93566 37.3318C9.91241 37.0863 9.94376 36.8387 10.0275 36.6067C10.1112 36.3748 10.2451 36.1642 10.4198 35.9902C10.5945 35.8161 10.8055 35.6829 11.0377 35.6C11.2699 35.5171 11.5176 35.4867 11.7629 35.5108C12.4694 35.5079 13.1759 35.5043 13.8824 35.5008C17.4752 35.4826 21.0686 35.4645 24.6606 35.5306C25.825 35.5467 26.9707 35.8261 28.012 36.3476C29.0532 36.8692 29.9631 37.6195 30.6735 38.5424C30.8927 38.7854 31.0309 39.0906 31.0688 39.4157C31.0915 41.7757 31.0896 44.1358 31.0877 46.4959C31.0872 47.1536 31.0866 47.8113 31.0866 48.469ZM71.4798 44.9864C70.5909 45.9903 69.9361 47.1791 69.5627 48.467C69.5627 47.7955 69.5617 47.1239 69.5606 46.4523C69.5574 44.3381 69.5541 42.224 69.5831 40.1103C69.6255 39.7175 69.7882 39.3474 70.049 39.0506C70.7466 38.1219 71.6248 37.3438 72.6307 36.7631C73.6366 36.1825 74.7495 35.8112 75.9025 35.6716C78.5376 35.3783 81.2096 35.1932 83.7987 35.9056C89.8564 37.573 92.3933 44.5648 89.0419 50.1338C89.011 49.5923 88.9483 49.0532 88.8541 48.5191C88.2953 46.2045 86.6921 44.9906 83.742 44.6063C83.4476 44.5681 83.1529 44.5328 82.8581 44.4975C82.4877 44.4532 82.1172 44.4088 81.7474 44.3585C79.2651 44.0191 78.2753 43.0767 77.6065 40.3944H74.4132L74.7025 42.6621C73.4694 43.1886 72.3686 43.9825 71.4798 44.9864ZM14.7666 52.0861C14.7682 51.8957 14.7697 51.7053 14.7697 51.5151C14.7651 48.1923 14.7684 48.1935 17.9781 47.7787L18.0012 47.7757C20.0024 47.5154 21.9938 47.2313 23.5983 45.8018C23.7345 45.726 23.8856 45.6808 24.0411 45.6694C24.1966 45.658 24.3527 45.6807 24.4985 45.7359C25.3532 46.012 26.1054 46.5384 26.6576 47.2469C27.2098 47.9555 27.5366 48.8136 27.5955 49.71C27.75 51.2127 27.7218 52.7286 27.5118 54.2245C27.2926 55.8041 26.4867 57.2433 25.2545 58.2556C24.0224 59.2678 22.4543 59.779 20.8624 59.6873C19.2193 59.5786 17.6781 58.8524 16.5481 57.6545C15.418 56.4566 14.7828 54.8755 14.7697 53.2287C14.7605 52.8481 14.7636 52.467 14.7666 52.0861ZM85.7807 51.1679C85.7808 51.3092 85.7809 51.4569 85.7814 51.6114C85.7771 52.4484 85.7258 53.2884 85.6279 54.1197C85.4127 55.7573 84.575 57.249 83.2888 58.2849C82.0026 59.3209 80.3668 59.8214 78.7213 59.6825C77.0757 59.5437 75.5469 58.7761 74.4524 57.5392C73.358 56.3023 72.7821 54.6913 72.8443 53.0408C72.8233 51.7347 72.8847 50.4285 73.0281 49.13C73.1229 48.5467 73.3411 47.9903 73.6682 47.498C73.9952 47.0058 74.4236 46.5891 74.9246 46.2757C76.0639 45.4611 76.4019 45.4552 77.5465 46.2816C79.0002 47.3308 80.7009 47.5753 82.3964 47.7526C85.7787 48.1057 85.779 48.492 85.7807 51.1679ZM46.6042 59.4995H53.8916C54.2839 60.4863 54.9091 61.3634 55.7138 62.0562C56.5185 62.749 57.4788 63.2369 58.5128 63.4782C58.2949 63.8829 58.079 64.2854 57.8641 64.6858C57.052 66.1991 56.2555 67.6833 55.4322 69.1519C55.3426 69.3114 54.9676 69.3773 54.7245 69.3773C51.7388 69.3925 48.7504 69.3978 45.7628 69.3688C45.6085 69.3628 45.4575 69.3233 45.32 69.2531C45.1825 69.1829 45.062 69.0836 44.9668 68.9621C44.2032 67.6089 43.4698 66.2409 42.7139 64.8307C42.4776 64.39 42.2392 63.9451 41.9969 63.4953C43.0295 63.2489 43.9875 62.7571 44.7896 62.0615C45.5917 61.3659 46.2142 60.487 46.6042 59.4995ZM44.3681 12.2096C44.0318 11.4239 43.8543 10.5795 43.8459 9.7249H56.5965C56.8101 12.9898 53.9054 15.9924 50.4354 16.1335C49.581 16.149 48.732 15.9952 47.9374 15.6809C47.1428 15.3666 46.4183 14.898 45.8057 14.3022C45.1931 13.7064 44.7045 12.9952 44.3681 12.2096ZM16.4217 19.436H29.2383C29.2383 21.1358 28.5631 22.766 27.3613 23.968C26.1595 25.17 24.5296 25.8452 22.83 25.8452C21.1304 25.8452 19.5004 25.17 18.2986 23.968C17.0969 22.766 16.4217 21.1358 16.4217 19.436ZM71.2397 19.4768H84.0787C84.0445 21.1446 83.3683 22.7348 82.1908 23.9161C81.0133 25.0975 79.4254 25.7788 77.7581 25.8182C74.3322 25.8834 71.5811 23.2492 71.2397 19.4768ZM70.2384 87.1277C70.5433 87.1305 70.8548 87.1334 71.1752 87.1334L71.1798 96.7417H64.6147C64.7224 95.4671 64.9206 94.2019 65.2077 92.9554C65.67 91.415 66.2847 89.9191 66.8979 88.4268C66.997 88.1857 67.0961 87.9446 67.1944 87.7035C67.2699 87.5614 67.3769 87.4384 67.5073 87.3441C67.6376 87.2497 67.7878 87.1865 67.9463 87.1591C68.6927 87.1134 69.4432 87.1203 70.2384 87.1277ZM35.7066 96.7095L35.7046 96.7667H29.3338V87.1367C29.6187 87.1367 29.9046 87.135 30.1912 87.1334C31.0542 87.1285 31.9237 87.1235 32.7913 87.1631C32.9818 87.1716 33.2348 87.4965 33.3264 87.7279C33.5575 88.3106 33.7723 88.9007 33.987 89.4907C34.3562 90.5053 34.7253 91.5194 35.1774 92.4954C35.8097 93.8598 35.76 95.2345 35.7066 96.7095ZM85.9658 14.3717C85.126 12.9865 83.9627 11.8257 82.5756 10.989C83.2516 10.3274 84.1165 9.8943 85.0512 9.75033C85.986 9.60636 86.9423 9.75879 87.786 10.1862C88.6345 10.5683 89.3505 11.1937 89.8432 11.9832C90.3359 12.7727 90.5831 13.6908 90.5536 14.621C90.5383 15.5792 90.2267 16.5091 89.6615 17.2829C89.0962 18.0568 88.3052 18.6365 87.3972 18.9423C87.2968 17.3254 86.8056 15.757 85.9658 14.3717ZM77.4253 85.7329C77.7264 86.2147 77.9011 94.3085 77.5663 96.797H74.5167V87.4636L77.4253 85.7329ZM23.0652 85.7263L26.0233 87.5012V96.7403H22.9631C22.6343 95.3247 22.7793 86.2068 23.0652 85.7263ZM25.9502 13.7487C26.9346 14.3031 27.7496 15.1149 28.3078 16.0972H17.3719C17.9046 15.1458 18.6805 14.353 19.6202 13.8001C20.5599 13.2471 21.6297 12.9539 22.7199 12.9503C23.8492 12.9183 24.9659 13.1944 25.9502 13.7487ZM53.4114 4.11217C54.3708 4.66468 55.1683 5.45951 55.7241 6.41713H44.7901C45.3459 5.45951 46.1435 4.66468 47.1029 4.11217C48.0623 3.55966 49.15 3.26885 50.2571 3.26885C51.3642 3.26885 52.4519 3.55966 53.4114 4.11217ZM83.1344 16.0735H72.2018C72.762 15.1216 73.561 14.3326 74.5198 13.7843C75.4785 13.2361 76.5637 12.9477 77.6681 12.9477C78.7725 12.9477 79.8577 13.2361 80.8165 13.7843C81.7752 14.3326 82.5742 15.1216 83.1344 16.0735ZM53.5535 72.6838L50.2588 78.838L46.9416 72.6838H53.5535ZM30.7924 55.7161C30.8243 55.7188 30.8602 55.7218 30.8975 55.7218C30.8975 56.3607 30.8971 56.9997 30.8967 57.6387C30.8955 59.4137 30.8944 61.1892 30.9021 62.9648C30.9048 63.5975 30.6313 63.8156 30.0264 63.6726C29.5819 63.5252 29.1213 63.4321 28.6545 63.3951C27.4512 63.4123 27.1072 62.6702 27.0598 61.6816C27.0335 61.3516 27.1378 61.0245 27.3504 60.7708C28.8216 59.5326 29.91 57.9012 30.4883 56.0672C30.5309 55.9442 30.5935 55.8291 30.6735 55.7265C30.6876 55.7072 30.733 55.711 30.7924 55.7161ZM69.6108 55.6935L69.7927 55.6566C69.8826 55.81 69.9618 55.9703 70.0286 56.1351C70.5639 57.9162 71.6302 59.4915 73.0848 60.6502C73.6205 61.0648 73.5254 61.464 73.4216 61.8998C73.4023 61.9808 73.3827 62.063 73.3668 62.1469C73.2594 62.7255 73.1191 63.2376 72.3784 63.3187C72.0956 63.3483 71.8155 63.4126 71.5358 63.4767C71.1933 63.5553 70.8514 63.6337 70.5057 63.6482C70.2124 63.6614 69.653 63.3569 69.649 63.1869C69.6043 61.1671 69.6069 59.1469 69.6096 57.1262C69.6102 56.6487 69.6108 56.1711 69.6108 55.6935ZM47.0774 19.4261H53.425C53.2109 21.3327 51.9312 22.5895 50.2509 22.5895C48.5705 22.5895 47.2889 21.3327 47.0774 19.4261ZM19.644 29.126H25.989C25.9748 29.9512 25.6451 30.7391 25.064 31.3251C24.4828 31.9111 23.6978 32.25 22.8728 32.2709C21.2096 32.2986 19.9306 31.0787 19.644 29.126ZM77.8675 32.2643C76.1555 32.408 74.7078 31.0701 74.4989 29.0772H80.7807C80.8044 29.8829 80.5135 30.6662 79.9697 31.2611C79.426 31.8561 78.6719 32.2159 77.8675 32.2643ZM79.3534 81.9157C77.8108 80.1475 77.4517 78.1143 77.6236 75.8399C77.7796 75.8399 77.9405 75.8375 78.105 75.835C78.5377 75.8284 78.9947 75.8214 79.4483 75.8577C79.5702 75.8766 79.687 75.9198 79.7918 75.9848C79.8967 76.0498 79.9874 76.1352 80.0585 76.236C80.8907 77.5436 81.5167 78.8544 80.2608 80.3043C79.9049 80.8096 79.6009 81.3495 79.3534 81.9157ZM21.157 81.9326C21.8509 81.1032 22.3616 80.1366 22.6559 79.096C22.9502 78.0551 23.0212 76.9637 22.8643 75.8933C21.7611 75.8034 21.2195 75.7593 20.8317 75.9825C20.4576 76.1979 20.2267 76.662 19.7731 77.5739C19.6771 77.7109 19.6047 77.8631 19.559 78.024C19.4876 78.3282 19.4937 78.6455 19.5768 78.9467C19.9286 79.6778 20.3179 80.3912 20.7239 81.1352C20.8665 81.3965 21.0112 81.6616 21.157 81.9326ZM72.4884 33.0849L68.625 35.5484C67.6959 33.8929 68.9598 31.1367 71.1705 30.1112L72.4884 33.0849ZM76.4362 63.4571C76.4777 63.2045 76.5403 62.9558 76.6234 62.7137C77.024 62.7137 77.4188 62.713 77.8114 62.7124C79.045 62.7103 80.2446 62.7084 81.4442 62.7269C81.6538 62.7302 82.0155 62.8896 82.0373 63.0215C82.0907 63.3404 82.1098 63.8413 81.9213 63.9936C81.1631 64.5935 80.3624 65.1375 79.5254 65.6214C79.0397 65.9074 76.3868 64.0206 76.4362 63.4571ZM18.8849 64.2743C18.1963 63.8103 18.2898 63.3477 18.5488 62.8033H24.0662C24.0372 62.933 24.0225 63.0824 24.0075 63.234C23.9745 63.5686 23.9404 63.914 23.7499 64.0819C21.6202 65.9569 21.323 65.918 18.8849 64.2743ZM29.2837 30.1402C31.1071 30.7545 32.7426 33.6306 32.0724 35.0416L28.213 32.7764L29.2837 30.1402ZM44.9496 23.2387L40.7277 24.9891C40.8441 24.035 41.1751 23.1197 41.6958 22.3119C42.2166 21.5041 42.9136 20.8248 43.7345 20.325L44.9496 23.2387ZM56.7053 20.4852C58.2143 20.9511 59.7701 23.2729 59.6547 24.939L55.5528 23.2492L56.7053 20.4852ZM24.2676 71.2519C21.8966 69.5618 21.1876 69.4131 20.0453 70.3382C20.7742 72.6313 20.7883 72.6313 22.9598 72.6335C23.0027 72.6336 23.0464 72.6336 23.0909 72.6337C23.8486 72.6337 23.9544 72.213 24.0606 71.7906C24.1089 71.5982 24.1574 71.4054 24.2676 71.2519ZM76.761 72.5135C76.5429 72.3384 76.5116 71.9306 76.2168 71.0355C76.7227 70.9684 77.1728 70.6952 77.6215 70.4227C78.4732 69.9057 79.32 69.3915 80.5349 70.2954C80.2701 70.5516 80.2091 70.9452 80.1489 71.3339C80.0526 71.956 79.9582 72.5657 79.0331 72.5803C77.5313 72.6038 77.0173 72.7192 76.761 72.5135ZM13.0804 66.9221L14.3823 69.3589L17.8015 67.6407C16.5769 66.016 15.1544 66.386 13.6344 66.7814C13.4511 66.8291 13.2664 66.8772 13.0804 66.9221ZM86.1254 69.3536L82.7121 67.6473C83.87 66.0515 85.2323 66.376 86.6918 66.7235C86.9291 66.7801 87.169 66.8372 87.411 66.8868L86.1254 69.3536ZM86.9359 33.4828C86.4585 32.0157 85.4601 30.7745 84.1295 29.9939L83.3163 32.3355L86.9359 33.4828ZM13.9777 32.2116L16.3057 29.8107L17.1334 32.2116H13.9777ZM17.4009 74.939L15.9407 72.2673L17.0411 71.7031C17.0964 72.0304 17.2217 72.3369 17.3469 72.6434C17.6277 73.3304 17.9085 74.0175 17.4009 74.939ZM84.5637 72.2468L83.1292 74.9094C82.591 74.1245 82.8263 73.514 83.0655 72.8934C83.2138 72.5088 83.3635 72.1203 83.3315 71.684L84.5637 72.2468ZM27.2904 66.5012L25.9106 68.2879L24.478 67.5557C24.7801 67.4137 25.0388 67.217 25.2903 67.0257C25.856 66.5955 26.3855 66.1929 27.2904 66.5012ZM75.1294 66.953C75.3954 67.1528 75.6691 67.3585 75.9908 67.4885C74.4824 68.4448 74.3263 68.3743 73.3214 66.4676C74.1036 66.1823 74.6013 66.5563 75.1294 66.953Z" fill="url(#paint1_linear_20_868)"/>
<defs>
<linearGradient id="paint0_linear_20_868" x1="16.65" y1="12.9" x2="82.45" y2="87" gradientUnits="userSpaceOnUse">
<stop stop-color="#184487"/>
<stop offset="0.256" stop-color="#1A4385"/>
<stop offset="0.409" stop-color="#224180"/>
<stop offset="0.534" stop-color="#313D78"/>
<stop offset="0.645" stop-color="#45386D"/>
<stop offset="0.746" stop-color="#5F325F"/>
<stop offset="0.84" stop-color="#7F2A4D"/>
<stop offset="0.927" stop-color="#A42138"/>
<stop offset="1" stop-color="#CB1823"/>
</linearGradient>
<linearGradient id="paint1_linear_20_868" x1="16.65" y1="12.9" x2="82.45" y2="87" gradientUnits="userSpaceOnUse">
<stop stop-color="#184487"/>
<stop offset="0.256" stop-color="#1A4385"/>
<stop offset="0.409" stop-color="#224180"/>
<stop offset="0.534" stop-color="#313D78"/>
<stop offset="0.645" stop-color="#45386D"/>
<stop offset="0.746" stop-color="#5F325F"/>
<stop offset="0.84" stop-color="#7F2A4D"/>
<stop offset="0.927" stop-color="#A42138"/>
<stop offset="1" stop-color="#CB1823"/>
</linearGradient>
</defs>
</svg>
