<svg width="100" height="100" viewBox="0 0 100 100" fill="none" xmlns="http://www.w3.org/2000/svg">
<path d="M9.75547 100L9.69252 99.9441C9.3568 99.6644 9.11899 99.2938 8.9931 98.8672C8.8672 98.4407 8.8672 97.9862 8.9931 97.5526C9.13298 96.9303 9.20992 96.3499 9.28686 95.7905C9.3568 95.2731 9.43374 94.7277 9.53865 94.1892L9.71351 93.3221L8.83223 93.3501C7.91598 93.3781 6.93678 93.3921 5.74776 93.3921C5.00637 93.3921 4.27197 93.3921 3.54457 93.3781H1.89392H1.85195C1.78201 93.3851 1.71207 93.3921 1.64213 93.3921C1.41831 93.3921 1.19449 93.3501 0.984665 93.2732C0.725878 93.1753 0.481078 93.0215 0.27125 92.8257C0.152348 92.6299 0.0614225 92.3991 0.0264511 92.1684C-0.0155144 91.9097 -0.00852018 91.6439 0.0544282 91.3922C0.725877 87.819 1.39033 84.2948 2.07577 80.7636C2.11774 80.414 2.20167 80.1413 2.33456 79.8895C2.46745 79.6378 2.64231 79.421 2.85913 79.2462C3.06896 79.0714 3.30676 78.9525 3.56555 78.8756C3.73341 78.8267 3.90127 78.8057 4.07613 78.8057C4.16706 78.8057 4.25798 78.8057 4.34191 78.8267H4.39087H8.48951C9.41975 78.8267 10.343 78.8267 11.2662 78.8406H11.8817L11.9657 78.2393C12.3294 75.666 12.735 73.0089 13.1966 70.114L13.3295 69.2959H12.4972C11.6369 69.3168 10.7766 69.3168 9.91634 69.3168C8.92315 69.3168 7.92997 69.3168 6.95777 69.3029H6.30031C6.1814 69.3098 6.12545 69.3168 6.06949 69.3168C5.85967 69.3168 5.65683 69.2819 5.454 69.205C5.22319 69.1141 5.01336 68.9742 4.83151 68.7994C4.70561 68.5966 4.62168 68.3589 4.58671 68.1211C4.54475 67.8554 4.56573 67.5827 4.63567 67.324C5.30712 63.7368 5.97857 60.2126 6.65701 56.6814V56.6114C6.69198 56.3387 6.76892 56.073 6.88782 55.8283C7.00673 55.5905 7.17459 55.3807 7.37043 55.2059C7.56627 55.0381 7.79008 54.9123 8.02789 54.8353C8.20275 54.7794 8.39159 54.7514 8.57344 54.7514C8.63639 54.7514 8.69934 54.7514 8.76928 54.7584H8.84622H12.4063C13.2456 54.7584 14.0919 54.7584 14.9242 54.7724H15.5397L15.6237 54.171C16.0083 51.4719 16.428 48.7379 16.8546 46.0457L16.9875 45.2276H16.1552C15.4278 45.2486 14.7004 45.2486 13.98 45.2486C13.0777 45.2486 12.1825 45.2486 11.3082 45.2346H10.6717C10.5598 45.2416 10.5178 45.2416 10.4689 45.2416C10.28 45.2416 10.0982 45.2066 9.92333 45.1367C9.7205 45.0598 9.53166 44.9339 9.37778 44.7731C9.25189 44.5563 9.16795 44.3186 9.12599 44.0668C9.08402 43.7941 9.10501 43.5144 9.18194 43.2487C9.86039 39.6616 10.5248 36.1303 11.2033 32.6061V32.5642L11.2173 32.5222C11.2313 32.2565 11.3012 32.0048 11.4061 31.767C11.518 31.5363 11.6649 31.3265 11.8538 31.1587C12.0356 30.9908 12.2454 30.865 12.4762 30.7881C12.6581 30.7251 12.8539 30.6902 13.0498 30.6902C13.0917 30.6902 13.1337 30.6902 13.1757 30.6902H16.372C17.1064 30.6902 17.8408 30.6902 18.5682 30.7041H19.1837L19.2747 30.1028C19.6803 27.3128 20.093 24.5787 20.5057 21.9775L20.6385 21.1594H19.8132C19.2817 21.1733 18.7571 21.1733 18.2395 21.1733H15.0711H14.9382C14.7634 21.1733 14.5885 21.1384 14.4276 21.0685C14.2528 20.9985 14.0919 20.8867 13.952 20.7468C13.8191 20.523 13.7352 20.2713 13.7002 20.0126C13.6653 19.7329 13.6862 19.4392 13.7632 19.1665L13.7772 19.0966C14.4416 15.5653 15.1131 12.0411 15.7845 8.51689V8.46794L15.7985 8.41899C15.8265 7.91553 16.0293 7.44703 16.379 7.1044C16.7078 6.78274 17.1344 6.60793 17.5821 6.60793H18.883C19.3376 6.59394 19.7992 6.58695 20.2679 6.58695C20.9183 6.58695 21.5688 6.59395 22.2192 6.62891H22.8448L22.9536 5.92966L22.9676 5.85973C23.0166 5.39822 23.0865 4.93672 23.1635 4.4892L23.2894 3.67807C23.3593 3.23754 23.4293 2.81099 23.4712 2.38445C23.5342 1.4964 23.8909 0.678274 24.4714 0.0699252L24.5413 0H35.991L36.0609 0.0978953C36.2777 0.412559 36.4386 0.783162 36.5225 1.18873C36.6064 1.59429 36.6134 2.00685 36.5435 2.41242C36.4526 3.16761 36.4036 3.88784 36.3547 4.58709C36.3267 5.01364 36.2917 5.44018 36.2567 5.86672L36.1868 6.62891H36.9492C41.2856 6.62191 45.65 6.61492 50.0144 6.61492C54.3789 6.61492 58.7293 6.61492 63.0588 6.62891H63.8211L63.7512 5.86672C63.7162 5.46815 63.6882 5.07657 63.6603 4.67799V4.58709C63.6043 3.85288 63.5484 3.13964 63.4644 2.44738C63.3875 1.99986 63.3945 1.5873 63.4784 1.18174C63.5623 0.77617 63.7232 0.405566 63.954 0.0699252L64.01 0H75.4666L75.5365 0.0699252C76.11 0.678274 76.4598 1.48941 76.5227 2.35648C76.5857 2.93686 76.6766 3.49626 76.7745 4.09062C76.8584 4.60108 76.9633 5.24439 77.0333 5.85274C77.0333 5.92266 77.0473 5.9786 77.0543 6.03454L77.1662 6.6359H77.7817C78.4322 6.60793 79.0826 6.60094 79.7331 6.60094C80.1947 6.60094 80.6493 6.60094 81.097 6.60793L82.3559 6.62191C82.8665 6.62191 83.2932 6.79673 83.6149 7.11838C83.9646 7.46102 84.1744 7.92252 84.1954 8.43298V8.48193L84.2094 8.53087C84.8879 12.0551 85.5593 15.5863 86.2168 19.1106C86.3147 19.4462 86.3357 19.7399 86.2937 20.0196C86.2587 20.2783 86.1748 20.53 86.0419 20.7538C85.902 20.8936 85.7481 20.9985 85.5663 21.0755C85.4054 21.1454 85.2306 21.1803 85.0557 21.1803H84.8389H81.7334C81.2159 21.1803 80.6913 21.1803 80.1737 21.1733H79.3414L79.4743 21.9845C79.9149 24.7465 80.3276 27.4806 80.7053 30.1098L80.7962 30.7181H81.4117C82.244 30.6972 83.0763 30.6902 83.9087 30.6902C84.5661 30.6902 86.7483 30.6902 86.7483 30.6902C86.8462 30.6902 86.8882 30.6902 86.9302 30.6902C87.126 30.6902 87.3149 30.7251 87.5037 30.7881C87.7345 30.865 87.9374 30.9978 88.1262 31.1657C88.315 31.3405 88.4619 31.5432 88.5738 31.774C88.6857 32.0117 88.7487 32.2635 88.7627 32.5292V32.5781L88.7767 32.6201C89.4551 36.1443 90.1266 39.6755 90.791 43.1998C90.882 43.5214 90.8959 43.8081 90.854 44.0738C90.819 44.3256 90.7351 44.5633 90.6022 44.7801C90.4483 44.9409 90.2595 45.0598 90.0566 45.1437C89.8818 45.2136 89.6999 45.2486 89.5111 45.2486C89.4621 45.2486 89.4201 45.2486 89.3712 45.2486H88.6927H85.4614C84.9228 45.2486 84.3773 45.2486 83.8317 45.2486H83.0064L83.1393 46.0597C83.6569 49.3042 84.0485 51.8915 84.3703 54.185L84.4542 54.7934H85.0697C86.0349 54.7724 87.0141 54.7654 87.9863 54.7654C88.8116 54.7654 89.63 54.7654 90.4343 54.7724H91.2247C91.2876 54.7584 91.3506 54.7584 91.4205 54.7584C91.6023 54.7584 91.7842 54.7864 91.966 54.8423C92.2108 54.9192 92.4347 55.0451 92.6305 55.2129C92.8333 55.3877 92.9942 55.5975 93.1131 55.8353C93.239 56.08 93.309 56.3387 93.3369 56.6184V56.6883C94.0224 60.2196 94.6938 63.7438 95.3583 67.275C95.4422 67.5897 95.4562 67.8624 95.4142 68.1281C95.3792 68.3728 95.2883 68.6036 95.1624 68.8064C94.9806 68.9812 94.7707 69.121 94.5399 69.2119C94.3441 69.2889 94.1343 69.3238 93.9245 69.3238C93.8685 69.3238 93.8125 69.3238 93.7636 69.3168H93.0362H89.3502C88.7347 69.3168 88.1122 69.3168 87.4967 69.3168H86.6714L86.8043 70.128C87.2519 72.939 87.6576 75.5961 88.0353 78.2603L88.1192 78.8686H88.7347C89.8118 78.8476 90.8959 78.8406 91.98 78.8406C92.7984 78.8406 95.4632 78.8406 95.4632 78.8406C97.0089 78.8406 97.6524 79.3441 97.9252 80.7706C98.6036 84.3018 99.2751 87.826 99.9325 91.3572C100.009 91.6509 100.016 91.9236 99.9745 92.1754C99.9325 92.4061 99.8486 92.6369 99.7297 92.8327C99.5268 93.0285 99.2821 93.1893 99.0233 93.2802C98.8064 93.3571 98.5826 93.3991 98.3588 93.3991C98.2889 93.3991 98.2189 93.3991 98.149 93.3851H98.072H96.4634C95.701 93.3851 94.9526 93.3991 94.1972 93.3991C93.0222 93.3991 92.064 93.3851 91.1687 93.3571L90.2874 93.3291L90.4623 94.1962C90.5742 94.7556 90.6511 95.322 90.7141 95.7835C90.798 96.4059 90.8749 96.9513 90.9938 97.4967C91.1337 97.9722 91.1267 98.4267 91.0008 98.8532C90.8749 99.2798 90.6371 99.6504 90.3084 99.9231L90.2315 99.993H72.2772L72.2212 99.951C71.8296 99.6923 71.5288 99.3497 71.319 98.9441C71.1092 98.5386 70.9972 98.0701 71.0042 97.6086C70.9902 96.9023 70.9273 96.224 70.8644 95.5108L70.8504 95.357C70.8084 94.9095 70.7734 94.4619 70.7455 94.0144L70.7035 93.3571H70.046C63.3945 93.3641 56.694 93.3711 49.9935 93.3711C43.293 93.3711 36.5925 93.3711 29.9409 93.3571H29.2835L29.2415 94.0144C29.2135 94.4899 29.1715 94.9654 29.1296 95.4339C29.0596 96.1751 28.9967 96.8673 28.9827 97.5806C28.9827 98.0701 28.8778 98.5316 28.668 98.9371C28.4581 99.3427 28.1574 99.6853 27.7937 99.9301L27.7097 99.993H9.75547V100ZM81.027 96.6786C82.7616 96.6786 84.5871 96.6856 86.4196 96.7135L87.2379 96.7275L87.161 95.9164C85.0487 81.0223 82.9504 66.1143 80.8661 51.2062L80.7053 50.0524C78.551 34.6969 76.3968 19.3413 74.2496 3.97874L74.1182 3.30746L73.5362 3.27949C72.508 3.30047 71.4379 3.30746 70.3118 3.30746C69.1857 3.30746 68.0527 3.30047 66.8357 3.27949L66.0593 3.26551L66.1292 4.04168C68.9339 34.7179 71.7246 65.394 74.5084 96.0702L74.5643 96.7065H75.2008C76.9354 96.6925 78.9147 96.6786 81.027 96.6786ZM25.7863 3.88085C20.3028 43.032 16.435 70.5545 12.8539 95.9164L12.742 96.7205H13.5534C15.6237 96.6925 17.4701 96.6855 19.1698 96.6855H19.7153C21.4359 96.6855 23.0096 96.6925 24.5413 96.7135H25.5275V96.0492L25.5345 95.9863C26.8704 81.0433 28.2413 65.9045 29.6122 50.9825L29.7031 49.9685C31.095 34.6619 32.4938 19.3553 33.8997 4.04867L33.9696 3.2725L33.1933 3.28648C32.1721 3.30047 31.116 3.31445 30.0039 3.31445C28.8918 3.31445 27.7237 3.30746 26.4927 3.28648H25.8773L25.7933 3.88784L25.7863 3.88085ZM6.90181 90.0776C7.76211 90.0776 8.63639 90.0776 9.54564 90.0986L10.1681 90.1126L10.2521 89.4972C10.5528 87.3156 10.9025 85.05 11.2383 82.9383L11.3711 82.1201L10.5388 82.1341C9.81143 82.1411 9.07003 82.1481 8.30766 82.1481C7.51031 82.1481 6.69198 82.1481 5.83868 82.1341H5.23718L5.14625 82.7215C5.03434 83.4347 4.90845 84.141 4.77556 84.8542L4.55174 86.0849C4.48879 86.4415 4.42584 86.7981 4.36289 87.1547C4.24399 87.84 4.12509 88.5533 3.9852 89.2595L3.81734 90.1126L4.68463 90.0986C5.41203 90.0846 6.14643 90.0776 6.90181 90.0776ZM92.9382 90.0636C93.7286 90.0636 94.5259 90.0706 95.3163 90.0916L96.1766 90.1126L96.0157 89.2665C95.8828 88.5812 95.7639 87.896 95.645 87.2107L95.4702 86.1898L95.2813 85.1689C95.1275 84.3438 94.9736 83.5186 94.8547 82.7145L94.7638 82.1062L94.1483 82.1201C93.3369 82.1411 92.5256 82.1481 91.7352 82.1481C90.9868 82.1481 90.2595 82.1481 89.581 82.1341H88.6158L88.7487 82.9383C89.1613 85.4626 89.5111 87.889 89.7419 89.4972L89.8328 90.1126L90.4483 90.0986C91.2666 90.0846 92.0919 90.0706 92.9243 90.0706L92.9382 90.0636ZM30.1368 82.7635C30.0248 84.7773 29.857 86.8611 29.6192 89.3294L29.5492 90.0986H30.3186C36.7603 90.0916 43.293 90.0846 49.8746 90.0846C56.4562 90.0846 63.0797 90.0846 69.6963 90.0986H70.4657L70.3887 89.3294C70.1649 87.0009 69.9971 84.8542 69.8712 82.7635L69.8362 82.1062H69.1787C65.5487 82.1201 61.9397 82.1271 58.3656 82.1271H49.308C43.1671 82.1271 37.0261 82.1271 30.8921 82.1062H30.2277L30.1298 82.7635H30.1368ZM48.9163 78.8406C55.428 78.8406 62.0726 78.8406 68.801 78.8546H69.5704L69.5005 78.0924C69.1997 74.8409 69.0039 72.3306 68.864 69.9532L68.822 69.2959H68.0946C64.4506 69.3098 60.7716 69.3168 57.1276 69.3168H42.3627C38.8796 69.3168 35.3685 69.3168 31.8923 69.2889H31.2349L31.1439 69.9392C30.9481 72.883 30.7453 75.4703 30.5075 78.0785L30.4375 78.8406C30.4375 78.8406 45.8668 78.8337 48.9163 78.8337V78.8406ZM10.9165 66.0094C11.6719 66.0094 12.4273 66.0094 13.1966 66.0303L13.8191 66.0443L13.9101 65.429C14.2388 63.1494 14.5745 60.9468 14.9032 58.87L15.0361 58.0519L14.2038 58.0659C13.5114 58.0729 12.8399 58.0799 12.1965 58.0799C11.49 58.0799 10.8046 58.0799 10.1332 58.0659H9.52466L9.43374 58.6602C9.31483 59.4504 9.16795 60.2405 9.02807 61.0097L8.60841 63.3662C8.5035 63.9746 8.39859 64.5899 8.27968 65.2052L8.11881 66.0513L9.07703 66.0373C9.68553 66.0303 10.294 66.0164 10.9165 66.0164V66.0094ZM89.0774 66.0094C89.7139 66.0094 90.3714 66.0094 91.0358 66.0234L91.9031 66.0373L91.7352 65.1913C91.5954 64.485 91.4765 63.7858 91.3576 63.1005L91.1687 62.0097L90.9239 60.6461C90.805 59.9748 90.6791 59.3105 90.5742 58.6463L90.4763 58.0449H89.8678C89.3012 58.0659 88.7137 58.0659 88.0842 58.0659C87.3778 58.0659 86.6224 58.0659 85.8041 58.0519L84.9718 58.0379L85.1047 58.856C85.4894 61.2824 85.8111 63.4291 86.0979 65.415L86.1818 66.0234H86.7973C87.5037 66.0094 88.2731 66.0024 89.0704 66.0024L89.0774 66.0094ZM50.0075 66.0234C55.9316 66.0234 61.8557 66.0234 67.7799 66.0303H68.5492L68.4793 65.2682C68.3045 63.3382 68.1016 61.0517 67.9617 58.6952L67.9268 58.0379H67.2693C63.975 58.0589 60.7017 58.0589 57.4284 58.0589H46.2026C41.7193 58.0589 37.2359 58.0589 32.7596 58.0449H32.1021L32.0602 58.7022C31.9413 60.6391 31.7664 62.7858 31.5426 65.2682L31.4727 66.0303H32.242C38.1662 66.0303 44.0903 66.0234 50.0144 66.0234H50.0075ZM47.6154 54.7654H50.0075C55.6448 54.7654 61.2892 54.7654 66.8986 54.7794H67.668L67.598 54.0172C67.3253 51.0384 67.1154 48.3742 66.9546 45.8779L66.9126 45.2206H66.2481C63.3245 45.2416 60.3939 45.2486 57.4633 45.2486H46.4684C42.2368 45.2486 38.0053 45.2486 33.7668 45.2346H33.1093L33.0674 45.8849C32.8855 48.598 32.6687 51.3321 32.4239 54.0172L32.3539 54.7794C32.3539 54.7794 45.5871 54.7724 47.6084 54.7724H47.6014L47.6154 54.7654ZM85.0627 41.9341C85.6432 41.9341 86.1958 41.9341 86.7413 41.9481L87.6016 41.9621L87.4408 41.116C87.3079 40.4447 87.196 39.7665 87.084 39.1161L86.6924 36.8785C86.5525 36.1094 86.4126 35.3472 86.2937 34.571L86.1958 33.9697L85.5873 33.9836C85.0207 33.9976 84.4472 33.9976 83.8597 33.9976C83.2722 33.9976 82.7336 33.9976 82.1671 33.9836L81.2755 33.9697L81.3907 34.3612L81.4467 34.8018C81.8174 37.1582 82.1461 39.298 82.4399 41.3607L82.5238 41.9691H83.1393C83.8107 41.9481 84.4472 41.9411 85.0557 41.9411L85.0627 41.9341ZM33.9626 34.62C33.8157 36.7387 33.6549 38.9973 33.438 41.1859L33.3611 41.9551H34.1375C36.8303 41.9341 39.5231 41.9341 42.2159 41.9341H53.7004C57.7571 41.9341 61.8138 41.9411 65.8704 41.9481H66.6398L66.5699 41.1859C66.402 39.4028 66.2411 37.375 66.0523 34.62L66.0103 33.9697H65.3599C60.6877 33.9697 56.0155 33.9767 51.3434 33.9767C45.7829 33.9767 40.2295 33.9766 34.669 33.9697H34.0116L33.9696 34.62H33.9626ZM17.5051 41.9551L17.596 41.3398C17.8968 39.235 18.2255 37.0953 18.5892 34.7808L18.7221 33.9627L17.8898 33.9767C17.2883 33.9836 16.7008 33.9906 16.1342 33.9906C15.5677 33.9906 15.0082 33.9906 14.4626 33.9767H13.8541L13.7562 34.564C13.6303 35.3542 13.4904 36.1443 13.3435 36.9415L12.9379 39.214C12.826 39.8364 12.721 40.4797 12.5951 41.116L12.4343 41.9481H13.2806C13.5464 41.9481 14.6375 41.9341 14.9102 41.9341H16.3231C16.5049 41.9341 17.4981 41.9551 17.4981 41.9551H17.5051ZM34.9838 21.8027C34.753 25.1101 34.5501 27.6204 34.3333 29.949L34.2634 30.7181H35.0327C37.6206 30.6972 40.2015 30.6902 42.7894 30.6902H53.4137C57.2675 30.6902 61.1213 30.6902 64.9822 30.7041H65.7515L65.6816 29.942C65.4438 27.2708 65.227 24.5367 65.0381 21.8097L64.9962 21.1594H64.3387C59.6665 21.1664 55.0014 21.1733 50.3642 21.1733C45.4262 21.1733 40.5232 21.1733 35.6832 21.1664H35.0188L34.9838 21.8097V21.8027ZM80.9781 17.8799C81.4607 17.8799 81.9503 17.8799 82.4608 17.8939L83.3211 17.9078L83.1673 17.0617C83.0414 16.3835 82.9225 15.6982 82.8036 15.0199L82.6147 13.9641C82.5588 13.6564 82.5028 13.3487 82.4469 13.0341L82.4119 12.8453C82.272 12.0831 82.1251 11.2999 82.0132 10.5237L81.9223 9.90141L81.2998 9.92238C80.8592 9.93637 80.3975 9.94336 79.9009 9.94336C79.4603 9.94336 78.9987 9.94336 78.5021 9.92938L77.6628 9.91539L77.7957 10.7405C78.1524 12.9711 78.4881 15.1947 78.7958 17.2925L78.8868 17.9008L79.5023 17.8869C79.9919 17.8799 80.4815 17.8729 80.9851 17.8729L80.9781 17.8799ZM35.879 10.5727C35.7392 12.5586 35.5713 14.8661 35.3545 17.1387L35.2775 17.9078H36.0539C38.425 17.8869 40.803 17.8869 43.1741 17.8869H53.2248C56.8059 17.8869 60.3869 17.8869 63.968 17.9008H64.7374L64.6674 17.1387C64.4646 14.908 64.3037 12.8243 64.1499 10.5727L64.1079 9.92238H63.4504C58.9461 9.92938 54.4418 9.93637 49.9585 9.93637C45.4752 9.93637 41.0478 9.93637 36.6484 9.92238H35.886V10.5727H35.879ZM18.841 17.8659C19.3866 17.8659 19.9461 17.8659 20.5196 17.8799L21.1421 17.8939L21.2331 17.2785C21.5268 15.2577 21.8486 13.111 22.2262 10.7195L22.3521 9.90141L21.5198 9.91539C21.0582 9.92238 20.5966 9.92238 20.142 9.92238C19.6593 9.92238 19.1837 9.92238 18.7151 9.91539H18.1136L18.0157 10.5028C17.8968 11.23 17.7709 11.9502 17.638 12.6774L17.4142 13.9081L17.1764 15.2577C17.0715 15.852 16.9666 16.4534 16.8546 17.0478L16.6938 17.8799H17.5401C17.7569 17.8799 17.9737 17.8799 18.1906 17.8729C18.4074 17.8729 18.6172 17.8659 18.834 17.8659H18.841Z" fill="url(#paint0_linear_20_870)"/>
<defs>
<linearGradient id="paint0_linear_20_870" x1="16.4" y1="12.9" x2="82.2" y2="87" gradientUnits="userSpaceOnUse">
<stop stop-color="#184487"/>
<stop offset="0.256" stop-color="#1A4385"/>
<stop offset="0.409" stop-color="#224180"/>
<stop offset="0.534" stop-color="#313D78"/>
<stop offset="0.645" stop-color="#45386D"/>
<stop offset="0.746" stop-color="#5F325F"/>
<stop offset="0.84" stop-color="#7F2A4D"/>
<stop offset="0.927" stop-color="#A42138"/>
<stop offset="1" stop-color="#CB1823"/>
</linearGradient>
</defs>
</svg>
